<?xml version="1.0" encoding="UTF-8" standalone="no"?>
<!-- Created with Inkscape (http://www.inkscape.org/) -->

<svg
   xmlns:dc="http://purl.org/dc/elements/1.1/"
   xmlns:cc="http://creativecommons.org/ns#"
   xmlns:rdf="http://www.w3.org/1999/02/22-rdf-syntax-ns#"
   xmlns:svg="http://www.w3.org/2000/svg"
   xmlns="http://www.w3.org/2000/svg"
   xmlns:sodipodi="http://sodipodi.sourceforge.net/DTD/sodipodi-0.dtd"
   xmlns:inkscape="http://www.inkscape.org/namespaces/inkscape"
   width="2834.6455"
   height="2834.6455"
   id="svg3331"
   sodipodi:version="0.32"
   inkscape:version="0.47 r22583"
   version="1.0"
   sodipodi:docname="logo_mongueurs_60x60.svg"
   inkscape:output_extension="org.inkscape.output.svg.inkscape"
   inkscape:export-filename="D:\mongueurs\association\trunk\documents\kakemonos\logo_mongueurs_40x40.png"
   inkscape:export-xdpi="300.00223"
   inkscape:export-ydpi="300.00223">
  <defs
     id="defs3333">
    <clipPath
       clipPathUnits="userSpaceOnUse"
       id="clipPath2918">
      <path
         d="m 3261.84,5002.96 c -220.79,402.87 -451.5,444.51 -552.69,453.69 -144.84,13.13 -264.38,-55.49 -322.88,-98.88 -44.57,5.58 -44.13,-32.5 -68.68,-23.05 -136.75,87.21 -42.65,429.45 157.86,487.91 0.4,-0.13 164.04,-153.44 239.47,-152.34 111.27,1.59 299.5,51 447.34,-1.04 0,0 -77.41,-157.16 -12.64,-189.79 64.76,-32.63 276.77,-96.27 281.31,-267.95 -99.67,49.24 -296.79,13.63 -161.83,-214.26 l -7.26,5.71 z"
         clip-rule="evenodd"
         id="path2920" />
    </clipPath>
    <clipPath
       clipPathUnits="userSpaceOnUse"
       id="clipPath2714">
      <path
         d="m 2312.21,5031.57 c -52.08,-48.93 -95.73,-33.72 -103.74,-94.25 -8,-60.52 44.8,-109.23 107.42,-139.87 122.41,123.63 270.33,35.44 380.04,51.07 109.7,15.63 94.79,153.18 94.79,153.18 0,0 -154.83,-43.56 -324.73,49.75 -59.53,-35.03 -124.94,-45.53 -153.78,-19.88 z"
         clip-rule="evenodd"
         id="path2716" />
    </clipPath>
    <clipPath
       clipPathUnits="userSpaceOnUse"
       id="clipPath2604">
      <path
         d="m 2303.13,5178.09 c 59.94,3.99 83.89,-8.73 41.93,-84.8 29.93,-9.57 107.83,101.41 112.16,111.47 56.6,131.44 298.68,128.01 430.2,44.48 25.12,-16.11 153.41,-148.35 59.6,-284.57 -70.76,-102.73 -30.58,-155.84 39.62,-222.89 79.52,-75.95 109.46,-210.43 -51.01,-263.99 -80.64,-20.5 -158.32,-19.7 -223.71,7.07 -45.13,18.45 -149.99,103.68 -92.49,207.67 18.89,62.06 24.85,100.33 140.2,169.03 19.16,11.42 31.88,35.53 17.46,37 -396.61,40.57 -355.98,80.76 -288.14,177.61 60.7,118.32 40.79,251.39 375.06,108.97 -178.7,65.92 -297.33,112.85 -371.78,-43.21 -44.88,-94.08 -116.83,-159.75 -190.1,-68.71 31.12,76.12 13.23,90.6 1,104.87 z m -24.02,-101.32 c 1.53,-0.91 18.61,21.27 19.55,24.59 -19.92,19.37 -24.49,42.87 -5.26,71.95 -1.22,12.35 14.26,22.99 -0.61,25.43 -3.55,27.9 -23.95,-12.52 -29.26,-19.03 -22.37,-18.42 -45,-81.4 15.58,-102.94 z"
         clip-rule="evenodd"
         id="path2606" />
    </clipPath>
    <inkscape:perspective
       sodipodi:type="inkscape:persp3d"
       inkscape:vp_x="0 : 526.18109 : 1"
       inkscape:vp_y="0 : 1000 : 0"
       inkscape:vp_z="744.09448 : 526.18109 : 1"
       inkscape:persp3d-origin="372.04724 : 350.78739 : 1"
       id="perspective3339" />
  </defs>
  <sodipodi:namedview
     id="base"
     pagecolor="#ffffff"
     bordercolor="#666666"
     borderopacity="1.0"
     inkscape:pageopacity="0.0"
     inkscape:pageshadow="2"
     inkscape:zoom="0.2"
     inkscape:cx="112.00878"
     inkscape:cy="1456.6016"
     inkscape:document-units="mm"
     inkscape:current-layer="layer1"
     showgrid="false"
     inkscape:window-width="1440"
     inkscape:window-height="851"
     inkscape:window-x="-4"
     inkscape:window-y="-4"
     units="cm"
     inkscape:window-maximized="1" />
  <metadata
     id="metadata3336">
    <rdf:RDF>
      <cc:Work
         rdf:about="">
        <dc:format>image/svg+xml</dc:format>
        <dc:type
           rdf:resource="http://purl.org/dc/dcmitype/StillImage" />
        <dc:title></dc:title>
      </cc:Work>
    </rdf:RDF>
  </metadata>
  <g
     inkscape:label="Layer 1"
     inkscape:groupmode="layer"
     id="layer1"
     transform="translate(0,2692.917)">
    <g
       id="g3818"
       transform="matrix(24.436873,0,0,24.33528,-310.92933,-2997.8996)"
       inkscape:export-xdpi="300"
       inkscape:export-ydpi="300">
      <path
         d="m 56.011542,87.459825 c 0,0 -2.272686,-1.831192 -1.728428,-1.863553 0.543746,-0.03236 14.399304,0 14.367078,0.224983 -0.03171,0.224982 -2.400054,2.089048 -2.400054,2.089048 L 56.011542,87.459825"
         style="fill:#ffffff;fill-opacity:1;fill-rule:evenodd;stroke:none"
         id="path2598" />
      <g
         transform="matrix(0.05115206,0,0,-0.05136584,-70.705917,334.32302)"
         id="g2600">
        <g
           id="g2602"
           clip-path="url(#clipPath2604)">
          <path
             d="m 2303.13,5178.09 c 59.94,3.99 83.89,-8.73 41.93,-84.8 29.93,-9.57 107.83,101.41 112.16,111.47 56.6,131.44 298.68,128.01 430.2,44.48 25.12,-16.11 153.41,-148.35 59.6,-284.57 -70.76,-102.73 -30.58,-155.84 39.62,-222.89 79.52,-75.95 109.46,-210.43 -51.01,-263.99 -80.64,-20.5 -158.32,-19.7 -223.71,7.07 -45.13,18.45 -149.99,103.68 -92.49,207.67 18.89,62.06 24.85,100.33 140.2,169.03 19.16,11.42 31.88,35.53 17.46,37 -396.61,40.57 -355.98,80.76 -288.14,177.61 60.7,118.32 40.79,251.39 375.06,108.97 -178.7,65.92 -297.33,112.85 -371.78,-43.21 -44.88,-94.08 -116.83,-159.75 -190.1,-68.71 31.12,76.12 13.23,90.6 1,104.87 z m -24.02,-101.32 c 1.53,-0.91 18.61,21.27 19.55,24.59 -19.92,19.37 -24.49,42.87 -5.26,71.95 -1.22,12.35 14.26,22.99 -0.61,25.43 -3.55,27.9 -23.95,-12.52 -29.26,-19.03 -22.37,-18.42 -45,-81.4 15.58,-102.94"
             style="fill:#000000;fill-opacity:1;fill-rule:evenodd;stroke:none"
             id="path2608" />
          <path
             d="m 3475.29,5083.05 c 0,426.9 -346.08,772.97 -772.97,772.97 -426.89,0 -772.96,-346.07 -772.96,-772.97 0,-426.89 346.07,-772.96 772.96,-772.96 426.89,0 772.97,346.07 772.97,772.96"
             style="fill:#000000;fill-opacity:1;fill-rule:evenodd;stroke:none"
             id="path2610" />
          <path
             d="m 3459.82,5083.05 c 0,418.36 -339.14,757.5 -757.5,757.5 -418.36,0 -757.5,-339.14 -757.5,-757.5 0,-418.35 339.14,-757.5 757.5,-757.5 418.36,0 757.5,339.15 757.5,757.5"
             style="fill:#100000;fill-opacity:1;fill-rule:evenodd;stroke:none"
             id="path2612" />
          <path
             d="m 3444.37,5083.05 c 0,409.82 -332.23,742.04 -742.05,742.04 -409.82,0 -742.05,-332.22 -742.05,-742.04 0,-409.82 332.23,-742.05 742.05,-742.05 409.82,0 742.05,332.23 742.05,742.05"
             style="fill:#200000;fill-opacity:1;fill-rule:evenodd;stroke:none"
             id="path2614" />
          <path
             d="m 3428.91,5083.05 c 0,401.28 -325.31,726.59 -726.59,726.59 -401.28,0 -726.59,-325.31 -726.59,-726.59 0,-401.28 325.31,-726.59 726.59,-726.59 401.28,0 726.59,325.31 726.59,726.59"
             style="fill:#300000;fill-opacity:1;fill-rule:evenodd;stroke:none"
             id="path2616" />
          <path
             d="m 3413.45,5083.05 c 0,392.74 -318.39,711.13 -711.13,711.13 -392.74,0 -711.13,-318.39 -711.13,-711.13 0,-392.74 318.39,-711.13 711.13,-711.13 392.74,0 711.13,318.39 711.13,711.13"
             style="fill:#400000;fill-opacity:1;fill-rule:evenodd;stroke:none"
             id="path2618" />
          <path
             d="m 3397.99,5083.05 c 0,384.2 -311.47,695.67 -695.67,695.67 -384.2,0 -695.67,-311.47 -695.67,-695.67 0,-384.2 311.47,-695.67 695.67,-695.67 384.2,0 695.67,311.47 695.67,695.67"
             style="fill:#510000;fill-opacity:1;fill-rule:evenodd;stroke:none"
             id="path2620" />
          <path
             d="m 3382.53,5083.05 c 0,375.67 -304.54,680.21 -680.21,680.21 -375.67,0 -680.21,-304.54 -680.21,-680.21 0,-375.67 304.54,-680.21 680.21,-680.21 375.67,0 680.21,304.54 680.21,680.21"
             style="fill:#610000;fill-opacity:1;fill-rule:evenodd;stroke:none"
             id="path2622" />
          <path
             d="m 3367.07,5083.05 c 0,367.13 -297.62,664.75 -664.75,664.75 -367.13,0 -664.75,-297.62 -664.75,-664.75 0,-367.13 297.62,-664.75 664.75,-664.75 367.13,0 664.75,297.62 664.75,664.75"
             style="fill:#710000;fill-opacity:1;fill-rule:evenodd;stroke:none"
             id="path2624" />
          <path
             d="m 3351.61,5083.05 c 0,358.59 -290.7,649.29 -649.29,649.29 -358.59,0 -649.29,-290.7 -649.29,-649.29 0,-358.59 290.7,-649.29 649.29,-649.29 358.59,0 649.29,290.7 649.29,649.29"
             style="fill:#820000;fill-opacity:1;fill-rule:evenodd;stroke:none"
             id="path2626" />
          <path
             d="m 3336.15,5083.05 c 0,350.06 -283.77,633.83 -633.83,633.83 -350.05,0 -633.83,-283.77 -633.83,-633.83 0,-350.05 283.78,-633.83 633.83,-633.83 350.06,0 633.83,283.78 633.83,633.83"
             style="fill:#920000;fill-opacity:1;fill-rule:evenodd;stroke:none"
             id="path2628" />
          <path
             d="m 3320.69,5083.05 c 0,341.52 -276.85,618.37 -618.37,618.37 -341.52,0 -618.37,-276.85 -618.37,-618.37 0,-341.51 276.85,-618.37 618.37,-618.37 341.52,0 618.37,276.86 618.37,618.37"
             style="fill:#a30000;fill-opacity:1;fill-rule:evenodd;stroke:none"
             id="path2630" />
          <path
             d="m 3305.23,5083.05 c 0,332.98 -269.93,602.91 -602.91,602.91 -332.98,0 -602.91,-269.93 -602.91,-602.91 0,-332.98 269.93,-602.91 602.91,-602.91 332.98,0 602.91,269.93 602.91,602.91"
             style="fill:#b30000;fill-opacity:1;fill-rule:evenodd;stroke:none"
             id="path2632" />
          <path
             d="m 3289.77,5083.05 c 0,324.44 -263.01,587.45 -587.45,587.45 -324.44,0 -587.45,-263.01 -587.45,-587.45 0,-324.44 263.01,-587.45 587.45,-587.45 324.44,0 587.45,263.01 587.45,587.45"
             style="fill:#c30000;fill-opacity:1;fill-rule:evenodd;stroke:none"
             id="path2634" />
          <path
             d="m 3274.31,5083.05 c 0,315.9 -256.09,571.99 -571.99,571.99 -315.9,0 -571.99,-256.09 -571.99,-571.99 0,-315.9 256.09,-572 571.99,-572 315.9,0 571.99,256.1 571.99,572"
             style="fill:#d30000;fill-opacity:1;fill-rule:evenodd;stroke:none"
             id="path2636" />
          <path
             d="m 3258.86,5083.05 c 0,307.36 -249.18,556.53 -556.54,556.53 -307.36,0 -556.53,-249.17 -556.53,-556.53 0,-307.36 249.17,-556.53 556.53,-556.53 307.36,0 556.54,249.17 556.54,556.53"
             style="fill:#e40000;fill-opacity:1;fill-rule:evenodd;stroke:none"
             id="path2638" />
          <path
             d="m 3243.39,5083.05 c 0,298.83 -242.25,541.07 -541.07,541.07 -298.82,0 -541.07,-242.24 -541.07,-541.07 0,-298.82 242.25,-541.07 541.07,-541.07 298.82,0 541.07,242.25 541.07,541.07"
             style="fill:#eb0202;fill-opacity:1;fill-rule:evenodd;stroke:none"
             id="path2640" />
          <path
             d="m 3227.93,5083.05 c 0,290.29 -235.32,525.61 -525.61,525.61 -290.29,0 -525.62,-235.32 -525.62,-525.61 0,-290.29 235.33,-525.62 525.62,-525.62 290.29,0 525.61,235.33 525.61,525.62"
             style="fill:#ec0707;fill-opacity:1;fill-rule:evenodd;stroke:none"
             id="path2642" />
          <path
             d="m 3212.48,5083.05 c 0,281.75 -228.41,510.16 -510.16,510.16 -281.75,0 -510.16,-228.41 -510.16,-510.16 0,-281.75 228.41,-510.16 510.16,-510.16 281.75,0 510.16,228.41 510.16,510.16"
             style="fill:#ec0c0c;fill-opacity:1;fill-rule:evenodd;stroke:none"
             id="path2644" />
          <path
             d="m 3197.02,5083.05 c 0,273.21 -221.49,494.7 -494.7,494.7 -273.21,0 -494.7,-221.49 -494.7,-494.7 0,-273.21 221.49,-494.7 494.7,-494.7 273.21,0 494.7,221.49 494.7,494.7"
             style="fill:#ec1111;fill-opacity:1;fill-rule:evenodd;stroke:none"
             id="path2646" />
          <path
             d="m 3181.56,5083.05 c 0,264.67 -214.57,479.24 -479.24,479.24 -264.67,0 -479.24,-214.57 -479.24,-479.24 0,-264.67 214.57,-479.24 479.24,-479.24 264.67,0 479.24,214.57 479.24,479.24"
             style="fill:#ec1515;fill-opacity:1;fill-rule:evenodd;stroke:none"
             id="path2648" />
          <path
             d="m 3166.1,5083.05 c 0,256.14 -207.64,463.78 -463.78,463.78 -256.14,0 -463.78,-207.64 -463.78,-463.78 0,-256.14 207.64,-463.78 463.78,-463.78 256.14,0 463.78,207.64 463.78,463.78"
             style="fill:#ed1a1a;fill-opacity:1;fill-rule:evenodd;stroke:none"
             id="path2650" />
          <path
             d="m 3150.64,5083.05 c 0,247.6 -200.72,448.32 -448.32,448.32 -247.6,0 -448.32,-200.72 -448.32,-448.32 0,-247.6 200.72,-448.32 448.32,-448.32 247.6,0 448.32,200.72 448.32,448.32"
             style="fill:#ee1f1f;fill-opacity:1;fill-rule:evenodd;stroke:none"
             id="path2652" />
          <path
             d="m 3135.18,5083.05 c 0,239.06 -193.8,432.86 -432.86,432.86 -239.06,0 -432.86,-193.8 -432.86,-432.86 0,-239.06 193.8,-432.86 432.86,-432.86 239.06,0 432.86,193.8 432.86,432.86"
             style="fill:#ee2424;fill-opacity:1;fill-rule:evenodd;stroke:none"
             id="path2654" />
          <path
             d="m 3119.72,5083.05 c 0,230.52 -186.88,417.4 -417.4,417.4 -230.52,0 -417.4,-186.88 -417.4,-417.4 0,-230.52 186.88,-417.4 417.4,-417.4 230.52,0 417.4,186.88 417.4,417.4"
             style="fill:#ee2929;fill-opacity:1;fill-rule:evenodd;stroke:none"
             id="path2656" />
          <path
             d="m 3104.26,5083.05 c 0,221.99 -179.96,401.94 -401.94,401.94 -221.98,0 -401.94,-179.95 -401.94,-401.94 0,-221.98 179.96,-401.94 401.94,-401.94 221.98,0 401.94,179.96 401.94,401.94"
             style="fill:#ef2d2d;fill-opacity:1;fill-rule:evenodd;stroke:none"
             id="path2658" />
          <path
             d="m 3088.8,5083.05 c 0,213.45 -173.03,386.48 -386.48,386.48 -213.44,0 -386.48,-173.03 -386.48,-386.48 0,-213.44 173.04,-386.48 386.48,-386.48 213.45,0 386.48,173.04 386.48,386.48"
             style="fill:#ef3232;fill-opacity:1;fill-rule:evenodd;stroke:none"
             id="path2660" />
          <path
             d="m 3073.34,5083.05 c 0,204.91 -166.11,371.02 -371.02,371.02 -204.91,0 -371.02,-166.11 -371.02,-371.02 0,-204.91 166.11,-371.02 371.02,-371.02 204.91,0 371.02,166.11 371.02,371.02"
             style="fill:#f03737;fill-opacity:1;fill-rule:evenodd;stroke:none"
             id="path2662" />
          <path
             d="m 3057.88,5083.05 c 0,196.37 -159.19,355.56 -355.56,355.56 -196.37,0 -355.56,-159.19 -355.56,-355.56 0,-196.37 159.19,-355.56 355.56,-355.56 196.37,0 355.56,159.19 355.56,355.56"
             style="fill:#f03c3c;fill-opacity:1;fill-rule:evenodd;stroke:none"
             id="path2664" />
          <path
             d="m 3042.43,5083.05 c 0,187.83 -152.28,340.1 -340.11,340.1 -187.83,0 -340.11,-152.27 -340.11,-340.1 0,-187.83 152.28,-340.1 340.11,-340.1 187.83,0 340.11,152.27 340.11,340.1"
             style="fill:#f04040;fill-opacity:1;fill-rule:evenodd;stroke:none"
             id="path2666" />
          <path
             d="m 3026.96,5083.05 c 0,179.29 -145.35,324.65 -324.64,324.65 -179.29,0 -324.64,-145.36 -324.64,-324.65 0,-179.29 145.35,-324.64 324.64,-324.64 179.29,0 324.64,145.35 324.64,324.64"
             style="fill:#f04545;fill-opacity:1;fill-rule:evenodd;stroke:none"
             id="path2668" />
          <path
             d="m 3011.5,5083.05 c 0,170.76 -138.42,309.18 -309.18,309.18 -170.76,0 -309.19,-138.42 -309.19,-309.18 0,-170.76 138.43,-309.19 309.19,-309.19 170.76,0 309.18,138.43 309.18,309.19"
             style="fill:#f14a4a;fill-opacity:1;fill-rule:evenodd;stroke:none"
             id="path2670" />
          <path
             d="m 2996.05,5083.05 c 0,162.22 -131.51,293.73 -293.73,293.73 -162.22,0 -293.73,-131.51 -293.73,-293.73 0,-162.22 131.51,-293.73 293.73,-293.73 162.22,0 293.73,131.51 293.73,293.73"
             style="fill:#f14f4f;fill-opacity:1;fill-rule:evenodd;stroke:none"
             id="path2672" />
          <path
             d="m 2980.59,5083.05 c 0,153.68 -124.59,278.27 -278.27,278.27 -153.68,0 -278.27,-124.59 -278.27,-278.27 0,-153.68 124.59,-278.27 278.27,-278.27 153.68,0 278.27,124.59 278.27,278.27"
             style="fill:#f15454;fill-opacity:1;fill-rule:evenodd;stroke:none"
             id="path2674" />
          <path
             d="m 2965.13,5083.05 c 0,145.15 -117.67,262.81 -262.81,262.81 -145.14,0 -262.81,-117.66 -262.81,-262.81 0,-145.14 117.67,-262.81 262.81,-262.81 145.14,0 262.81,117.67 262.81,262.81"
             style="fill:#f25959;fill-opacity:1;fill-rule:evenodd;stroke:none"
             id="path2676" />
          <path
             d="m 2949.67,5083.05 c 0,136.61 -110.74,247.35 -247.35,247.35 -136.61,0 -247.35,-110.74 -247.35,-247.35 0,-136.6 110.74,-247.35 247.35,-247.35 136.61,0 247.35,110.75 247.35,247.35"
             style="fill:#f35d5d;fill-opacity:1;fill-rule:evenodd;stroke:none"
             id="path2678" />
          <path
             d="m 2934.21,5083.05 c 0,128.07 -103.82,231.89 -231.89,231.89 -128.07,0 -231.89,-103.82 -231.89,-231.89 0,-128.07 103.82,-231.89 231.89,-231.89 128.07,0 231.89,103.82 231.89,231.89"
             style="fill:#f36262;fill-opacity:1;fill-rule:evenodd;stroke:none"
             id="path2680" />
          <path
             d="m 2918.75,5083.05 c 0,119.53 -96.9,216.43 -216.43,216.43 -119.53,0 -216.43,-96.9 -216.43,-216.43 0,-119.53 96.9,-216.43 216.43,-216.43 119.53,0 216.43,96.9 216.43,216.43"
             style="fill:#f36767;fill-opacity:1;fill-rule:evenodd;stroke:none"
             id="path2682" />
          <path
             d="m 2903.29,5083.05 c 0,110.99 -89.98,200.97 -200.97,200.97 -110.99,0 -200.97,-89.98 -200.97,-200.97 0,-110.99 89.98,-200.97 200.97,-200.97 110.99,0 200.97,89.98 200.97,200.97"
             style="fill:#f46c6c;fill-opacity:1;fill-rule:evenodd;stroke:none"
             id="path2684" />
          <path
             d="m 2887.83,5083.05 c 0,102.45 -83.06,185.51 -185.51,185.51 -102.45,0 -185.51,-83.06 -185.51,-185.51 0,-102.45 83.06,-185.51 185.51,-185.51 102.45,0 185.51,83.06 185.51,185.51"
             style="fill:#f47171;fill-opacity:1;fill-rule:evenodd;stroke:none"
             id="path2686" />
          <path
             d="m 2872.37,5083.05 c 0,93.91 -76.14,170.05 -170.05,170.05 -93.91,0 -170.05,-76.14 -170.05,-170.05 0,-93.91 76.14,-170.05 170.05,-170.05 93.91,0 170.05,76.14 170.05,170.05"
             style="fill:#f47676;fill-opacity:1;fill-rule:evenodd;stroke:none"
             id="path2688" />
          <path
             d="m 2856.91,5083.05 c 0,85.38 -69.21,154.59 -154.59,154.59 -85.38,0 -154.59,-69.21 -154.59,-154.59 0,-85.38 69.21,-154.59 154.59,-154.59 85.38,0 154.59,69.21 154.59,154.59"
             style="fill:#f47a7a;fill-opacity:1;fill-rule:evenodd;stroke:none"
             id="path2690" />
          <path
             d="m 2841.45,5083.05 c 0,76.84 -62.29,139.13 -139.13,139.13 -76.84,0 -139.13,-62.29 -139.13,-139.13 0,-76.84 62.29,-139.13 139.13,-139.13 76.84,0 139.13,62.29 139.13,139.13"
             style="fill:#f67f7f;fill-opacity:1;fill-rule:evenodd;stroke:none"
             id="path2692" />
          <path
             d="m 2825.99,5083.05 c 0,68.3 -55.37,123.67 -123.67,123.67 -68.3,0 -123.68,-55.37 -123.68,-123.67 0,-68.3 55.38,-123.67 123.68,-123.67 68.3,0 123.67,55.37 123.67,123.67"
             style="fill:#f68484;fill-opacity:1;fill-rule:evenodd;stroke:none"
             id="path2694" />
          <path
             d="m 2810.54,5083.05 c 0,59.76 -48.46,108.22 -108.22,108.22 -59.76,0 -108.21,-48.46 -108.21,-108.22 0,-59.76 48.45,-108.21 108.21,-108.21 59.76,0 108.22,48.45 108.22,108.21"
             style="fill:#f68888;fill-opacity:1;fill-rule:evenodd;stroke:none"
             id="path2696" />
          <path
             d="m 2795.07,5083.05 c 0,51.23 -41.52,92.75 -92.75,92.75 -51.23,0 -92.76,-41.52 -92.76,-92.75 0,-51.23 41.53,-92.76 92.76,-92.76 51.23,0 92.75,41.53 92.75,92.76"
             style="fill:#f78e8e;fill-opacity:1;fill-rule:evenodd;stroke:none"
             id="path2698" />
          <path
             d="m 2779.62,5083.05 c 0,42.69 -34.61,77.3 -77.3,77.3 -42.69,0 -77.3,-34.61 -77.3,-77.3 0,-42.69 34.61,-77.3 77.3,-77.3 42.69,0 77.3,34.61 77.3,77.3"
             style="fill:#f79393;fill-opacity:1;fill-rule:evenodd;stroke:none"
             id="path2700" />
          <path
             d="m 2764.16,5083.05 c 0,34.15 -27.69,61.84 -61.84,61.84 -34.15,0 -61.84,-27.69 -61.84,-61.84 0,-34.15 27.69,-61.84 61.84,-61.84 34.15,0 61.84,27.69 61.84,61.84"
             style="fill:#f79898;fill-opacity:1;fill-rule:evenodd;stroke:none"
             id="path2702" />
          <path
             d="m 2748.7,5083.05 c 0,25.61 -20.77,46.38 -46.38,46.38 -25.61,0 -46.38,-20.77 -46.38,-46.38 0,-25.61 20.77,-46.38 46.38,-46.38 25.61,0 46.38,20.77 46.38,46.38"
             style="fill:#f89c9c;fill-opacity:1;fill-rule:evenodd;stroke:none"
             id="path2704" />
          <path
             d="m 2733.24,5083.05 c 0,17.07 -13.85,30.92 -30.92,30.92 -17.07,0 -30.92,-13.85 -30.92,-30.92 0,-17.07 13.85,-30.92 30.92,-30.92 17.07,0 30.92,13.85 30.92,30.92"
             style="fill:#f8a1a1;fill-opacity:1;fill-rule:evenodd;stroke:none"
             id="path2706" />
          <path
             d="m 2717.78,5083.05 c 0,8.54 -6.92,15.46 -15.46,15.46 -8.53,0 -15.46,-6.92 -15.46,-15.46 0,-8.53 6.93,-15.46 15.46,-15.46 8.54,0 15.46,6.93 15.46,15.46"
             style="fill:#f8a6a6;fill-opacity:1;fill-rule:evenodd;stroke:none"
             id="path2708" />
        </g>
      </g>
      <g
         transform="matrix(0.05115206,0,0,-0.05136584,-70.705917,334.32302)"
         id="g2710">
        <g
           id="g2712"
           clip-path="url(#clipPath2714)">
          <path
             d="m 2312.21,5031.57 c -52.08,-48.93 -95.73,-33.72 -103.74,-94.25 -8,-60.52 44.8,-109.23 107.42,-139.87 122.41,123.63 270.33,35.44 380.04,51.07 109.7,15.63 94.79,153.18 94.79,153.18 0,0 -154.83,-43.56 -324.73,49.75 -59.53,-35.03 -124.94,-45.53 -153.78,-19.88"
             style="fill:#c97a00;fill-opacity:1;fill-rule:evenodd;stroke:none"
             id="path2718" />
          <path
             d="m 2812.53,4945.62 c 0,292.82 -237.38,530.2 -530.2,530.2 -292.81,0 -530.2,-237.38 -530.2,-530.2 0,-292.82 237.39,-530.19 530.2,-530.19 292.82,0 530.2,237.37 530.2,530.19"
             style="fill:#c97a00;fill-opacity:1;fill-rule:evenodd;stroke:none"
             id="path2720" />
          <path
             d="m 2801.92,4945.62 c 0,286.96 -232.63,519.59 -519.59,519.59 -286.96,0 -519.59,-232.63 -519.59,-519.59 0,-286.96 232.63,-519.59 519.59,-519.59 286.96,0 519.59,232.63 519.59,519.59"
             style="fill:#cc8000;fill-opacity:1;fill-rule:evenodd;stroke:none"
             id="path2722" />
          <path
             d="m 2791.32,4945.62 c 0,281.11 -227.88,508.99 -508.99,508.99 -281.1,0 -508.99,-227.88 -508.99,-508.99 0,-281.1 227.89,-508.99 508.99,-508.99 281.11,0 508.99,227.89 508.99,508.99"
             style="fill:#d08600;fill-opacity:1;fill-rule:evenodd;stroke:none"
             id="path2724" />
          <path
             d="m 2780.71,4945.62 c 0,275.25 -223.13,498.38 -498.38,498.38 -275.25,0 -498.38,-223.13 -498.38,-498.38 0,-275.25 223.13,-498.39 498.38,-498.39 275.25,0 498.38,223.14 498.38,498.39"
             style="fill:#d38c00;fill-opacity:1;fill-rule:evenodd;stroke:none"
             id="path2726" />
          <path
             d="m 2770.11,4945.62 c 0,269.39 -218.39,487.78 -487.78,487.78 -269.39,0 -487.78,-218.39 -487.78,-487.78 0,-269.39 218.39,-487.78 487.78,-487.78 269.39,0 487.78,218.39 487.78,487.78"
             style="fill:#d79200;fill-opacity:1;fill-rule:evenodd;stroke:none"
             id="path2728" />
          <path
             d="m 2759.51,4945.62 c 0,263.54 -213.64,477.18 -477.18,477.18 -263.53,0 -477.18,-213.64 -477.18,-477.18 0,-263.53 213.65,-477.17 477.18,-477.17 263.54,0 477.18,213.64 477.18,477.17"
             style="fill:#da9800;fill-opacity:1;fill-rule:evenodd;stroke:none"
             id="path2730" />
          <path
             d="m 2748.9,4945.62 c 0,257.68 -208.89,466.57 -466.57,466.57 -257.68,0 -466.57,-208.89 -466.57,-466.57 0,-257.68 208.89,-466.57 466.57,-466.57 257.68,0 466.57,208.89 466.57,466.57"
             style="fill:#dd9e00;fill-opacity:1;fill-rule:evenodd;stroke:none"
             id="path2732" />
          <path
             d="m 2738.3,4945.62 c 0,251.83 -204.14,455.97 -455.97,455.97 -251.82,0 -455.97,-204.14 -455.97,-455.97 0,-251.82 204.15,-455.97 455.97,-455.97 251.83,0 455.97,204.15 455.97,455.97"
             style="fill:#e0a400;fill-opacity:1;fill-rule:evenodd;stroke:none"
             id="path2734" />
          <path
             d="m 2727.7,4945.62 c 0,245.97 -199.4,445.36 -445.37,445.36 -245.96,0 -445.37,-199.39 -445.37,-445.36 0,-245.96 199.41,-445.37 445.37,-445.37 245.97,0 445.37,199.41 445.37,445.37"
             style="fill:#e4ab00;fill-opacity:1;fill-rule:evenodd;stroke:none"
             id="path2736" />
          <path
             d="m 2717.09,4945.62 c 0,240.11 -194.65,434.76 -434.76,434.76 -240.11,0 -434.76,-194.65 -434.76,-434.76 0,-240.11 194.65,-434.76 434.76,-434.76 240.11,0 434.76,194.65 434.76,434.76"
             style="fill:#e7b000;fill-opacity:1;fill-rule:evenodd;stroke:none"
             id="path2738" />
          <path
             d="m 2706.49,4945.62 c 0,234.26 -189.9,424.16 -424.16,424.16 -234.25,0 -424.16,-189.9 -424.16,-424.16 0,-234.25 189.91,-424.16 424.16,-424.16 234.26,0 424.16,189.91 424.16,424.16"
             style="fill:#ebb700;fill-opacity:1;fill-rule:evenodd;stroke:none"
             id="path2740" />
          <path
             d="m 2695.88,4945.62 c 0,228.4 -185.15,413.55 -413.55,413.55 -228.4,0 -413.55,-185.15 -413.55,-413.55 0,-228.4 185.15,-413.55 413.55,-413.55 228.4,0 413.55,185.15 413.55,413.55"
             style="fill:#eebc00;fill-opacity:1;fill-rule:evenodd;stroke:none"
             id="path2742" />
          <path
             d="m 2685.28,4945.62 c 0,222.54 -180.41,402.95 -402.95,402.95 -222.54,0 -402.95,-180.41 -402.95,-402.95 0,-222.54 180.41,-402.95 402.95,-402.95 222.54,0 402.95,180.41 402.95,402.95"
             style="fill:#f0c100;fill-opacity:1;fill-rule:evenodd;stroke:none"
             id="path2744" />
          <path
             d="m 2674.68,4945.62 c 0,216.68 -175.66,392.34 -392.35,392.34 -216.68,0 -392.35,-175.66 -392.35,-392.34 0,-216.68 175.67,-392.35 392.35,-392.35 216.69,0 392.35,175.67 392.35,392.35"
             style="fill:#f0c101;fill-opacity:1;fill-rule:evenodd;stroke:none"
             id="path2746" />
          <path
             d="m 2664.07,4945.62 c 0,210.83 -170.91,381.74 -381.74,381.74 -210.83,0 -381.74,-170.91 -381.74,-381.74 0,-210.83 170.91,-381.74 381.74,-381.74 210.83,0 381.74,170.91 381.74,381.74"
             style="fill:#f0c202;fill-opacity:1;fill-rule:evenodd;stroke:none"
             id="path2748" />
          <path
             d="m 2653.47,4945.62 c 0,204.97 -166.17,371.14 -371.14,371.14 -204.97,0 -371.14,-166.17 -371.14,-371.14 0,-204.97 166.17,-371.14 371.14,-371.14 204.97,0 371.14,166.17 371.14,371.14"
             style="fill:#f0c303;fill-opacity:1;fill-rule:evenodd;stroke:none"
             id="path2750" />
          <path
             d="m 2642.86,4945.62 c 0,199.11 -161.41,360.53 -360.53,360.53 -199.11,0 -360.53,-161.42 -360.53,-360.53 0,-199.11 161.42,-360.53 360.53,-360.53 199.12,0 360.53,161.42 360.53,360.53"
             style="fill:#f0c305;fill-opacity:1;fill-rule:evenodd;stroke:none"
             id="path2752" />
          <path
             d="m 2632.26,4945.62 c 0,193.26 -156.67,349.93 -349.93,349.93 -193.26,0 -349.93,-156.67 -349.93,-349.93 0,-193.26 156.67,-349.93 349.93,-349.93 193.26,0 349.93,156.67 349.93,349.93"
             style="fill:#f0c306;fill-opacity:1;fill-rule:evenodd;stroke:none"
             id="path2754" />
          <path
             d="m 2621.66,4945.62 c 0,187.4 -151.93,339.33 -339.33,339.33 -187.4,0 -339.33,-151.93 -339.33,-339.33 0,-187.4 151.93,-339.33 339.33,-339.33 187.4,0 339.33,151.93 339.33,339.33"
             style="fill:#f0c307;fill-opacity:1;fill-rule:evenodd;stroke:none"
             id="path2756" />
          <path
             d="m 2611.05,4945.62 c 0,181.55 -147.17,328.72 -328.72,328.72 -181.54,0 -328.72,-147.17 -328.72,-328.72 0,-181.55 147.18,-328.72 328.72,-328.72 181.55,0 328.72,147.17 328.72,328.72"
             style="fill:#f0c408;fill-opacity:1;fill-rule:evenodd;stroke:none"
             id="path2758" />
          <path
             d="m 2600.45,4945.62 c 0,175.69 -142.43,318.12 -318.12,318.12 -175.69,0 -318.12,-142.43 -318.12,-318.12 0,-175.69 142.43,-318.12 318.12,-318.12 175.69,0 318.12,142.43 318.12,318.12"
             style="fill:#f0c409;fill-opacity:1;fill-rule:evenodd;stroke:none"
             id="path2760" />
          <path
             d="m 2589.84,4945.62 c 0,169.83 -137.68,307.51 -307.51,307.51 -169.83,0 -307.51,-137.68 -307.51,-307.51 0,-169.83 137.68,-307.51 307.51,-307.51 169.83,0 307.51,137.68 307.51,307.51"
             style="fill:#f1c40b;fill-opacity:1;fill-rule:evenodd;stroke:none"
             id="path2762" />
          <path
             d="m 2579.24,4945.62 c 0,163.98 -132.93,296.91 -296.91,296.91 -163.97,0 -296.91,-132.93 -296.91,-296.91 0,-163.98 132.94,-296.91 296.91,-296.91 163.98,0 296.91,132.93 296.91,296.91"
             style="fill:#f1c40c;fill-opacity:1;fill-rule:evenodd;stroke:none"
             id="path2764" />
          <path
             d="m 2568.64,4945.62 c 0,158.12 -128.19,286.31 -286.31,286.31 -158.12,0 -286.31,-128.19 -286.31,-286.31 0,-158.12 128.19,-286.31 286.31,-286.31 158.12,0 286.31,128.19 286.31,286.31"
             style="fill:#f1c40d;fill-opacity:1;fill-rule:evenodd;stroke:none"
             id="path2766" />
          <path
             d="m 2558.03,4945.62 c 0,152.27 -123.43,275.7 -275.7,275.7 -152.26,0 -275.7,-123.43 -275.7,-275.7 0,-152.26 123.44,-275.7 275.7,-275.7 152.27,0 275.7,123.44 275.7,275.7"
             style="fill:#f1c50e;fill-opacity:1;fill-rule:evenodd;stroke:none"
             id="path2768" />
          <path
             d="m 2547.43,4945.62 c 0,146.41 -118.69,265.1 -265.1,265.1 -146.4,0 -265.1,-118.69 -265.1,-265.1 0,-146.41 118.7,-265.1 265.1,-265.1 146.41,0 265.1,118.69 265.1,265.1"
             style="fill:#f1c50f;fill-opacity:1;fill-rule:evenodd;stroke:none"
             id="path2770" />
          <path
             d="m 2536.82,4945.62 c 0,140.55 -113.94,254.49 -254.49,254.49 -140.55,0 -254.49,-113.94 -254.49,-254.49 0,-140.55 113.94,-254.5 254.49,-254.5 140.55,0 254.49,113.95 254.49,254.5"
             style="fill:#f1c610;fill-opacity:1;fill-rule:evenodd;stroke:none"
             id="path2772" />
          <path
             d="m 2526.22,4945.62 c 0,134.7 -109.19,243.89 -243.89,243.89 -134.69,0 -243.89,-109.19 -243.89,-243.89 0,-134.69 109.2,-243.89 243.89,-243.89 134.7,0 243.89,109.2 243.89,243.89"
             style="fill:#f1c612;fill-opacity:1;fill-rule:evenodd;stroke:none"
             id="path2774" />
          <path
             d="m 2515.62,4945.62 c 0,128.84 -104.45,233.29 -233.29,233.29 -128.84,0 -233.29,-104.45 -233.29,-233.29 0,-128.84 104.45,-233.29 233.29,-233.29 128.84,0 233.29,104.45 233.29,233.29"
             style="fill:#f1c613;fill-opacity:1;fill-rule:evenodd;stroke:none"
             id="path2776" />
          <path
             d="m 2505.01,4945.62 c 0,122.98 -99.7,222.68 -222.68,222.68 -122.98,0 -222.68,-99.7 -222.68,-222.68 0,-122.98 99.7,-222.68 222.68,-222.68 122.98,0 222.68,99.7 222.68,222.68"
             style="fill:#f1c714;fill-opacity:1;fill-rule:evenodd;stroke:none"
             id="path2778" />
          <path
             d="m 2494.41,4945.62 c 0,117.13 -94.95,212.08 -212.08,212.08 -117.12,0 -212.08,-94.95 -212.08,-212.08 0,-117.12 94.96,-212.08 212.08,-212.08 117.13,0 212.08,94.96 212.08,212.08"
             style="fill:#f1c715;fill-opacity:1;fill-rule:evenodd;stroke:none"
             id="path2780" />
          <path
             d="m 2483.8,4945.62 c 0,111.27 -90.2,201.47 -201.47,201.47 -111.27,0 -201.47,-90.2 -201.47,-201.47 0,-111.27 90.2,-201.48 201.47,-201.48 111.27,0 201.47,90.21 201.47,201.48"
             style="fill:#f1c716;fill-opacity:1;fill-rule:evenodd;stroke:none"
             id="path2782" />
          <path
             d="m 2473.2,4945.62 c 0,105.42 -85.45,190.87 -190.87,190.87 -105.41,0 -190.87,-85.45 -190.87,-190.87 0,-105.41 85.46,-190.87 190.87,-190.87 105.42,0 190.87,85.46 190.87,190.87"
             style="fill:#f1c718;fill-opacity:1;fill-rule:evenodd;stroke:none"
             id="path2784" />
          <path
             d="m 2462.6,4945.62 c 0,99.56 -80.71,180.27 -180.27,180.27 -99.55,0 -180.27,-80.71 -180.27,-180.27 0,-99.55 80.72,-180.26 180.27,-180.26 99.56,0 180.27,80.71 180.27,180.26"
             style="fill:#f1c819;fill-opacity:1;fill-rule:evenodd;stroke:none"
             id="path2786" />
          <path
             d="m 2451.99,4945.62 c 0,93.7 -75.96,169.66 -169.66,169.66 -93.7,0 -169.66,-75.96 -169.66,-169.66 0,-93.7 75.96,-169.66 169.66,-169.66 93.7,0 169.66,75.96 169.66,169.66"
             style="fill:#f2c81a;fill-opacity:1;fill-rule:evenodd;stroke:none"
             id="path2788" />
          <path
             d="m 2441.39,4945.62 c 0,87.84 -71.21,159.06 -159.06,159.06 -87.84,0 -159.06,-71.22 -159.06,-159.06 0,-87.84 71.22,-159.06 159.06,-159.06 87.85,0 159.06,71.22 159.06,159.06"
             style="fill:#f2c81b;fill-opacity:1;fill-rule:evenodd;stroke:none"
             id="path2790" />
          <path
             d="m 2430.79,4945.62 c 0,81.99 -66.47,148.45 -148.46,148.45 -81.99,0 -148.45,-66.46 -148.45,-148.45 0,-81.99 66.46,-148.46 148.45,-148.46 81.99,0 148.46,66.47 148.46,148.46"
             style="fill:#f3ca23;fill-opacity:1;fill-rule:evenodd;stroke:none"
             id="path2792" />
          <path
             d="m 2420.18,4945.62 c 0,76.13 -61.72,137.85 -137.85,137.85 -76.13,0 -137.85,-61.72 -137.85,-137.85 0,-76.13 61.72,-137.85 137.85,-137.85 76.13,0 137.85,61.72 137.85,137.85"
             style="fill:#f3ce31;fill-opacity:1;fill-rule:evenodd;stroke:none"
             id="path2794" />
          <path
             d="m 2409.58,4945.62 c 0,70.27 -56.97,127.25 -127.25,127.25 -70.27,0 -127.25,-56.98 -127.25,-127.25 0,-70.27 56.98,-127.24 127.25,-127.24 70.28,0 127.25,56.97 127.25,127.24"
             style="fill:#f4d140;fill-opacity:1;fill-rule:evenodd;stroke:none"
             id="path2796" />
          <path
             d="m 2398.97,4945.62 c 0,64.42 -52.22,116.64 -116.64,116.64 -64.42,0 -116.64,-52.22 -116.64,-116.64 0,-64.42 52.22,-116.64 116.64,-116.64 64.42,0 116.64,52.22 116.64,116.64"
             style="fill:#f5d44f;fill-opacity:1;fill-rule:evenodd;stroke:none"
             id="path2798" />
          <path
             d="m 2388.37,4945.62 c 0,58.56 -47.48,106.04 -106.04,106.04 -58.56,0 -106.04,-47.48 -106.04,-106.04 0,-58.56 47.48,-106.04 106.04,-106.04 58.56,0 106.04,47.48 106.04,106.04"
             style="fill:#f6d85e;fill-opacity:1;fill-rule:evenodd;stroke:none"
             id="path2800" />
          <path
             d="m 2377.77,4945.62 c 0,52.71 -42.73,95.43 -95.44,95.43 -52.71,0 -95.44,-42.72 -95.44,-95.43 0,-52.71 42.73,-95.44 95.44,-95.44 52.71,0 95.44,42.73 95.44,95.44"
             style="fill:#f7dc6d;fill-opacity:1;fill-rule:evenodd;stroke:none"
             id="path2802" />
          <path
             d="m 2367.16,4945.62 c 0,46.85 -37.98,84.83 -84.83,84.83 -46.85,0 -84.83,-37.98 -84.83,-84.83 0,-46.85 37.98,-84.83 84.83,-84.83 46.85,0 84.83,37.98 84.83,84.83"
             style="fill:#f8e07b;fill-opacity:1;fill-rule:evenodd;stroke:none"
             id="path2804" />
          <path
             d="m 2356.56,4945.62 c 0,40.99 -33.24,74.23 -74.23,74.23 -40.99,0 -74.23,-33.24 -74.23,-74.23 0,-40.99 33.24,-74.23 74.23,-74.23 40.99,0 74.23,33.24 74.23,74.23"
             style="fill:#f8e38b;fill-opacity:1;fill-rule:evenodd;stroke:none"
             id="path2806" />
          <path
             d="m 2345.95,4945.62 c 0,35.14 -28.48,63.62 -63.62,63.62 -35.13,0 -63.62,-28.48 -63.62,-63.62 0,-35.14 28.49,-63.62 63.62,-63.62 35.14,0 63.62,28.48 63.62,63.62"
             style="fill:#f9e799;fill-opacity:1;fill-rule:evenodd;stroke:none"
             id="path2808" />
          <path
             d="m 2335.35,4945.62 c 0,29.28 -23.74,53.02 -53.02,53.02 -29.28,0 -53.02,-23.74 -53.02,-53.02 0,-29.28 23.74,-53.02 53.02,-53.02 29.28,0 53.02,23.74 53.02,53.02"
             style="fill:#fbeba8;fill-opacity:1;fill-rule:evenodd;stroke:none"
             id="path2810" />
          <path
             d="m 2324.75,4945.62 c 0,23.42 -19,42.42 -42.42,42.42 -23.42,0 -42.42,-19 -42.42,-42.42 0,-23.42 19,-42.42 42.42,-42.42 23.42,0 42.42,19 42.42,42.42"
             style="fill:#fcf0bd;fill-opacity:1;fill-rule:evenodd;stroke:none"
             id="path2812" />
          <path
             d="m 2314.14,4945.62 c 0,17.57 -14.24,31.81 -31.81,31.81 -17.56,0 -31.81,-14.24 -31.81,-31.81 0,-17.57 14.25,-31.81 31.81,-31.81 17.57,0 31.81,14.24 31.81,31.81"
             style="fill:#fdf4d4;fill-opacity:1;fill-rule:evenodd;stroke:none"
             id="path2814" />
          <path
             d="m 2303.54,4945.62 c 0,11.71 -9.5,21.21 -21.21,21.21 -11.71,0 -21.21,-9.5 -21.21,-21.21 0,-11.71 9.5,-21.21 21.21,-21.21 11.71,0 21.21,9.5 21.21,21.21"
             style="fill:#fefae9;fill-opacity:1;fill-rule:evenodd;stroke:none"
             id="path2816" />
          <path
             d="m 2292.93,4945.62 c 0,5.86 -4.74,10.6 -10.6,10.6 -5.85,0 -10.6,-4.74 -10.6,-10.6 0,-5.85 4.75,-10.6 10.6,-10.6 5.86,0 10.6,4.75 10.6,10.6"
             style="fill:#ffffff;fill-opacity:1;fill-rule:evenodd;stroke:none"
             id="path2818" />
        </g>
      </g>
      <path
         d="m 47.805217,68.545382 c 1.57088,0.217278 3.122833,0.261452 0.976493,4.168338 3.831801,3.53962 5.080422,-1.125939 6.619588,-4.730794 2.94687,-6.899973 13.807475,-6.880454 20.534993,-2.589352 1.284429,0.826477 8.435486,6.929252 3.6364,13.926307 -3.619519,5.278353 -1.563207,8.005879 2.027156,11.449959 4.067612,3.901749 5.599104,10.80891 -2.609266,13.55955 -4.444091,1.13519 -13.127153,-1.15265 -16.8367,-3.93616 -0.0798,0.14793 -0.733521,5.01844 -0.856286,5.43091 10.327089,6.17931 25.692145,-1.71459 25.124868,-1.17063 6.036966,-3.7723 18.835207,-7.622174 15.655597,-14.021331 -0.73198,-2.073125 -6.088116,-16.411385 -14.484726,-25.6521 -17.63058,-19.399336 -34.120469,-7.530232 -36.24021,-5.778143 -3.24611,-1.173196 -6.386846,8.793318 -6.792482,8.861635 -0.406659,0.06832 -3.904948,3.886853 1.387244,6.310293 1.470621,3.387577 6.547975,4.884378 10.017619,-0.09092 0.570345,-7.149097 7.845703,-11.766886 20.34215,-5.990797 -5.778136,-5.675926 -16.642322,-7.097732 -20.384095,1.924164 -2.050174,4.942421 -4.435906,7.609849 -8.184329,2.932989 2.199538,-4.003967 1.018437,-3.964415 0.06599,-4.60392 z m -1.556046,4.68816 c 0.07826,0.04674 0.111512,-0.764323 0.158572,-0.933831 -1.017926,-0.99547 -1.251691,-2.201539 -0.268548,-3.695258 -0.06189,-0.634882 -0.148853,-0.898902 -0.0312,-1.306747 -0.08849,0.01387 -0.243484,0.595844 -0.515613,0.929722 -1.144272,0.947186 -2.441999,3.901235 0.656792,5.006114"
         style="fill:#000000;fill-opacity:1;fill-rule:evenodd;stroke:none"
         id="path2820" />
      <path
         d="m 82.107276,74.192543 c 13.474986,17.960065 3.97298,29.978127 -6.433395,29.978127 -10.406374,0 -12.869346,-4.624463 -12.828936,-7.591868 0.03376,-2.420358 3.88858,-9.18113 4.313142,-9.41433 -1.562696,0.146906 -0.625078,0.209572 -4.290635,0.03904 -1.397986,3.215501 -2.612847,7.077699 -2.15964,10.276249 0.558069,3.934109 7.254385,8.780479 14.978857,8.441969 25.190341,-1.10385 22.816887,-17.31439 6.420607,-31.729185"
         style="fill:#000000;fill-opacity:1;fill-rule:evenodd;stroke:none"
         id="path2822" />
      <path
         d="m 77.603337,102.50796 c -9.627329,0.92407 -13.76195,-3.536537 -12.924079,-5.57422 0.04962,0.424796 3.344833,5.85879 12.924079,5.57422"
         style="fill:#000000;fill-opacity:1;fill-rule:evenodd;stroke:none"
         id="path2824" />
      <path
         d="m 77.603337,102.50796 c -9.627329,0.92407 -13.76195,-3.536537 -12.924079,-5.57422 0.04962,0.424796 3.344833,5.85879 12.924079,5.57422 z"
         style="fill:none;stroke:#000000;stroke-width:0.51258838;stroke-linecap:butt;stroke-linejoin:miter;stroke-miterlimit:10.43299961;stroke-opacity:1;stroke-dasharray:none"
         id="path2826" />
      <path
         d="M 79.339949,92.853238 C 75.214024,83.977735 78.61359,80.597349 80.01976,79.532535 c 1.406682,-1.064814 -3.857377,1.99659 -0.679811,13.320703"
         style="fill:#000000;fill-opacity:1;fill-rule:evenodd;stroke:none"
         id="path2828" />
      <path
         d="m 62.012701,99.203597 c -0.503848,-2.167125 -0.726359,-1.672986 -0.885442,-3.889421 2.720778,-4.820684 5.016482,-7.791171 0.812806,-8.277605 -0.92534,0.02363 -3.435883,-1.091011 -6.752583,-0.923045 2.662976,2.357692 3.435884,6.414053 2.749935,9.408681 -0.479807,2.095213 1.821524,5.118603 5.510611,5.031283 1.141714,-0.628717 -0.270083,-0.610739 -1.435327,-1.349893"
         style="fill:#000000;fill-opacity:1;fill-rule:evenodd;stroke:none"
         id="path2830" />
      <path
         d="m 74.153131,73.941364 c 0.921248,-2.333037 -1.959124,-6.3519 -8.918873,-7.048935 -9.972094,-0.370861 -10.108158,9.171371 -7.154639,9.595653 0,0 11.108693,4.597242 16.073512,-2.546718"
         style="fill:#ffffff;fill-opacity:1;fill-rule:evenodd;stroke:none"
         id="path2832" />
      <path
         d="m 68.129464,71.104942 c -0.06189,0.396031 1.65835,1.030912 2.62717,0.498249 0.969331,-0.532664 -0.534028,-1.200934 -1.047083,-1.281578 -0.513566,-0.08064 -1.517681,0.385757 -1.580087,0.783329 z m -1.638912,-0.391408 c 0.214839,-1.371468 1.875746,-2.250337 3.707501,-1.962175 1.832267,0.288676 3.145341,1.637029 2.92999,3.007984 -0.213304,1.371981 -1.874723,2.251878 -3.707501,1.963202 -1.831755,-0.289703 -3.144317,-1.637029 -2.92999,-3.009011 z m 1.513078,0.635396 c 0.111,-0.712958 1.009742,-1.164978 2.004649,-1.008825 0.994908,0.158206 1.712571,0.864487 1.600548,1.577958 -0.111511,0.713472 -1.009741,1.165491 -2.00516,1.008312 -0.994396,-0.156153 -1.711548,-0.86346 -1.600037,-1.577445"
         style="fill:#000000;fill-opacity:1;fill-rule:evenodd;stroke:none"
         id="path2834" />
      <path
         d="m 68.129464,71.104942 c -0.06189,0.396031 1.65835,1.030912 2.62717,0.498249 0.969331,-0.532664 -0.534028,-1.200934 -1.047083,-1.281578 -0.513566,-0.08064 -1.517681,0.385757 -1.580087,0.783329 z m -1.638912,-0.391408 c 0.214839,-1.371468 1.875746,-2.250337 3.707501,-1.962175 1.832267,0.288676 3.145341,1.637029 2.92999,3.007984 -0.213304,1.371981 -1.874723,2.251878 -3.707501,1.963202 -1.831755,-0.289703 -3.144317,-1.637029 -2.92999,-3.009011 z m 1.513078,0.635396 c 0.111,-0.712958 1.009742,-1.164978 2.004649,-1.008825 0.994908,0.158206 1.712571,0.864487 1.600548,1.577958 -0.111511,0.713472 -1.009741,1.165491 -2.00516,1.008312 -0.994396,-0.156153 -1.711548,-0.86346 -1.600037,-1.577445 z"
         style="fill:none;stroke:#000000;stroke-width:0.51258838;stroke-linecap:butt;stroke-linejoin:miter;stroke-miterlimit:10.43299961;stroke-opacity:1;stroke-dasharray:none"
         id="path2836" />
      <path
         d="m 74.16643,74.248531 c 1.099769,-3.220124 -1.804644,-6.513702 -8.363873,-7.547182 -9.805338,-1.514779 -11.212531,8.986967 -8.966444,10.047158 0,0 12.032498,6.208589 17.330317,-2.499976 z m -1.603105,-0.531122 c 0.828663,-2.095213 -1.75912,-5.704691 -8.011436,-6.331354 -8.957748,-0.333878 -9.080001,8.239081 -6.426744,8.619702 0,0 9.978232,4.130327 14.43818,-2.288348"
         style="fill:#000000;fill-opacity:1;fill-rule:evenodd;stroke:none"
         id="path2838" />
      <path
         d="m 74.16643,74.248531 c 1.099769,-3.220124 -1.804644,-6.513702 -8.363873,-7.547182 -9.805338,-1.514779 -11.212531,8.986967 -8.966444,10.047158 0,0 12.032498,6.208589 17.330317,-2.499976 z m -1.603105,-0.531122 c 0.828663,-2.095213 -1.75912,-5.704691 -8.011436,-6.331354 -8.957748,-0.333878 -9.080001,8.239081 -6.426744,8.619702 0,0 9.978232,4.130327 14.43818,-2.288348 z"
         style="fill:none;stroke:#000000;stroke-width:0.51258838;stroke-linecap:butt;stroke-linejoin:miter;stroke-miterlimit:10.43299961;stroke-opacity:1;stroke-dasharray:none"
         id="path2840" />
      <path
         d="m 46.038425,75.082199 c -1.077774,2.143496 -3.601105,1.957038 -4.392427,4.949098 -0.791323,2.993088 1.713082,7.806067 6.90962,9.409708 2.780114,-5.607608 13.402862,-2.152228 19.829607,-3.186223 6.426744,-1.03348 3.432814,-10.877743 3.432814,-10.877743 0,0 -7.921408,7.009382 -16.220829,-0.931777 -0.773931,2.562642 -9.558785,0.636937 -9.558785,0.636937 z m 1.572414,1.113098 c -2.535607,2.393648 -4.661998,1.64987 -5.051265,4.60957 -0.389779,2.960213 2.181635,5.341534 5.230809,6.840389 5.961772,-6.045759 13.165005,-1.73257 18.507838,-2.497407 5.342832,-0.764324 4.615961,-7.491708 4.615961,-7.491708 0,0 -14.988064,2.12295 -15.68987,-2.697734 -2.898276,1.713051 -6.208837,2.491243 -7.613473,1.23689"
         style="fill:#000000;fill-opacity:1;fill-rule:evenodd;stroke:none"
         id="path2842" />
      <path
         d="m 55.939417,78.996276 c 0.05473,0.274293 -0.340672,0.584543 -0.882884,0.693439 -0.542212,0.108382 -1.02611,-0.02568 -1.080332,-0.299977 -0.05473,-0.274293 0.340673,-0.584543 0.882885,-0.693439 0.542212,-0.108382 1.02611,0.02568 1.080331,0.299977"
         style="fill:#000000;fill-opacity:1;fill-rule:evenodd;stroke:none"
         id="path2844" />
      <path
         d="m 55.939417,78.996276 c 0.05473,0.274293 -0.340672,0.584543 -0.882884,0.693439 -0.542212,0.108382 -1.02611,-0.02568 -1.080332,-0.299977 -0.05473,-0.274293 0.340673,-0.584543 0.882885,-0.693439 0.542212,-0.108382 1.02611,0.02568 1.080331,0.299977"
         style="fill:none;stroke:#000000;stroke-width:0.51258838;stroke-linecap:butt;stroke-linejoin:miter;stroke-miterlimit:10.43299961;stroke-opacity:1;stroke-dasharray:none"
         id="path2846" />
      <path
         d="m 93.943862,77.378252 c 2.37499,5.047207 6.207818,14.292031 5.005229,15.028617 -3.05429,0.645669 -1.494152,-4.669668 -5.005229,-15.028617"
         style="fill:#ffffff;fill-opacity:1;fill-rule:evenodd;stroke:none"
         id="path2848" />
      <path
         d="m 93.943862,77.378252 c 2.37499,5.047207 6.207818,14.292031 5.005229,15.028617 -3.05429,0.645669 -1.494152,-4.669668 -5.005229,-15.028617 z"
         style="fill:none;stroke:#000000;stroke-width:0.51258838;stroke-linecap:butt;stroke-linejoin:miter;stroke-miterlimit:10.43299961;stroke-opacity:1;stroke-dasharray:none"
         id="path2850" />
      <path
         d="m 106.89556,70.37041 c 0,20.190884 -16.31955,36.57967 -36.426401,36.57967 -20.107362,0 -36.427938,-16.388786 -36.427938,-36.57967 0,-20.19037 16.320576,-36.579154 36.427938,-36.579154 20.106851,0 36.426401,16.388784 36.426401,36.579154 z m 20.12118,0.403736 c 0,31.202174 -25.22155,56.528624 -56.293355,56.528624 -31.072829,0 -56.293863,-25.32645 -56.293863,-56.528624 0,-31.202693 25.221034,-56.52862 56.293863,-56.52862 31.071805,0 56.293355,25.325927 56.293355,56.52862"
         style="fill:#ffffff;fill-opacity:1;fill-rule:evenodd;stroke:none"
         id="path2852" />
      <path
         d="m 106.89556,70.37041 c 0,20.190884 -16.31955,36.57967 -36.426401,36.57967 -20.107362,0 -36.427938,-16.388786 -36.427938,-36.57967 0,-20.19037 16.320576,-36.579154 36.427938,-36.579154 20.106851,0 36.426401,16.388784 36.426401,36.579154 z m 20.12118,0.403736 c 0,31.202174 -25.22155,56.528624 -56.293355,56.528624 -31.072829,0 -56.293863,-25.32645 -56.293863,-56.528624 0,-31.202693 25.221034,-56.52862 56.293863,-56.52862 31.071805,0 56.293355,25.325927 56.293355,56.52862 z"
         style="fill:none;stroke:#000000;stroke-width:0.51258838;stroke-linecap:butt;stroke-linejoin:miter;stroke-miterlimit:10.43299961;stroke-opacity:1;stroke-dasharray:none"
         id="path2854" />
      <g
         id="g2856"
         transform="matrix(0.5115206,0,0,-0.5136584,-70.705917,334.32302)">
        <text
           transform="matrix(-0.0199692,0.999799,0.999801,0.0199692,198.658,504.006)"
           id="text2858">
          <tspan
             style="font-size:30.28851318px;font-variant:normal;font-weight:bold;writing-mode:lr-tb;fill:#000000;fill-opacity:1;fill-rule:nonzero;stroke:none;font-family:Helvetica;-inkscape-font-specification:Helvetica-Bold"
             x="0"
             y="0"
             id="tspan2860">L</tspan>
        </text>
        <text
           transform="matrix(0.217365,0.976089,0.976091,-0.217364,198.201,521.821)"
           id="text2862">
          <tspan
             style="font-size:30.288517px;font-variant:normal;font-weight:bold;writing-mode:lr-tb;fill:#000000;fill-opacity:1;fill-rule:nonzero;stroke:none;font-family:Helvetica;-inkscape-font-specification:Helvetica-Bold"
             x="0"
             y="0"
             id="tspan2864">E</tspan>
        </text>
        <text
           transform="matrix(0.436649,0.899631,0.899632,-0.436648,202.422,540.475)"
           id="text2866">
          <tspan
             style="font-size:30.28850174px;font-variant:normal;font-weight:bold;writing-mode:lr-tb;fill:#000000;fill-opacity:1;fill-rule:nonzero;stroke:none;font-family:Helvetica;-inkscape-font-specification:Helvetica-Bold"
             x="0"
             y="0"
             id="tspan2868">S</tspan>
        </text>
        <text
           transform="matrix(0.827701,0.561168,0.561169,-0.827701,221.454,571.316)"
           id="text2870">
          <tspan
             style="font-size:30.28839302px;font-variant:normal;font-weight:bold;writing-mode:lr-tb;fill:#000000;fill-opacity:1;fill-rule:nonzero;stroke:none;font-family:Helvetica;-inkscape-font-specification:Helvetica-Bold"
             x="0"
             y="0"
             id="tspan2872">M</tspan>
        </text>
        <text
           transform="matrix(0.964143,0.265388,0.265388,-0.964142,244.863,586.603)"
           id="text2874">
          <tspan
             style="font-size:30.2884388px;font-variant:normal;font-weight:bold;writing-mode:lr-tb;fill:#000000;fill-opacity:1;fill-rule:nonzero;stroke:none;font-family:Helvetica;-inkscape-font-specification:Helvetica-Bold"
             x="0"
             y="0"
             id="tspan2876">O</tspan>
        </text>
        <text
           transform="matrix(0.999506,-0.0314532,-0.0314533,-0.999505,267.475,592.71)"
           id="text2878">
          <tspan
             style="font-size:30.28842354px;font-variant:normal;font-weight:bold;writing-mode:lr-tb;fill:#000000;fill-opacity:1;fill-rule:nonzero;stroke:none;font-family:Helvetica;-inkscape-font-specification:Helvetica-Bold"
             x="0"
             y="0"
             id="tspan2880">N</tspan>
        </text>
        <text
           transform="matrix(0.949891,-0.312585,-0.312585,-0.94989,290.011,592.066)"
           id="text2882">
          <tspan
             style="font-size:30.28843498px;font-variant:normal;font-weight:bold;writing-mode:lr-tb;fill:#000000;fill-opacity:1;fill-rule:nonzero;stroke:none;font-family:Helvetica;-inkscape-font-specification:Helvetica-Bold"
             x="0"
             y="0"
             id="tspan2884">G</tspan>
        </text>
        <text
           transform="matrix(0.820958,-0.57099,-0.57099,-0.820957,311.126,585.296)"
           id="text2886">
          <tspan
             style="font-size:30.28842545px;font-variant:normal;font-weight:bold;writing-mode:lr-tb;fill:#000000;fill-opacity:1;fill-rule:nonzero;stroke:none;font-family:Helvetica;-inkscape-font-specification:Helvetica-Bold"
             x="0"
             y="0"
             id="tspan2888">U</tspan>
        </text>
        <text
           transform="matrix(0.637143,-0.770747,-0.770747,-0.637142,330.554,571.382)"
           id="text2890">
          <tspan
             style="font-size:30.28843307px;font-variant:normal;font-weight:bold;writing-mode:lr-tb;fill:#000000;fill-opacity:1;fill-rule:nonzero;stroke:none;font-family:Helvetica;-inkscape-font-specification:Helvetica-Bold"
             x="0"
             y="0"
             id="tspan2892">E</tspan>
        </text>
        <text
           transform="matrix(0.403715,-0.914884,-0.914885,-0.403715,343.055,556.763)"
           id="text2894">
          <tspan
             style="font-size:30.28850555px;font-variant:normal;font-weight:bold;writing-mode:lr-tb;fill:#000000;fill-opacity:1;fill-rule:nonzero;stroke:none;font-family:Helvetica;-inkscape-font-specification:Helvetica-Bold"
             x="0"
             y="0"
             id="tspan2896">U</tspan>
        </text>
        <text
           transform="matrix(0.131493,-0.991316,-0.991317,-0.131493,352.474,534.776)"
           id="text2898">
          <tspan
             style="font-size:30.28849792px;font-variant:normal;font-weight:bold;writing-mode:lr-tb;fill:#000000;fill-opacity:1;fill-rule:nonzero;stroke:none;font-family:Helvetica;-inkscape-font-specification:Helvetica-Bold"
             x="0"
             y="0"
             id="tspan2900">R</tspan>
        </text>
        <text
           transform="matrix(-0.112718,-0.993626,-0.993627,0.112718,354.969,514.141)"
           id="text2902">
          <tspan
             style="font-size:30.28849983px;font-variant:normal;font-weight:bold;writing-mode:lr-tb;fill:#000000;fill-opacity:1;fill-rule:nonzero;stroke:none;font-family:Helvetica;-inkscape-font-specification:Helvetica-Bold"
             x="0"
             y="0"
             id="tspan2904">S</tspan>
        </text>
      </g>
      <path
         d="m 106.85566,91.750414 3.00723,0.01233 0.93916,-2.828716 0.95142,2.816389 3.02309,0.0026 -2.44149,1.811673 0.89209,2.817416 -2.40107,-1.718701 -2.45684,1.74798 0.9233,-2.846695 -2.43689,-1.814241"
         style="fill:#000000;fill-opacity:1;fill-rule:evenodd;stroke:none"
         id="path2906" />
      <path
         d="m 106.85566,91.750414 3.00723,0.01233 0.93916,-2.828716 0.95142,2.816389 3.02309,0.0026 -2.44149,1.811673 0.89209,2.817416 -2.40107,-1.718701 -2.45684,1.74798 0.9233,-2.846695 -2.43689,-1.814241 z"
         style="fill:none;stroke:#000000;stroke-width:0.51258838;stroke-linecap:butt;stroke-linejoin:miter;stroke-miterlimit:10.43299961;stroke-opacity:1;stroke-dasharray:none"
         id="path2908" />
      <path
         d="m 25.472229,89.423027 3.007741,0.01233 0.93864,-2.828203 0.950917,2.815875 3.023086,0.0036 -2.440976,1.81116 0.89158,2.817416 -2.400566,-1.720242 -2.456322,1.749007 0.922784,-2.846181 -2.436884,-1.814756"
         style="fill:#000000;fill-opacity:1;fill-rule:evenodd;stroke:none"
         id="path2910" />
      <path
         d="m 25.472229,89.423027 3.007741,0.01233 0.93864,-2.828203 0.950917,2.815875 3.023086,0.0036 -2.440976,1.81116 0.89158,2.817416 -2.400566,-1.720242 -2.456322,1.749007 0.922784,-2.846181 -2.436884,-1.814756 z"
         style="fill:none;stroke:#000000;stroke-width:0.51258838;stroke-linecap:butt;stroke-linejoin:miter;stroke-miterlimit:10.43299961;stroke-opacity:1;stroke-dasharray:none"
         id="path2912" />
      <g
         transform="matrix(0.05115206,0,0,-0.05136584,-70.705917,334.32302)"
         id="g2914">
        <g
           id="g2916"
           clip-path="url(#clipPath2918)">
          <path
             d="m 3261.84,5002.96 c -220.79,402.87 -451.5,444.51 -552.69,453.69 -144.84,13.13 -264.38,-55.49 -322.88,-98.88 -44.57,5.58 -44.13,-32.5 -68.68,-23.05 -136.75,87.21 -42.65,429.45 157.86,487.91 0.4,-0.13 164.04,-153.44 239.47,-152.34 111.27,1.59 299.5,51 447.34,-1.04 0,0 -77.41,-157.16 -12.64,-189.79 64.76,-32.63 276.77,-96.27 281.31,-267.95 -99.67,49.24 -296.79,13.63 -161.83,-214.26"
             style="fill:#000000;fill-opacity:1;fill-rule:evenodd;stroke:none"
             id="path2922" />
          <path
             d="m 3825.93,4955.98 c 0,634.15 -514.09,1148.24 -1148.24,1148.24 -634.15,0 -1148.24,-514.09 -1148.24,-1148.24 0,-634.15 514.09,-1148.24 1148.24,-1148.24 634.15,0 1148.24,514.09 1148.24,1148.24"
             style="fill:#000000;fill-opacity:1;fill-rule:evenodd;stroke:none"
             id="path2924" />
          <path
             d="m 3802.96,4955.98 c 0,621.47 -503.8,1125.27 -1125.27,1125.27 -621.47,0 -1125.28,-503.8 -1125.28,-1125.27 0,-621.47 503.81,-1125.28 1125.28,-1125.28 621.47,0 1125.27,503.81 1125.27,1125.28"
             style="fill:#0d0000;fill-opacity:1;fill-rule:evenodd;stroke:none"
             id="path2926" />
          <path
             d="m 3780,4955.98 c 0,608.79 -493.52,1102.31 -1102.31,1102.31 -608.79,0 -1102.31,-493.52 -1102.31,-1102.31 0,-608.79 493.52,-1102.31 1102.31,-1102.31 608.79,0 1102.31,493.52 1102.31,1102.31"
             style="fill:#1a0000;fill-opacity:1;fill-rule:evenodd;stroke:none"
             id="path2928" />
          <path
             d="m 3757.04,4955.98 c 0,596.11 -483.24,1079.34 -1079.35,1079.34 -596.1,0 -1079.35,-483.23 -1079.35,-1079.34 0,-596.1 483.25,-1079.35 1079.35,-1079.35 596.11,0 1079.35,483.25 1079.35,1079.35"
             style="fill:#280000;fill-opacity:1;fill-rule:evenodd;stroke:none"
             id="path2930" />
          <path
             d="m 3734.07,4955.98 c 0,583.42 -472.96,1056.38 -1056.38,1056.38 -583.42,0 -1056.38,-472.96 -1056.38,-1056.38 0,-583.42 472.96,-1056.38 1056.38,-1056.38 583.42,0 1056.38,472.96 1056.38,1056.38"
             style="fill:#350000;fill-opacity:1;fill-rule:evenodd;stroke:none"
             id="path2932" />
          <path
             d="m 3711.11,4955.98 c 0,570.74 -462.68,1033.41 -1033.42,1033.41 -570.74,0 -1033.42,-462.67 -1033.42,-1033.41 0,-570.74 462.68,-1033.42 1033.42,-1033.42 570.74,0 1033.42,462.68 1033.42,1033.42"
             style="fill:#430000;fill-opacity:1;fill-rule:evenodd;stroke:none"
             id="path2934" />
          <path
             d="m 3688.14,4955.98 c 0,558.06 -452.39,1010.45 -1010.45,1010.45 -558.05,0 -1010.45,-452.39 -1010.45,-1010.45 0,-558.05 452.4,-1010.45 1010.45,-1010.45 558.06,0 1010.45,452.4 1010.45,1010.45"
             style="fill:#500000;fill-opacity:1;fill-rule:evenodd;stroke:none"
             id="path2936" />
          <path
             d="m 3665.18,4955.98 c 0,545.37 -442.12,987.48 -987.49,987.48 -545.37,0 -987.49,-442.11 -987.49,-987.48 0,-545.37 442.12,-987.49 987.49,-987.49 545.37,0 987.49,442.12 987.49,987.49"
             style="fill:#5e0000;fill-opacity:1;fill-rule:evenodd;stroke:none"
             id="path2938" />
          <path
             d="m 3642.21,4955.98 c 0,532.69 -431.83,964.52 -964.52,964.52 -532.69,0 -964.52,-431.83 -964.52,-964.52 0,-532.69 431.83,-964.52 964.52,-964.52 532.69,0 964.52,431.83 964.52,964.52"
             style="fill:#6b0000;fill-opacity:1;fill-rule:evenodd;stroke:none"
             id="path2940" />
          <path
             d="m 3619.25,4955.98 c 0,520 -421.55,941.56 -941.56,941.56 -520,0 -941.56,-421.56 -941.56,-941.56 0,-520 421.56,-941.56 941.56,-941.56 520.01,0 941.56,421.56 941.56,941.56"
             style="fill:#790000;fill-opacity:1;fill-rule:evenodd;stroke:none"
             id="path2942" />
          <path
             d="m 3596.28,4955.98 c 0,507.32 -411.26,918.59 -918.59,918.59 -507.32,0 -918.59,-411.27 -918.59,-918.59 0,-507.32 411.27,-918.59 918.59,-918.59 507.33,0 918.59,411.27 918.59,918.59"
             style="fill:#860000;fill-opacity:1;fill-rule:evenodd;stroke:none"
             id="path2944" />
          <path
             d="m 3573.32,4955.98 c 0,494.64 -400.99,895.63 -895.63,895.63 -494.64,0 -895.63,-400.99 -895.63,-895.63 0,-494.64 400.99,-895.63 895.63,-895.63 494.64,0 895.63,400.99 895.63,895.63"
             style="fill:#940000;fill-opacity:1;fill-rule:evenodd;stroke:none"
             id="path2946" />
          <path
             d="m 3550.35,4955.98 c 0,481.96 -390.7,872.66 -872.66,872.66 -481.96,0 -872.66,-390.7 -872.66,-872.66 0,-481.96 390.7,-872.66 872.66,-872.66 481.96,0 872.66,390.7 872.66,872.66"
             style="fill:#a10000;fill-opacity:1;fill-rule:evenodd;stroke:none"
             id="path2948" />
          <path
             d="m 3527.39,4955.98 c 0,469.27 -380.43,849.7 -849.7,849.7 -469.27,0 -849.7,-380.43 -849.7,-849.7 0,-469.27 380.43,-849.7 849.7,-849.7 469.27,0 849.7,380.43 849.7,849.7"
             style="fill:#af0000;fill-opacity:1;fill-rule:evenodd;stroke:none"
             id="path2950" />
          <path
             d="m 3504.42,4955.98 c 0,456.59 -370.14,826.73 -826.73,826.73 -456.59,0 -826.73,-370.14 -826.73,-826.73 0,-456.59 370.14,-826.73 826.73,-826.73 456.59,0 826.73,370.14 826.73,826.73"
             style="fill:#b80000;fill-opacity:1;fill-rule:evenodd;stroke:none"
             id="path2952" />
          <path
             d="m 3481.46,4955.98 c 0,443.91 -359.86,803.77 -803.77,803.77 -443.9,0 -803.77,-359.86 -803.77,-803.77 0,-443.91 359.87,-803.77 803.77,-803.77 443.91,0 803.77,359.86 803.77,803.77"
             style="fill:#c00000;fill-opacity:1;fill-rule:evenodd;stroke:none"
             id="path2954" />
          <path
             d="m 3458.49,4955.98 c 0,431.22 -349.58,780.81 -780.8,780.81 -431.22,0 -780.8,-349.59 -780.8,-780.81 0,-431.22 349.58,-780.8 780.8,-780.8 431.22,0 780.8,349.58 780.8,780.8"
             style="fill:#c80000;fill-opacity:1;fill-rule:evenodd;stroke:none"
             id="path2956" />
          <path
             d="m 3435.53,4955.98 c 0,418.54 -339.3,757.84 -757.84,757.84 -418.54,0 -757.84,-339.3 -757.84,-757.84 0,-418.54 339.3,-757.84 757.84,-757.84 418.54,0 757.84,339.3 757.84,757.84"
             style="fill:#cc0909;fill-opacity:1;fill-rule:evenodd;stroke:none"
             id="path2958" />
          <path
             d="m 3412.56,4955.98 c 0,405.86 -329.01,734.88 -734.87,734.88 -405.86,0 -734.87,-329.02 -734.87,-734.88 0,-405.86 329.01,-734.87 734.87,-734.87 405.86,0 734.87,329.01 734.87,734.87"
             style="fill:#cf1414;fill-opacity:1;fill-rule:evenodd;stroke:none"
             id="path2960" />
          <path
             d="m 3389.6,4955.98 c 0,393.18 -318.73,711.91 -711.91,711.91 -393.17,0 -711.91,-318.73 -711.91,-711.91 0,-393.18 318.74,-711.91 711.91,-711.91 393.18,0 711.91,318.73 711.91,711.91"
             style="fill:#d01f1f;fill-opacity:1;fill-rule:evenodd;stroke:none"
             id="path2962" />
          <path
             d="m 3366.63,4955.98 c 0,380.49 -308.45,688.95 -688.94,688.95 -380.49,0 -688.94,-308.46 -688.94,-688.95 0,-380.49 308.45,-688.94 688.94,-688.94 380.49,0 688.94,308.45 688.94,688.94"
             style="fill:#d32a2a;fill-opacity:1;fill-rule:evenodd;stroke:none"
             id="path2964" />
          <path
             d="m 3343.67,4955.98 c 0,367.81 -298.17,665.98 -665.98,665.98 -367.81,0 -665.98,-298.17 -665.98,-665.98 0,-367.81 298.17,-665.98 665.98,-665.98 367.81,0 665.98,298.17 665.98,665.98"
             style="fill:#d63535;fill-opacity:1;fill-rule:evenodd;stroke:none"
             id="path2966" />
          <path
             d="m 3320.7,4955.98 c 0,355.13 -287.88,643.02 -643.01,643.02 -355.12,0 -643.01,-287.89 -643.01,-643.02 0,-355.12 287.89,-643.02 643.01,-643.02 355.13,0 643.01,287.9 643.01,643.02"
             style="fill:#d84040;fill-opacity:1;fill-rule:evenodd;stroke:none"
             id="path2968" />
          <path
             d="m 3297.74,4955.98 c 0,342.44 -277.61,620.05 -620.05,620.05 -342.44,0 -620.05,-277.61 -620.05,-620.05 0,-342.44 277.61,-620.05 620.05,-620.05 342.44,0 620.05,277.61 620.05,620.05"
             style="fill:#da4b4b;fill-opacity:1;fill-rule:evenodd;stroke:none"
             id="path2970" />
          <path
             d="m 3274.77,4955.98 c 0,329.76 -267.32,597.09 -597.08,597.09 -329.76,0 -597.08,-267.33 -597.08,-597.09 0,-329.76 267.32,-597.09 597.08,-597.09 329.76,0 597.08,267.33 597.08,597.09"
             style="fill:#dc5656;fill-opacity:1;fill-rule:evenodd;stroke:none"
             id="path2972" />
          <path
             d="m 3251.81,4955.98 c 0,317.07 -257.04,574.12 -574.12,574.12 -317.07,0 -574.12,-257.05 -574.12,-574.12 0,-317.07 257.05,-574.12 574.12,-574.12 317.08,0 574.12,257.05 574.12,574.12"
             style="fill:#df6060;fill-opacity:1;fill-rule:evenodd;stroke:none"
             id="path2974" />
          <path
             d="m 3228.84,4955.98 c 0,304.4 -246.75,551.16 -551.15,551.16 -304.39,0 -551.15,-246.76 -551.15,-551.16 0,-304.39 246.76,-551.16 551.15,-551.16 304.4,0 551.15,246.77 551.15,551.16"
             style="fill:#e16c6c;fill-opacity:1;fill-rule:evenodd;stroke:none"
             id="path2976" />
          <path
             d="m 3205.88,4955.98 c 0,291.71 -236.48,528.19 -528.19,528.19 -291.71,0 -528.19,-236.48 -528.19,-528.19 0,-291.71 236.48,-528.19 528.19,-528.19 291.71,0 528.19,236.48 528.19,528.19"
             style="fill:#e37777;fill-opacity:1;fill-rule:evenodd;stroke:none"
             id="path2978" />
          <path
             d="m 3182.91,4955.98 c 0,279.03 -226.19,505.23 -505.22,505.23 -279.03,0 -505.23,-226.2 -505.23,-505.23 0,-279.03 226.2,-505.23 505.23,-505.23 279.03,0 505.22,226.2 505.22,505.23"
             style="fill:#e68181;fill-opacity:1;fill-rule:evenodd;stroke:none"
             id="path2980" />
          <path
             d="m 3159.95,4955.98 c 0,266.34 -215.91,482.26 -482.26,482.26 -266.34,0 -482.26,-215.92 -482.26,-482.26 0,-266.34 215.92,-482.26 482.26,-482.26 266.35,0 482.26,215.92 482.26,482.26"
             style="fill:#e88c8c;fill-opacity:1;fill-rule:evenodd;stroke:none"
             id="path2982" />
          <path
             d="m 3136.98,4955.98 c 0,253.66 -205.63,459.3 -459.29,459.3 -253.66,0 -459.3,-205.64 -459.3,-459.3 0,-253.66 205.64,-459.3 459.3,-459.3 253.66,0 459.29,205.64 459.29,459.3"
             style="fill:#ea9898;fill-opacity:1;fill-rule:evenodd;stroke:none"
             id="path2984" />
          <path
             d="m 3114.02,4955.98 c 0,240.98 -195.35,436.33 -436.33,436.33 -240.98,0 -436.33,-195.35 -436.33,-436.33 0,-240.98 195.35,-436.33 436.33,-436.33 240.98,0 436.33,195.35 436.33,436.33"
             style="fill:#eca3a3;fill-opacity:1;fill-rule:evenodd;stroke:none"
             id="path2986" />
          <path
             d="m 3091.05,4955.98 c 0,228.29 -185.07,413.37 -413.36,413.37 -228.29,0 -413.37,-185.08 -413.37,-413.37 0,-228.29 185.08,-413.37 413.37,-413.37 228.29,0 413.36,185.08 413.36,413.37"
             style="fill:#efaeae;fill-opacity:1;fill-rule:evenodd;stroke:none"
             id="path2988" />
          <path
             d="m 3068.09,4955.98 c 0,215.61 -174.79,390.4 -390.4,390.4 -215.61,0 -390.4,-174.79 -390.4,-390.4 0,-215.61 174.79,-390.4 390.4,-390.4 215.61,0 390.4,174.79 390.4,390.4"
             style="fill:#f0b8b8;fill-opacity:1;fill-rule:evenodd;stroke:none"
             id="path2990" />
          <path
             d="m 3045.13,4955.98 c 0,202.93 -164.51,367.44 -367.44,367.44 -202.93,0 -367.44,-164.51 -367.44,-367.44 0,-202.93 164.51,-367.44 367.44,-367.44 202.93,0 367.44,164.51 367.44,367.44"
             style="fill:#f3c4c4;fill-opacity:1;fill-rule:evenodd;stroke:none"
             id="path2992" />
          <path
             d="m 3022.16,4955.98 c 0,190.25 -154.22,344.47 -344.47,344.47 -190.24,0 -344.47,-154.22 -344.47,-344.47 0,-190.25 154.23,-344.47 344.47,-344.47 190.25,0 344.47,154.22 344.47,344.47"
             style="fill:#f6cfcf;fill-opacity:1;fill-rule:evenodd;stroke:none"
             id="path2994" />
          <path
             d="m 2999.2,4955.98 c 0,177.56 -143.95,321.51 -321.51,321.51 -177.56,0 -321.51,-143.95 -321.51,-321.51 0,-177.56 143.95,-321.51 321.51,-321.51 177.56,0 321.51,143.95 321.51,321.51"
             style="fill:#f8d9d9;fill-opacity:1;fill-rule:evenodd;stroke:none"
             id="path2996" />
          <path
             d="m 2976.23,4955.98 c 0,164.88 -133.66,298.54 -298.54,298.54 -164.88,0 -298.54,-133.66 -298.54,-298.54 0,-164.88 133.66,-298.54 298.54,-298.54 164.88,0 298.54,133.66 298.54,298.54"
             style="fill:#fae4e4;fill-opacity:1;fill-rule:evenodd;stroke:none"
             id="path2998" />
          <path
             d="m 2953.27,4955.98 c 0,152.2 -123.38,275.58 -275.58,275.58 -152.19,0 -275.58,-123.38 -275.58,-275.58 0,-152.19 123.39,-275.58 275.58,-275.58 152.2,0 275.58,123.39 275.58,275.58"
             style="fill:#fcf0f0;fill-opacity:1;fill-rule:evenodd;stroke:none"
             id="path3000" />
          <path
             d="m 2930.3,4955.98 c 0,139.51 -113.1,252.61 -252.61,252.61 -139.51,0 -252.61,-113.1 -252.61,-252.61 0,-139.51 113.1,-252.61 252.61,-252.61 139.51,0 252.61,113.1 252.61,252.61"
             style="fill:#fffbfb;fill-opacity:1;fill-rule:evenodd;stroke:none"
             id="path3002" />
          <path
             d="m 2907.34,4955.98 c 0,126.83 -102.82,229.65 -229.65,229.65 -126.83,0 -229.65,-102.82 -229.65,-229.65 0,-126.83 102.82,-229.65 229.65,-229.65 126.83,0 229.65,102.82 229.65,229.65"
             style="fill:#ffffff;fill-opacity:1;fill-rule:evenodd;stroke:none"
             id="path3004" />
          <path
             d="m 2884.38,4955.98 c 0,114.14 -92.54,206.68 -206.69,206.68 -114.14,0 -206.68,-92.54 -206.68,-206.68 0,-114.14 92.54,-206.68 206.68,-206.68 114.15,0 206.69,92.54 206.69,206.68"
             style="fill:#ffffff;fill-opacity:1;fill-rule:evenodd;stroke:none"
             id="path3006" />
          <path
             d="m 2861.41,4955.98 c 0,101.47 -82.25,183.72 -183.72,183.72 -101.46,0 -183.72,-82.25 -183.72,-183.72 0,-101.46 82.26,-183.72 183.72,-183.72 101.47,0 183.72,82.26 183.72,183.72"
             style="fill:#ffffff;fill-opacity:1;fill-rule:evenodd;stroke:none"
             id="path3008" />
          <path
             d="m 2838.45,4955.98 c 0,88.78 -71.98,160.75 -160.76,160.75 -88.78,0 -160.75,-71.97 -160.75,-160.75 0,-88.78 71.97,-160.75 160.75,-160.75 88.78,0 160.76,71.97 160.76,160.75"
             style="fill:#ffffff;fill-opacity:1;fill-rule:evenodd;stroke:none"
             id="path3010" />
          <path
             d="m 2815.48,4955.98 c 0,76.1 -61.69,137.79 -137.79,137.79 -76.1,0 -137.79,-61.69 -137.79,-137.79 0,-76.1 61.69,-137.79 137.79,-137.79 76.1,0 137.79,61.69 137.79,137.79"
             style="fill:#ffffff;fill-opacity:1;fill-rule:evenodd;stroke:none"
             id="path3012" />
          <path
             d="m 2792.52,4955.98 c 0,63.41 -51.41,114.82 -114.83,114.82 -63.41,0 -114.82,-51.41 -114.82,-114.82 0,-63.41 51.41,-114.82 114.82,-114.82 63.42,0 114.83,51.41 114.83,114.82"
             style="fill:#ffffff;fill-opacity:1;fill-rule:evenodd;stroke:none"
             id="path3014" />
          <path
             d="m 2769.55,4955.98 c 0,50.73 -41.13,91.86 -91.86,91.86 -50.73,0 -91.86,-41.13 -91.86,-91.86 0,-50.73 41.13,-91.86 91.86,-91.86 50.73,0 91.86,41.13 91.86,91.86"
             style="fill:#ffffff;fill-opacity:1;fill-rule:evenodd;stroke:none"
             id="path3016" />
          <path
             d="m 2746.59,4955.98 c 0,38.05 -30.85,68.9 -68.9,68.9 -38.05,0 -68.89,-30.85 -68.89,-68.9 0,-38.05 30.84,-68.89 68.89,-68.89 38.05,0 68.9,30.84 68.9,68.89"
             style="fill:#ffffff;fill-opacity:1;fill-rule:evenodd;stroke:none"
             id="path3018" />
          <path
             d="m 2723.62,4955.98 c 0,25.36 -20.57,45.93 -45.93,45.93 -25.36,0 -45.93,-20.57 -45.93,-45.93 0,-25.36 20.57,-45.93 45.93,-45.93 25.36,0 45.93,20.57 45.93,45.93"
             style="fill:#ffffff;fill-opacity:1;fill-rule:evenodd;stroke:none"
             id="path3020" />
        </g>
      </g>
      <path
         d="m 48.012894,60.184051 c -6.573551,-3.810832 -2.507985,-20.736389 7.806828,-23.756701 0.01995,0.0067 8.098905,7.443938 11.948097,7.388463 5.676344,-0.08167 14.636139,-2.358206 22.179021,0.307681 0,0 -3.966331,7.55797 -0.661396,9.230441 3.304934,1.671958 14.270406,3.67574 14.502116,12.470599 -5.085534,-2.522063 -14.677056,0.298949 -7.255916,11.86294 C 90.3136,64.756124 100.63967,65.089489 105.97585,67.985495 105.96664,55.023325 94.124429,54.34581 90.657342,52.4237 c -3.467598,-1.921596 2.04864,-9.730745 2.04864,-9.730745 -9.423232,-3.980852 -18.220363,-0.166425 -24.239426,0.05188 -4.080399,0.148961 -12.037102,-9.061448 -12.05654,-9.087131 -14.110806,3.078869 -16.98146,24.82922 -8.733702,27.048224"
         style="fill:#000000;fill-opacity:1;fill-rule:evenodd;stroke:none"
         id="path3022" />
      <path
         d="m 52.153654,41.699026 c -4.898322,4.7498 -7.812454,15.743116 -3.884488,16.283999 3.927967,0.540882 -2.364759,-5.428342 3.884488,-16.283999"
         style="fill:#000000;fill-opacity:1;fill-rule:evenodd;stroke:none"
         id="path3024" />
      <path
         d="m 52.153654,41.699026 c -4.898322,4.7498 -7.812454,15.743116 -3.884488,16.283999 3.927967,0.540882 -2.364759,-5.428342 3.884488,-16.283999 z"
         style="fill:none;stroke:#000000;stroke-width:0.51258838;stroke-linecap:butt;stroke-linejoin:miter;stroke-miterlimit:10.43299961;stroke-opacity:1;stroke-dasharray:none"
         id="path3026" />
      <path
         d="m 86.021943,44.766081 c -7.960284,-0.232688 -17.138497,1.153676 -14.846885,2.445014 2.291612,1.29185 1.811294,-0.633855 14.846885,-2.445014"
         style="fill:#000000;fill-opacity:1;fill-rule:evenodd;stroke:none"
         id="path3028" />
      <path
         d="m 86.021943,44.766081 c -7.960284,-0.232688 -17.138497,1.153676 -14.846885,2.445014 2.291612,1.29185 1.811294,-0.633855 14.846885,-2.445014 z"
         style="fill:none;stroke:#000000;stroke-width:0.51258838;stroke-linecap:butt;stroke-linejoin:miter;stroke-miterlimit:10.43299961;stroke-opacity:1;stroke-dasharray:none"
         id="path3030" />
      <g
         id="g3032"
         transform="matrix(0.5115206,0,0,-0.5136584,-70.705917,334.32302)">
        <text
           transform="matrix(0.76237,-0.647141,-0.647141,-0.76237,204.608,442.072)"
           id="text3034">
          <tspan
             style="font-size:28.1553936px;font-variant:normal;font-weight:bold;writing-mode:lr-tb;fill:#000000;fill-opacity:1;fill-rule:nonzero;stroke:none;font-family:Helvetica;-inkscape-font-specification:Helvetica-Bold"
             x="0"
             y="0"
             id="tspan3036">D</tspan>
        </text>
        <text
           transform="matrix(0.90349,-0.42861,-0.42861,-0.90349,226.464,424.858)"
           id="text3038">
          <tspan
             style="font-size:28.15550995px;font-variant:normal;font-weight:bold;writing-mode:lr-tb;fill:#000000;fill-opacity:1;fill-rule:nonzero;stroke:none;font-family:Helvetica;-inkscape-font-specification:Helvetica-Bold"
             x="0"
             y="0"
             id="tspan3040">E</tspan>
        </text>
        <text
           transform="matrix(0.999719,-0.0237127,-0.0237127,-0.999719,265.56,411.811)"
           id="text3042">
          <tspan
             style="font-size:28.15550613px;font-variant:normal;font-weight:bold;writing-mode:lr-tb;fill:#000000;fill-opacity:1;fill-rule:nonzero;stroke:none;font-family:Helvetica;-inkscape-font-specification:Helvetica-Bold"
             x="0"
             y="0"
             id="tspan3044">P</tspan>
        </text>
        <text
           transform="matrix(0.976086,0.217385,0.217385,-0.976086,289.803,412.077)"
           id="text3046">
          <tspan
             style="font-size:28.15540123px;font-variant:normal;font-weight:bold;writing-mode:lr-tb;fill:#000000;fill-opacity:1;fill-rule:nonzero;stroke:none;font-family:Helvetica;-inkscape-font-specification:Helvetica-Bold"
             x="0"
             y="0"
             id="tspan3048">E</tspan>
        </text>
        <text
           transform="matrix(0.888837,0.458223,0.458223,-0.888837,312.766,417.877)"
           id="text3050">
          <tspan
             style="font-size:28.1553936px;font-variant:normal;font-weight:bold;writing-mode:lr-tb;fill:#000000;fill-opacity:1;fill-rule:nonzero;stroke:none;font-family:Helvetica;-inkscape-font-specification:Helvetica-Bold"
             x="0"
             y="0"
             id="tspan3052">R</tspan>
        </text>
        <text
           transform="matrix(0.755466,0.655187,0.655187,-0.755466,334.773,430.149)"
           id="text3054">
          <tspan
             style="font-size:28.15548515px;font-variant:normal;font-weight:bold;writing-mode:lr-tb;fill:#000000;fill-opacity:1;fill-rule:nonzero;stroke:none;font-family:Helvetica;-inkscape-font-specification:Helvetica-Bold"
             x="0"
             y="0"
             id="tspan3056">L</tspan>
        </text>
      </g>
    </g>
  </g>
</svg>
