<?xml version="1.0" encoding="UTF-8" standalone="no"?>
<!-- Created with Inkscape (http://www.inkscape.org/) -->

<svg
   xmlns:dc="http://purl.org/dc/elements/1.1/"
   xmlns:cc="http://creativecommons.org/ns#"
   xmlns:rdf="http://www.w3.org/1999/02/22-rdf-syntax-ns#"
   xmlns:svg="http://www.w3.org/2000/svg"
   xmlns="http://www.w3.org/2000/svg"
   xmlns:xlink="http://www.w3.org/1999/xlink"
   xmlns:sodipodi="http://sodipodi.sourceforge.net/DTD/sodipodi-0.dtd"
   xmlns:inkscape="http://www.inkscape.org/namespaces/inkscape"
   width="180"
   height="166"
   id="svg2"
   sodipodi:version="0.32"
   inkscape:version="0.47 r22583"
   sodipodi:docname="logo_lug (copie).svg"
   inkscape:export-filename="/home/fred/download/logo-lug-web.png"
   inkscape:export-xdpi="90.000000"
   inkscape:export-ydpi="90.000000"
   version="1.1"
   style="display:inline">
  <defs
     id="defs3">
    <inkscape:perspective
       sodipodi:type="inkscape:persp3d"
       inkscape:vp_x="0 : 83 : 1"
       inkscape:vp_y="0 : 1000 : 0"
       inkscape:vp_z="180 : 83 : 1"
       inkscape:persp3d-origin="90 : 55.333333 : 1"
       id="perspective136" />
    <linearGradient
       id="linearGradient27827"
       inkscape:collect="always">
      <stop
         id="stop27829"
         offset="0"
         style="stop-color:#ffffff;stop-opacity:1;" />
      <stop
         id="stop27831"
         offset="1"
         style="stop-color:#ffffff;stop-opacity:0;" />
    </linearGradient>
    <linearGradient
       id="linearGradient25537"
       inkscape:collect="always">
      <stop
         id="stop25539"
         offset="0"
         style="stop-color:#ffffff;stop-opacity:1;" />
      <stop
         id="stop25541"
         offset="1"
         style="stop-color:#ffffff;stop-opacity:0;" />
    </linearGradient>
    <linearGradient
       id="linearGradient24767">
      <stop
         id="stop24769"
         offset="0.0000000"
         style="stop-color:#ffffff;stop-opacity:1.0000000;" />
      <stop
         id="stop24771"
         offset="1.0000000"
         style="stop-color:#ffffff;stop-opacity:0.16470589;" />
    </linearGradient>
    <linearGradient
       id="linearGradient23989">
      <stop
         id="stop23991"
         offset="0"
         style="stop-color:#00023b;stop-opacity:1;" />
      <stop
         id="stop23993"
         offset="1.0000000"
         style="stop-color:#00023b;stop-opacity:0.16438356;" />
    </linearGradient>
    <linearGradient
       id="linearGradient20941">
      <stop
         id="stop20943"
         offset="0.0000000"
         style="stop-color:#1e1e1e;stop-opacity:1.0000000;" />
      <stop
         id="stop20945"
         offset="1.0000000"
         style="stop-color:#515151;stop-opacity:0.0000000;" />
    </linearGradient>
    <linearGradient
       id="linearGradient20163"
       inkscape:collect="always">
      <stop
         id="stop20165"
         offset="0"
         style="stop-color:#ff9f00;stop-opacity:1;" />
      <stop
         id="stop20167"
         offset="1"
         style="stop-color:#ff9f00;stop-opacity:0;" />
    </linearGradient>
    <linearGradient
       id="linearGradient18599">
      <stop
         id="stop18601"
         offset="0"
         style="stop-color:#ffb300;stop-opacity:1;" />
      <stop
         id="stop18603"
         offset="1.0000000"
         style="stop-color:#ff8700;stop-opacity:1.0000000;" />
    </linearGradient>
    <linearGradient
       id="linearGradient10964"
       inkscape:collect="always">
      <stop
         id="stop10966"
         offset="0"
         style="stop-color:#00023b;stop-opacity:1;" />
      <stop
         id="stop10968"
         offset="1"
         style="stop-color:#00023b;stop-opacity:0;" />
    </linearGradient>
    <linearGradient
       id="linearGradient3156">
      <stop
         id="stop3158"
         offset="0.0000000"
         style="stop-color:#fff900;stop-opacity:1.0000000;" />
      <stop
         id="stop3160"
         offset="1.0000000"
         style="stop-color:#ffe600;stop-opacity:0.0000000;" />
    </linearGradient>
    <linearGradient
       id="linearGradient7871">
      <stop
         style="stop-color:#ffffff;stop-opacity:1.0000000;"
         offset="0.0000000"
         id="stop7873" />
      <stop
         style="stop-color:#ffffff;stop-opacity:0.0000000;"
         offset="1.0000000"
         id="stop7875" />
    </linearGradient>
    <linearGradient
       inkscape:collect="always"
       id="linearGradient7061">
      <stop
         style="stop-color:#000330;stop-opacity:1;"
         offset="0"
         id="stop7063" />
      <stop
         style="stop-color:#000330;stop-opacity:0;"
         offset="1"
         id="stop7065" />
    </linearGradient>
    <linearGradient
       id="linearGradient6175">
      <stop
         style="stop-color:#ffab00;stop-opacity:1;"
         offset="0"
         id="stop6177" />
      <stop
         style="stop-color:#ffdf00;stop-opacity:1.0000000;"
         offset="1.0000000"
         id="stop6179" />
    </linearGradient>
    <linearGradient
       id="linearGradient4593">
      <stop
         style="stop-color:#000000;stop-opacity:1;"
         offset="0"
         id="stop4595" />
      <stop
         style="stop-color:#535353;stop-opacity:1.0000000;"
         offset="1.0000000"
         id="stop4597" />
    </linearGradient>
    <linearGradient
       id="linearGradient4572">
      <stop
         style="stop-color:#00142f;stop-opacity:1.0000000;"
         offset="0.0000000"
         id="stop4574" />
      <stop
         style="stop-color:#ffffff;stop-opacity:1.0000000;"
         offset="1.0000000"
         id="stop4576" />
    </linearGradient>
    <radialGradient
       inkscape:collect="always"
       xlink:href="#linearGradient7061"
       id="radialGradient7067"
       gradientTransform="scale(1.414211,0.707108)"
       cx="129.85878"
       cy="1096.8752"
       fx="129.85878"
       fy="1096.8752"
       r="91.649338"
       gradientUnits="userSpaceOnUse" />
    <linearGradient
       inkscape:collect="always"
       xlink:href="#linearGradient4572"
       id="linearGradient8376"
       gradientUnits="userSpaceOnUse"
       gradientTransform="matrix(1.062852,0,0,0.672336,125.3635,-73.15438)"
       x1="333.50943"
       y1="517.9408"
       x2="297.82065"
       y2="882.63599" />
    <radialGradient
       inkscape:collect="always"
       xlink:href="#linearGradient7061"
       id="radialGradient8378"
       gradientUnits="userSpaceOnUse"
       gradientTransform="scale(1.414211,0.707108)"
       cx="129.85878"
       cy="1096.8752"
       fx="129.85878"
       fy="1096.8752"
       r="91.649338" />
    <radialGradient
       inkscape:collect="always"
       xlink:href="#linearGradient6175"
       id="radialGradient8380"
       gradientUnits="userSpaceOnUse"
       gradientTransform="matrix(0.807898,0,0,0.884509,134.5212,-75.77086)"
       cx="476.51505"
       cy="670.68121"
       fx="476.51505"
       fy="670.68121"
       r="156.58182" />
    <radialGradient
       inkscape:collect="always"
       xlink:href="#linearGradient6175"
       id="radialGradient8382"
       gradientUnits="userSpaceOnUse"
       gradientTransform="matrix(1.030548,0,0,0.693411,134.5213,-75.77085)"
       cx="277.2106"
       cy="543.38867"
       fx="277.2106"
       fy="543.38867"
       r="93.796837" />
    <radialGradient
       inkscape:collect="always"
       xlink:href="#linearGradient6175"
       id="radialGradient8384"
       gradientUnits="userSpaceOnUse"
       gradientTransform="matrix(0.851933,0,0,0.83879,134.5213,-75.77085)"
       cx="105.32426"
       cy="700.34631"
       fx="105.32426"
       fy="700.34631"
       r="161.88173" />
    <linearGradient
       inkscape:collect="always"
       xlink:href="#linearGradient4593"
       id="linearGradient8386"
       gradientUnits="userSpaceOnUse"
       gradientTransform="matrix(0.765397,0,0,0.933624,134.5212,-75.77086)"
       x1="308.85391"
       y1="382.81732"
       x2="305.34729"
       y2="1047.8052" />
    <radialGradient
       inkscape:collect="always"
       xlink:href="#linearGradient7871"
       id="radialGradient8388"
       gradientUnits="userSpaceOnUse"
       gradientTransform="scale(1.414211,0.707108)"
       cx="290.7757"
       cy="309.74118"
       fx="290.7757"
       fy="309.74118"
       r="48.790077" />
    <linearGradient
       y2="1047.8052"
       x2="305.34729"
       y1="382.81732"
       x1="308.85391"
       gradientTransform="matrix(0.498136,0,0,0.607622,34.49119,-83.60651)"
       gradientUnits="userSpaceOnUse"
       id="linearGradient1472"
       xlink:href="#linearGradient4593"
       inkscape:collect="always" />
    <radialGradient
       r="161.88173"
       fy="700.34631"
       fx="105.32426"
       cy="700.34631"
       cx="105.32426"
       gradientTransform="matrix(0.554456,0,0,0.545902,34.49126,-83.6065)"
       gradientUnits="userSpaceOnUse"
       id="radialGradient1475"
       xlink:href="#linearGradient6175"
       inkscape:collect="always" />
    <radialGradient
       r="93.796837"
       fy="543.38867"
       fx="277.2106"
       cy="543.38867"
       cx="277.2106"
       gradientTransform="matrix(0.670702,0,0,0.451286,34.49126,-83.6065)"
       gradientUnits="userSpaceOnUse"
       id="radialGradient1478"
       xlink:href="#linearGradient6175"
       inkscape:collect="always" />
    <radialGradient
       r="156.58182"
       fy="670.68121"
       fx="476.51505"
       cy="670.68121"
       cx="476.51505"
       gradientTransform="matrix(0.525797,0,0,0.575657,34.49119,-83.60651)"
       gradientUnits="userSpaceOnUse"
       id="radialGradient1481"
       xlink:href="#linearGradient6175"
       inkscape:collect="always" />
    <linearGradient
       y2="882.63599"
       x2="297.82065"
       y1="517.9408"
       x1="333.50943"
       gradientTransform="matrix(0.691726,0,0,0.43757,28.53117,-81.90365)"
       gradientUnits="userSpaceOnUse"
       id="linearGradient1486"
       xlink:href="#linearGradient4572"
       inkscape:collect="always" />
    <radialGradient
       gradientUnits="userSpaceOnUse"
       r="43.38166"
       fy="475.88367"
       fx="89.850403"
       cy="475.88367"
       cx="89.850403"
       gradientTransform="scale(2.011332,0.497183)"
       id="radialGradient10970"
       xlink:href="#linearGradient10964"
       inkscape:collect="always" />
    <radialGradient
       gradientUnits="userSpaceOnUse"
       r="44.326504"
       fy="139.75642"
       fx="123.20068"
       cy="139.75642"
       cx="123.20068"
       gradientTransform="matrix(1.462928,0,0,0.642969,11.44803,-1.610659)"
       id="radialGradient17069"
       xlink:href="#linearGradient7871"
       inkscape:collect="always" />
    <linearGradient
       gradientUnits="userSpaceOnUse"
       y2="276.48218"
       x2="274.69266"
       y1="254.30219"
       x1="296.46094"
       gradientTransform="scale(0.955712,1.04634)"
       id="linearGradient18635"
       xlink:href="#linearGradient7871"
       inkscape:collect="always" />
    <linearGradient
       gradientUnits="userSpaceOnUse"
       y2="259.03256"
       x2="131.65039"
       y1="240.65485"
       x1="92.768585"
       gradientTransform="scale(1.007843,0.992218)"
       id="linearGradient19399"
       xlink:href="#linearGradient7871"
       inkscape:collect="always" />
    <radialGradient
       gradientUnits="userSpaceOnUse"
       r="32.551704"
       fy="136.97083"
       fx="216.58984"
       cy="136.97083"
       cx="216.58984"
       gradientTransform="scale(0.981682,1.018659)"
       id="radialGradient20169"
       xlink:href="#linearGradient20163"
       inkscape:collect="always" />
    <linearGradient
       gradientUnits="userSpaceOnUse"
       y2="179.61415"
       x2="229.75459"
       y1="131.2572"
       x1="262.31287"
       gradientTransform="scale(0.66507,1.503601)"
       id="linearGradient25549"
       xlink:href="#linearGradient25537"
       inkscape:collect="always" />
    <radialGradient
       gradientUnits="userSpaceOnUse"
       r="21.267452"
       fy="257.96262"
       fx="225.81183"
       cy="257.96262"
       cx="225.81183"
       gradientTransform="scale(1.107983,0.902541)"
       id="radialGradient27835"
       xlink:href="#linearGradient27827"
       inkscape:collect="always" />
    <radialGradient
       r="93.796837"
       fy="543.38867"
       fx="277.2106"
       cy="543.38867"
       cx="277.2106"
       gradientTransform="matrix(0.670702,0,0,0.451286,-50.09505,-85.27436)"
       gradientUnits="userSpaceOnUse"
       id="radialGradient28597"
       xlink:href="#linearGradient6175"
       inkscape:collect="always" />
    <radialGradient
       r="45.588455"
       fy="168.25348"
       fx="143.74304"
       cy="168.25348"
       cx="143.74304"
       gradientTransform="scale(1.219099,0.820278)"
       gradientUnits="userSpaceOnUse"
       id="radialGradient30125"
       xlink:href="#linearGradient7871"
       inkscape:collect="always" />
    <linearGradient
       y2="41.21117"
       x2="208.21626"
       y1="339.66153"
       x1="241.84909"
       gradientTransform="scale(1.000313,0.999688)"
       gradientUnits="userSpaceOnUse"
       id="linearGradient2298"
       xlink:href="#linearGradient23989"
       inkscape:collect="always" />
    <radialGradient
       inkscape:collect="always"
       xlink:href="#linearGradient27827"
       id="radialGradient3258"
       gradientUnits="userSpaceOnUse"
       gradientTransform="matrix(0.4073,0,0,0.331779,19.02326,-11.51571)"
       cx="225.81183"
       cy="257.96262"
       fx="225.81183"
       fy="257.96262"
       r="21.267452" />
    <linearGradient
       inkscape:collect="always"
       xlink:href="#linearGradient25537"
       id="linearGradient3261"
       gradientUnits="userSpaceOnUse"
       gradientTransform="matrix(0.244483,0,0,0.552731,19.02326,-11.51571)"
       x1="262.31287"
       y1="131.2572"
       x2="229.75459"
       y2="179.61415" />
    <radialGradient
       inkscape:collect="always"
       xlink:href="#linearGradient7871"
       id="radialGradient3264"
       gradientUnits="userSpaceOnUse"
       gradientTransform="matrix(0.53778,0,0,0.236359,23.23161,-12.1078)"
       cx="123.20068"
       cy="139.75642"
       fx="123.20068"
       fy="139.75642"
       r="44.326504" />
    <linearGradient
       inkscape:collect="always"
       xlink:href="#linearGradient4593"
       id="linearGradient3280"
       gradientUnits="userSpaceOnUse"
       gradientTransform="matrix(0.183117,0,0,0.223365,31.70239,-42.24988)"
       x1="308.85391"
       y1="382.81732"
       x2="305.34729"
       y2="1047.8052" />
    <radialGradient
       inkscape:collect="always"
       xlink:href="#linearGradient7871"
       id="radialGradient3283"
       gradientUnits="userSpaceOnUse"
       gradientTransform="matrix(0.448147,0,0,0.301538,19.02326,-11.51571)"
       cx="143.74304"
       cy="168.25348"
       fx="143.74304"
       fy="168.25348"
       r="45.588455" />
    <radialGradient
       inkscape:collect="always"
       xlink:href="#linearGradient20163"
       id="radialGradient3287"
       gradientUnits="userSpaceOnUse"
       gradientTransform="matrix(0.360871,0,0,0.374464,19.02326,-11.51571)"
       cx="216.58984"
       cy="136.97083"
       fx="216.58984"
       fy="136.97083"
       r="32.551704" />
    <linearGradient
       inkscape:collect="always"
       xlink:href="#linearGradient7871"
       id="linearGradient3290"
       gradientUnits="userSpaceOnUse"
       gradientTransform="matrix(0.370488,0,0,0.364744,19.02326,-11.51571)"
       x1="92.768585"
       y1="240.65485"
       x2="131.65039"
       y2="259.03256" />
    <linearGradient
       inkscape:collect="always"
       xlink:href="#linearGradient7871"
       id="linearGradient3293"
       gradientUnits="userSpaceOnUse"
       gradientTransform="matrix(0.351325,0,0,0.38464,19.02326,-11.51571)"
       x1="296.46094"
       y1="254.30219"
       x2="274.69266"
       y2="276.48218" />
    <radialGradient
       inkscape:collect="always"
       xlink:href="#linearGradient6175"
       id="radialGradient3300"
       gradientUnits="userSpaceOnUse"
       gradientTransform="matrix(0.203821,0,0,0.200676,31.70242,-42.24988)"
       cx="105.32426"
       cy="700.34631"
       fx="105.32426"
       fy="700.34631"
       r="161.88173" />
    <radialGradient
       inkscape:collect="always"
       xlink:href="#linearGradient6175"
       id="radialGradient3303"
       gradientUnits="userSpaceOnUse"
       gradientTransform="matrix(0.246553,0,0,0.165895,31.70242,-42.24988)"
       cx="277.2106"
       cy="543.38867"
       fx="277.2106"
       fy="543.38867"
       r="93.796837" />
    <radialGradient
       inkscape:collect="always"
       xlink:href="#linearGradient6175"
       id="radialGradient3306"
       gradientUnits="userSpaceOnUse"
       gradientTransform="matrix(0.193286,0,0,0.211614,31.70239,-42.24988)"
       cx="476.51505"
       cy="670.68121"
       fx="476.51505"
       fy="670.68121"
       r="156.58182" />
    <linearGradient
       inkscape:collect="always"
       xlink:href="#linearGradient4572"
       id="linearGradient3324"
       gradientUnits="userSpaceOnUse"
       gradientTransform="matrix(0.254282,0,0,0.160853,29.51146,-41.6239)"
       x1="333.50943"
       y1="517.9408"
       x2="297.82065"
       y2="882.63599" />
    <linearGradient
       inkscape:collect="always"
       xlink:href="#linearGradient20941"
       id="linearGradient4208"
       gradientTransform="matrix(1.24743,0,-0.191729,0.801648,0,0)"
       x1="96.67012"
       y1="162.52162"
       x2="97.220276"
       y2="62.559883"
       gradientUnits="userSpaceOnUse" />
    <radialGradient
       inkscape:collect="always"
       xlink:href="#linearGradient27827"
       id="radialGradient3732"
       gradientUnits="userSpaceOnUse"
       gradientTransform="matrix(0.4073,0,0,0.331779,19.02326,-11.51571)"
       cx="225.81183"
       cy="257.96262"
       fx="225.81183"
       fy="257.96262"
       r="21.267452" />
    <linearGradient
       inkscape:collect="always"
       xlink:href="#linearGradient25537"
       id="linearGradient3735"
       gradientUnits="userSpaceOnUse"
       gradientTransform="matrix(0.244483,0,0,0.552731,19.02326,-11.51571)"
       x1="262.31287"
       y1="131.2572"
       x2="229.75459"
       y2="179.61415" />
    <radialGradient
       inkscape:collect="always"
       xlink:href="#linearGradient7871"
       id="radialGradient3738"
       gradientUnits="userSpaceOnUse"
       gradientTransform="matrix(0.53778,0,0,0.236359,23.23161,-12.1078)"
       cx="123.20068"
       cy="139.75642"
       fx="123.20068"
       fy="139.75642"
       r="44.326504" />
    <linearGradient
       inkscape:collect="always"
       xlink:href="#linearGradient4593"
       id="linearGradient3742"
       gradientUnits="userSpaceOnUse"
       gradientTransform="matrix(0.183117,0,0,0.223365,31.70239,-42.24988)"
       x1="308.85391"
       y1="382.81732"
       x2="305.34729"
       y2="1047.8052" />
    <radialGradient
       inkscape:collect="always"
       xlink:href="#linearGradient7871"
       id="radialGradient3745"
       gradientUnits="userSpaceOnUse"
       gradientTransform="matrix(0.448147,0,0,0.301538,19.02326,-11.51571)"
       cx="143.74304"
       cy="168.25348"
       fx="143.74304"
       fy="168.25348"
       r="45.588455" />
    <radialGradient
       inkscape:collect="always"
       xlink:href="#linearGradient20163"
       id="radialGradient3749"
       gradientUnits="userSpaceOnUse"
       gradientTransform="matrix(0.360871,0,0,0.374464,19.02326,-11.51571)"
       cx="216.58984"
       cy="136.97083"
       fx="216.58984"
       fy="136.97083"
       r="32.551704" />
    <linearGradient
       inkscape:collect="always"
       xlink:href="#linearGradient7871"
       id="linearGradient3752"
       gradientUnits="userSpaceOnUse"
       gradientTransform="matrix(0.370488,0,0,0.364744,19.02326,-11.51571)"
       x1="92.768585"
       y1="240.65485"
       x2="131.65039"
       y2="259.03256" />
    <linearGradient
       inkscape:collect="always"
       xlink:href="#linearGradient7871"
       id="linearGradient3755"
       gradientUnits="userSpaceOnUse"
       gradientTransform="matrix(0.351325,0,0,0.38464,19.02326,-11.51571)"
       x1="296.46094"
       y1="254.30219"
       x2="274.69266"
       y2="276.48218" />
    <radialGradient
       inkscape:collect="always"
       xlink:href="#linearGradient6175"
       id="radialGradient3762"
       gradientUnits="userSpaceOnUse"
       gradientTransform="matrix(0.203821,0,0,0.200676,31.70242,-42.24988)"
       cx="105.32426"
       cy="700.34631"
       fx="105.32426"
       fy="700.34631"
       r="161.88173" />
    <radialGradient
       inkscape:collect="always"
       xlink:href="#linearGradient6175"
       id="radialGradient3765"
       gradientUnits="userSpaceOnUse"
       gradientTransform="matrix(0.246553,0,0,0.165895,31.70242,-42.24988)"
       cx="277.2106"
       cy="543.38867"
       fx="277.2106"
       fy="543.38867"
       r="93.796837" />
    <radialGradient
       inkscape:collect="always"
       xlink:href="#linearGradient6175"
       id="radialGradient3768"
       gradientUnits="userSpaceOnUse"
       gradientTransform="matrix(0.193286,0,0,0.211614,31.70239,-42.24988)"
       cx="476.51505"
       cy="670.68121"
       fx="476.51505"
       fy="670.68121"
       r="156.58182" />
    <linearGradient
       inkscape:collect="always"
       xlink:href="#linearGradient4572"
       id="linearGradient3775"
       gradientUnits="userSpaceOnUse"
       gradientTransform="matrix(0.254282,0,0,0.160853,29.51146,-41.6239)"
       x1="333.50943"
       y1="517.9408"
       x2="297.82065"
       y2="882.63599" />
    <linearGradient
       inkscape:collect="always"
       xlink:href="#linearGradient20941"
       id="linearGradient3784"
       gradientUnits="userSpaceOnUse"
       gradientTransform="matrix(1.24743,0,-0.191729,0.801648,0,0)"
       x1="96.67012"
       y1="162.52162"
       x2="97.220276"
       y2="62.559883" />
  </defs>
  <sodipodi:namedview
     inkscape:guide-bbox="true"
     showguides="true"
     id="base"
     pagecolor="#ffffff"
     bordercolor="#666666"
     borderopacity="1.0"
     inkscape:pageopacity="1.0000000"
     inkscape:pageshadow="2"
     inkscape:zoom="3.4634522"
     inkscape:cx="61.251795"
     inkscape:cy="68.320172"
     inkscape:document-units="px"
     inkscape:current-layer="layer3"
     inkscape:window-width="1680"
     inkscape:window-height="1025"
     inkscape:window-x="1680"
     inkscape:window-y="0"
     showborder="true"
     showgrid="false"
     inkscape:window-maximized="1" />
  <metadata
     id="metadata4">
    <rdf:RDF>
      <cc:Work
         rdf:about="">
        <dc:format>image/svg+xml</dc:format>
        <dc:type
           rdf:resource="http://purl.org/dc/dcmitype/StillImage" />
      </cc:Work>
    </rdf:RDF>
  </metadata>
  <g
     inkscape:groupmode="layer"
     id="layer3"
     inkscape:label="texte flammekueche"
     style="display:inline"
     sodipodi:insensitive="true">
    <g
       id="g3913"
       transform="translate(4.1409072,0)">
      <g
         transform="translate(125.41189,44.362338)"
         id="g3798"
         style="display:inline">
        <text
           xml:space="preserve"
           style="font-size:20px;font-style:normal;font-variant:normal;font-weight:normal;font-stretch:normal;text-align:start;line-height:100%;writing-mode:lr-tb;text-anchor:start;fill:#000f2d;fill-opacity:1;stroke:none;font-family:Trebuchet MS;-inkscape-font-specification:Trebuchet MS"
           x="-97.390602"
           y="87.339539"
           id="text3786"
           sodipodi:linespacing="100%"><tspan
             sodipodi:role="line"
             id="tspan3788"
             x="-97.390602"
             y="87.339539">Flammeküche</tspan></text>
        <text
           xml:space="preserve"
           style="font-size:25.31628799px;font-style:normal;font-variant:normal;font-weight:normal;font-stretch:normal;text-align:start;line-height:100%;writing-mode:lr-tb;text-anchor:start;fill:#000f2d;fill-opacity:1;stroke:none;font-family:Trebuchet MS;-inkscape-font-specification:Trebuchet MS"
           x="-97.423203"
           y="105.88319"
           id="text3790"
           sodipodi:linespacing="100%"><tspan
             sodipodi:role="line"
             id="tspan3792"
             x="-97.423203"
             y="105.88319">connection</tspan></text>
      </g>
    </g>
  </g>
  <g
     inkscape:label="Layer 1"
     inkscape:groupmode="layer"
     id="layer1"
     style="display:inline"
     sodipodi:insensitive="true">
    <g
       id="g3875">
      <path
         style="opacity:0.13015873;fill:url(#linearGradient3784);fill-opacity:1;fill-rule:nonzero;stroke:none"
         d="m 107.62956,43.81482 c -0.84933,0.0023 -2.01103,2.385951 -2.77333,2.710751 -0.7623,0.3248 -4.39311,-0.01753 -4.77721,0.505737 -0.384096,0.523264 2.69008,1.622465 2.8309,2.144325 0.14081,0.52186 -2.0516,2.693071 -1.43966,3.014193 0.61194,0.321123 3.67201,-1.393561 4.52134,-1.395834 0.84933,-0.0023 3.12745,1.700405 3.88975,1.375605 0.7623,-0.3248 -0.4132,-2.490929 -0.0291,-3.014193 0.3841,-0.523265 3.97101,-1.642695 3.8302,-2.164555 -0.14082,-0.52186 -3.93303,-0.144155 -4.54497,-0.465278 -0.61195,-0.321123 -0.6586,-2.713024 -1.50792,-2.710751 z m -28.394055,4.652781 c -0.849328,0.0023 -2.011032,2.385951 -2.773329,2.710751 -0.762299,0.3248 -4.393109,-0.01753 -4.777207,0.505737 -0.384099,0.523265 2.69008,1.622466 2.830893,2.144325 0.140814,0.52186 -2.051594,2.69307 -1.439653,3.014193 0.611941,0.321123 3.672013,-1.393561 4.521341,-1.395834 0.849328,-0.0023 3.127449,1.700405 3.889747,1.375605 0.7623,-0.3248 -0.413197,-2.490929 -0.0291,-3.014193 0.384099,-0.523265 3.971009,-1.642695 3.830196,-2.164555 -0.140814,-0.52186 -3.933025,-0.144155 -4.54497,-0.465278 -0.611941,-0.321123 -0.658592,-2.713024 -1.507921,-2.710751 z m 54.531245,0 c -0.84932,0.0023 -2.01103,2.385951 -2.77333,2.710751 -0.7623,0.3248 -4.39311,-0.01753 -4.7772,0.505737 -0.3841,0.523265 2.69007,1.622466 2.83089,2.144325 0.14082,0.52186 -2.05159,2.69307 -1.43965,3.014193 0.61193,0.321123 3.67201,-1.393561 4.52134,-1.395834 0.84932,-0.0023 3.12745,1.700405 3.88974,1.375605 0.76231,-0.3248 -0.41319,-2.490929 -0.0291,-3.014193 0.3841,-0.523265 3.97101,-1.642695 3.83019,-2.164555 -0.14082,-0.52186 -3.93303,-0.144155 -4.54497,-0.465278 -0.61194,-0.321123 -0.6586,-2.713024 -1.50792,-2.710751 z M 56.273288,61.636995 c -0.849328,0.0023 -2.01103,2.385951 -2.773329,2.710751 -0.762299,0.3248 -4.393107,-0.01753 -4.777207,0.505737 -0.384099,0.523265 2.690077,1.622466 2.830893,2.144325 0.140814,0.52186 -2.051594,2.693072 -1.439653,3.014193 0.611941,0.321123 3.672015,-1.393561 4.521341,-1.395834 0.849327,-0.0023 3.127447,1.700404 3.889747,1.375605 0.762299,-0.3248 -0.413196,-2.490927 -0.0291,-3.014193 0.384099,-0.523265 3.971011,-1.642695 3.830196,-2.164555 -0.140814,-0.52186 -3.933028,-0.144156 -4.54497,-0.465278 -0.611941,-0.321123 -0.658595,-2.713024 -1.507921,-2.710751 z m 93.593742,0 c -0.84932,0.0023 -2.01103,2.385951 -2.77333,2.710751 -0.7623,0.3248 -4.39309,-0.01753 -4.7772,0.505737 -0.3841,0.523265 2.69007,1.622466 2.83089,2.144325 0.14082,0.52186 -2.0516,2.693072 -1.43965,3.014193 0.61194,0.321123 3.67202,-1.393561 4.52134,-1.395834 0.84932,-0.0023 3.12744,1.700404 3.88975,1.375605 0.7623,-0.3248 -0.41321,-2.490927 -0.0291,-3.014193 0.3841,-0.523265 3.97101,-1.642695 3.83019,-2.164555 -0.14081,-0.52186 -3.93302,-0.144156 -4.54497,-0.465278 -0.61193,-0.321123 -0.65859,-2.713024 -1.50792,-2.710751 z M 44.092223,79.641236 c -0.849328,0.0023 -2.011031,2.385952 -2.773329,2.710751 -0.7623,0.3248 -4.393108,-0.01753 -4.777207,0.505737 -0.384099,0.523264 2.690078,1.622464 2.830893,2.144325 0.140814,0.52186 -2.051595,2.693071 -1.439653,3.014193 0.611941,0.321123 3.703263,-1.393562 4.552591,-1.395834 0.849327,-0.0023 3.096199,1.700405 3.858497,1.375605 0.762299,-0.324801 -0.413197,-2.490932 -0.0291,-3.014194 0.384099,-0.523264 3.971009,-1.642693 3.830195,-2.164554 -0.140814,-0.52186 -3.933028,-0.144155 -4.544969,-0.465278 -0.611942,-0.321123 -0.658593,-2.713024 -1.507921,-2.710751 z m 109.343747,0 c -0.84933,0.0023 -2.01103,2.385952 -2.77333,2.710751 -0.7623,0.3248 -4.39311,-0.01753 -4.77721,0.505737 -0.3841,0.523264 2.69009,1.622464 2.8309,2.144325 0.14081,0.52186 -2.05159,2.693071 -1.43966,3.014193 0.61194,0.321123 3.67201,-1.393562 4.52134,-1.395834 0.84933,-0.0023 3.12746,1.700405 3.88975,1.375605 0.7623,-0.324801 -0.41319,-2.490932 -0.0291,-3.014194 0.3841,-0.523264 3.97101,-1.642693 3.8302,-2.164554 -0.14082,-0.52186 -3.93303,-0.144155 -4.54497,-0.465278 -0.61194,-0.321123 -0.6586,-2.713024 -1.50792,-2.710751 z M 47.830497,96.937444 c -0.849327,0.0023 -2.011028,2.385945 -2.77333,2.710755 -0.762299,0.3248 -4.393106,-0.01753 -4.777205,0.505731 -0.3841,0.52327 2.690076,1.62247 2.830892,2.14433 0.140814,0.52186 -2.051593,2.69307 -1.439652,3.01419 0.611941,0.32112 3.672015,-1.39356 4.52134,-1.39583 0.849329,-0.002 3.127448,1.7004 3.889748,1.3756 0.762299,-0.3248 -0.413196,-2.49093 -0.0291,-3.01419 0.3841,-0.52327 3.97101,-1.64269 3.830197,-2.16456 -0.140814,-0.521861 -3.933029,-0.144151 -4.544972,-0.465271 -0.611939,-0.32113 -0.658594,-2.713025 -1.50792,-2.710755 z m 93.593743,0 c -0.84932,0.0023 -2.01103,2.385945 -2.77333,2.710755 -0.7623,0.3248 -4.39309,-0.01753 -4.7772,0.505731 -0.3841,0.52327 2.69007,1.62247 2.83089,2.14433 0.14082,0.52186 -2.0516,2.69307 -1.43965,3.01419 0.61194,0.32112 3.67201,-1.39356 4.52134,-1.39583 0.84932,-0.002 3.12744,1.7004 3.88975,1.3756 0.7623,-0.3248 -0.41321,-2.49093 -0.0291,-3.01419 0.3841,-0.52327 3.97101,-1.64269 3.83019,-2.16456 -0.14081,-0.521861 -3.93302,-0.144151 -4.54497,-0.465271 -0.61193,-0.32113 -0.65859,-2.713025 -1.50792,-2.710755 z M 64.725518,109.13582 c -0.849329,0.002 -2.015872,2.40619 -2.778167,2.73098 -0.762299,0.3248 -4.388272,-0.0378 -4.772369,0.48551 -0.3841,0.52327 2.690081,1.62246 2.830891,2.14433 0.140814,0.52186 -2.056432,2.7133 -1.44449,3.03442 0.611942,0.32112 3.672013,-1.39356 4.52134,-1.39583 0.849329,-0.002 3.127448,1.70041 3.889748,1.3756 0.762299,-0.3248 -0.413197,-2.49093 -0.0291,-3.01419 0.384101,-0.52327 3.975846,-1.66292 3.835036,-2.18479 -0.140814,-0.52186 -3.933026,-0.14415 -4.54497,-0.46528 -0.611942,-0.32112 -0.658593,-2.71302 -1.507921,-2.71075 z m 54.531242,0 c -0.84932,0.002 -2.01586,2.40619 -2.77816,2.73098 -0.76231,0.3248 -4.38827,-0.0378 -4.77237,0.48551 -0.3841,0.52327 2.69007,1.62246 2.83089,2.14433 0.14082,0.52186 -2.05643,2.7133 -1.44449,3.03442 0.61194,0.32112 3.67202,-1.39356 4.52134,-1.39583 0.84932,-0.002 3.12745,1.70041 3.88975,1.3756 0.7623,-0.3248 -0.4132,-2.49093 -0.0291,-3.01419 0.3841,-0.52327 3.97585,-1.66292 3.83503,-2.18479 -0.14081,-0.52186 -3.93303,-0.14415 -4.54496,-0.46528 -0.61194,-0.32112 -0.6586,-2.71302 -1.50793,-2.71075 z m -28.512783,5.2799 c -0.849327,0.002 -2.011026,2.38595 -2.773329,2.71075 -0.762299,0.3248 -4.393108,-0.0175 -4.777207,0.50574 -0.384098,0.52326 2.690078,1.62246 2.830894,2.14432 0.140811,0.52187 -2.051597,2.69307 -1.439655,3.0142 0.611942,0.32112 3.672013,-1.39357 4.521343,-1.39584 0.849326,-0.002 3.127445,1.70041 3.889746,1.37561 0.762299,-0.3248 -0.413191,-2.49094 -0.0291,-3.0142 0.384098,-0.52326 3.971006,-1.64269 3.830195,-2.16455 -0.140814,-0.52186 -3.933027,-0.14416 -4.54497,-0.46528 -0.611942,-0.32112 -0.658592,-2.71302 -1.507921,-2.71075 z"
         id="path3412" />
      <path
         style="opacity:0.36893203;fill:url(#linearGradient3775);fill-opacity:1;fill-rule:evenodd;stroke:none"
         d="m 127.48883,101.42721 -73.494098,0 48.195518,-40.646508 3.14413,0 21.29645,-17.947803 2.75112,0 17.64123,-10.293594 -7.0623,9.765717 3.14414,0 -17.33377,18.47568 34.61989,1.301009 -32.90231,39.345499 z"
         id="path1358"
         sodipodi:nodetypes="cccccccccccc" />
      <path
         sodipodi:type="star"
         style="opacity:0.10355985;fill:url(#linearGradient2298);fill-opacity:1;fill-rule:nonzero;stroke:none"
         id="path8666"
         sodipodi:sides="5"
         sodipodi:cx="9.2855492"
         sodipodi:cy="207.37724"
         sodipodi:r1="47.520447"
         sodipodi:r2="93.177345"
         sodipodi:arg1="0.78539816"
         sodipodi:arg2="1.4137167"
         inkscape:flatsided="false"
         inkscape:rounded="0.18"
         inkscape:randomized="0"
         d="m 42.887579,240.97927 c -7.821028,7.82103 -8.101452,56.69789 -19.025882,58.42815 -10.92443,1.73026 -26.2949082,-44.66774 -36.149979,-49.68915 -9.855071,-5.02141 -56.426382,9.81567 -61.447792,-0.0394 -5.021409,-9.85507 34.355972,-38.81103 36.086232,-49.73546 1.73026,-10.92443 -26.77197,-50.63147 -18.950941,-58.4525 7.821028,-7.82103 47.5280661,20.6812 58.4524963,18.95094 10.9244307,-1.73026 39.8803947,-41.10764 49.7354657,-36.08623 9.855071,5.02141 -4.982011,51.59272 0.0394,61.44779 5.02141,9.85507 51.419413,25.22555 49.689153,36.14998 -1.730263,10.92443 -50.607122,11.20485 -58.428151,19.02588 z"
         transform="matrix(0.06986774,-0.02882012,0.03171455,0.03554412,88.93019,45.43847)" />
      <path
         transform="matrix(0.469488,0,0,0.367605,4.354391,12.24166)"
         d="m 267.97385,236.6013 a 87.254906,21.568628 0 1 1 -174.509807,0 87.254906,21.568628 0 1 1 174.509807,0 z"
         sodipodi:ry="21.568628"
         sodipodi:rx="87.254906"
         sodipodi:cy="236.6013"
         sodipodi:cx="180.71895"
         id="path10196"
         style="opacity:0.18122971;fill:url(#radialGradient10970);fill-opacity:1;fill-rule:nonzero;stroke:none"
         sodipodi:type="arc" />
      <path
         style="fill:#ffffff;fill-opacity:1;fill-rule:evenodd;stroke:none"
         d="m 79.005706,31.475169 12.078817,-2.456708 5.118146,2.047259 4.299241,15.1497 4.29924,4.91342 1.22835,0.614179 2.45672,3.275611 6.14176,20.677299 0.40946,3.275615 1.84253,1.023625 1.43308,2.456712 1.22835,3.68506 1.84253,2.661434 0.61418,1.023629 0.20473,1.842532 -1.02363,1.433079 -7.77958,4.50397 -4.70869,4.708685 -4.50397,1.02364 -3.48034,-1.02364 -2.25198,-2.66143 -0.818903,-1.637802 -13.307172,-0.409453 -4.503963,2.251985 -1.023633,1.43308 -2.866161,1.02362 -4.299236,-0.40945 -6.960677,-2.25198 -6.960675,-1.433079 -2.661437,-0.614176 -0.204724,-1.023629 0.818904,-7.370128 -0.204726,-3.685063 0.614174,-1.637806 4.299244,-1.637805 2.866157,-3.480341 6.346502,-18.015861 2.661434,-5.118142 5.937045,-7.165405 -0.409453,-14.126079 1.228356,-2.866157 z"
         id="path2283" />
      <path
         sodipodi:type="arc"
         style="opacity:0.1;fill:url(#radialGradient7067);fill-opacity:1;fill-rule:nonzero;stroke:none"
         id="path7051"
         sodipodi:cx="190.35374"
         sodipodi:cy="778.43848"
         sodipodi:rx="60.356068"
         sodipodi:ry="60.356068"
         d="m 129.99804,778.2278 a 60.356068,60.356068 0 0 1 120.71177,0.21068 l -60.35607,0 z"
         sodipodi:start="3.1450833"
         sodipodi:end="6.2831853"
         transform="matrix(0.386473,0,0,0.460087,15.92384,-263.0499)" />
      <path
         style="fill:url(#radialGradient3768);fill-opacity:1;fill-rule:evenodd;stroke:none"
         d="m 111.14765,79.790443 -4.91342,-0.818899 -3.07089,-1.842532 -1.84253,2.866157 -1.02363,5.322869 -1.023624,5.937049 -1.228356,6.755951 1.023626,3.070882 1.637804,1.22835 1.43308,0.61418 3.07089,0.20473 2.66144,-0.81891 2.86616,-2.4567 4.50396,-3.480341 3.68506,-2.047258 2.25199,-1.433083 0.40945,-0.818902 0.20473,-0.818899 0,-1.433083 -1.22836,-1.842531 -2.25198,-4.094514 -1.43308,-3.480337 -1.84253,-1.637809 -2.86616,1.02363 -2.04726,0 1.02363,0 z"
         id="path3803" />
      <path
         style="fill:url(#radialGradient3765);fill-opacity:1;fill-rule:evenodd;stroke:#000000;stroke-width:0.13228668px;stroke-linecap:butt;stroke-linejoin:miter;stroke-opacity:1"
         d="m 85.556931,38.23112 2.456708,0.614176 6.960678,3.070884 1.228352,1.22836 0,1.637801 -0.409454,0.818903 -3.685063,2.661435 -5.322865,2.047258 -1.228356,0 -2.456712,-1.228352 -2.661431,-2.047259 -2.047258,-1.023629 -0.204727,-3.070887 1.637809,-0.818903 2.661431,-1.842532 3.070888,-2.047255 z"
         id="path3043" />
      <path
         style="fill:url(#radialGradient3762);fill-opacity:1;fill-rule:evenodd;stroke:#000000;stroke-width:0.13228668px;stroke-linecap:butt;stroke-linejoin:miter;stroke-opacity:1"
         d="m 64.265451,77.129012 -2.66143,3.480337 -1.433083,1.637805 -3.685063,1.637805 -0.818902,0.818907 -0.204726,2.661431 -0.614178,6.346498 -0.204724,1.842532 0.818902,1.637805 1.433081,1.023629 4.503966,0.818903 4.299236,0.818906 5.732326,2.25198 3.685063,0.20472 2.251982,-0.40945 2.866161,-2.456703 0.818902,-3.88979 -2.456707,-3.070884 -7.574854,-10.850469 -3.685064,-5.322868 -3.070888,0.818906 z"
         id="path4563" />
      <path
         id="path18611"
         d="m 60.625386,81.730438 c 0,0 8.428018,10.40053 13.090326,11.117808 4.662305,0.717279 5.020944,0.717279 5.020944,0.717279 l -3.945027,-5.917544 -2.869113,-4.841626 -3.227752,-4.662309 -3.04843,-1.075917 -3.048431,1.972513 -1.972517,2.689796 z"
         style="opacity:0.2912621;fill:#ffb300;fill-opacity:1;fill-rule:evenodd;stroke:none" />
      <path
         id="path18613"
         d="m 55.066482,91.772329 c 0,0 8.607335,1.434557 11.29713,4.662309 2.689792,3.227748 3.586391,5.200262 3.586391,5.200262 l -3.765712,-1.793193 -5.558905,-0.896599 -3.94503,-0.717275 -1.255235,-0.896599 -0.537958,-1.255236 0.179319,-4.303669 z"
         style="opacity:0.21682847;fill:#ffa700;fill-opacity:1;fill-rule:evenodd;stroke:none" />
      <path
         id="path18615"
         d="m 107.6071,81.551116 c 0,0 -0.53796,6.993461 -3.22775,10.041892 -2.68979,3.048434 -4.30367,5.917547 -3.94503,7.531421 0.35864,1.613871 1.79319,3.765711 1.79319,3.765711 l -2.15183,-0.8966 -1.793194,-3.586389 0.537957,-4.662309 0.717278,-2.331152 0.717279,-3.765709 0.17932,-3.407073 0.8966,-5.020944 1.97251,-2.331156 4.84163,2.510474 -0.53796,2.151834 z"
         style="opacity:0.25242716;fill:#ffa700;fill-opacity:1;fill-rule:evenodd;stroke:none" />
      <path
         id="path18617"
         d="m 118.90423,85.137507 c 0,0 -4.66231,5.738226 -4.66231,8.428018 0,2.689791 1.7932,1.972513 1.7932,1.972513 l 4.12434,-1.793196 1.7932,-1.434556 0.17932,-1.075914 -0.35864,-1.793195 -1.25524,-1.972517 -1.61387,-2.331153 z"
         style="opacity:0.23300973;fill:#ffa700;fill-opacity:1;fill-rule:evenodd;stroke:none" />
      <path
         style="opacity:0.41423944;fill:url(#linearGradient3755);fill-opacity:1;fill-rule:evenodd;stroke:none"
         d="m 111.52524,79.819803 -4.91341,-0.818899 -3.07089,-1.842532 -1.84253,2.866158 -1.02363,5.322869 -1.023627,5.937048 -1.228356,6.755952 1.023626,3.070881 1.637807,1.22835 1.43308,0.61418 3.07089,0.20473 2.66143,-0.81891 2.86616,-2.456699 4.50397,-3.480341 3.68506,-2.047259 2.25198,-1.433082 0.40945,-0.818903 0.20473,-0.818899 0,-1.433082 -1.22835,-1.842532 -2.25198,-4.094513 -1.43308,-3.480337 -1.84254,-1.637809 -2.86616,1.023629 -2.04726,0 1.02363,0 z"
         id="path18619" />
      <path
         style="opacity:0.76051779;fill:url(#linearGradient3752);fill-opacity:1;fill-rule:evenodd;stroke:none"
         d="m 64.215464,77.080679 -2.66143,3.480337 -1.433083,1.637806 -3.685063,1.637805 -0.818902,0.818906 -0.204727,2.661431 -0.614177,6.346498 -0.204725,1.842532 0.818902,1.637805 1.433082,1.023629 4.503966,0.818903 4.299236,0.818906 5.732326,2.251973 3.685064,0.20473 2.251981,-0.40945 2.866161,-2.456706 0.818903,-3.88979 -2.456708,-3.070884 -7.574854,-10.850468 -3.685064,-5.322869 -3.070888,0.818906 z"
         id="path18637" />
      <path
         id="path20161"
         d="m 86.357567,38.609044 c 0,0 -1.324609,4.746516 -1.103841,6.954197 0.220766,2.207685 1.324606,4.525751 1.324606,4.525751 l 1.766147,-0.331154 3.421907,-1.434994 2.759603,-1.655762 1.32461,-1.103841 0.441537,-1.214225 -0.110384,-1.876528 -1.876532,-0.883075 -7.947653,-2.980369 z"
         style="fill:url(#radialGradient3749);fill-opacity:1;fill-rule:evenodd;stroke:none" />
      <path
         sodipodi:nodetypes="ccccc"
         id="path20947"
         d="m 102.91025,77.284307 c 0,0 0.0515,7.827391 3.86221,7.466921 3.8107,-0.360473 7.15794,-5.304088 7.15794,-5.304088 l -9.0118,-2.317323 -2.00835,0.15449 z"
         style="opacity:0.42394822;fill:#ffb100;fill-opacity:1;fill-rule:evenodd;stroke:none" />
      <path
         sodipodi:nodetypes="ccccccccccc"
         id="path28595"
         d="m 85.772252,38.543923 -3.067205,2.044803 -2.665136,1.849512 -1.642735,0.815624 0.240447,-0.08952 c 3.269358,2.748619 5.069505,5.448784 10.626501,3.165432 1.537788,-0.346861 5.830322,-3.01731 7.157185,-3.598787 l 0,0.729652 -1.229179,-1.22918 -6.96152,-3.067204 -2.458358,-0.620333 z"
         style="opacity:0.51000001;fill:url(#radialGradient3745);fill-opacity:1;fill-rule:evenodd;stroke:none" />
      <path
         style="fill:url(#linearGradient3742);fill-opacity:1"
         d="m 100.56627,102.85027 c -0.664613,-0.40523 -1.639402,-1.38809 -2.166195,-2.18414 l -0.957813,-1.447351 -4.233405,-0.46172 c -2.328374,-0.253941 -4.741608,-0.379 -5.362747,-0.277905 -0.621138,0.101091 -2.527821,0.381511 -4.237081,0.623149 -2.831283,0.400252 -3.234469,0.56606 -4.532247,1.863837 -1.073152,1.07315 -1.850791,1.48843 -3.152848,1.68369 -2.00383,0.30048 -5.462078,-0.32006 -7.653081,-1.37328 -1.93104,-0.92825 -4.994737,-1.695155 -8.093618,-2.025974 -3.078511,-0.328646 -4.656703,-0.972017 -5.484884,-2.235979 -0.569039,-0.868459 -0.593524,-1.24213 -0.197396,-3.012222 0.248727,-1.111424 0.414164,-3.516891 0.367636,-5.34548 -0.05324,-2.092823 0.08936,-3.649119 0.384862,-4.200251 0.268186,-0.500178 1.480445,-1.329149 2.827585,-1.933569 1.61576,-0.724947 2.791883,-1.587363 3.735952,-2.739473 1.265116,-1.543912 1.378279,-1.87844 1.383385,-4.089588 0.0031,-1.324481 0.26004,-3.509245 0.571071,-4.855047 0.810091,-3.505235 4.229759,-10.14542 7.367003,-14.305 5.908394,-7.83375 6.072956,-8.328951 6.129787,-18.445915 0.03638,-6.476939 0.157942,-8.066426 0.756377,-9.890368 0.855571,-2.607647 3.006623,-5.183035 5.220259,-6.250058 2.478691,-1.194788 6.699918,-1.720242 9.458926,-1.177442 2.810307,0.552895 3.974107,1.135014 5.680324,2.841226 2.910818,2.910822 3.849208,6.405132 4.274178,15.915838 0.35245,7.887675 0.0983,7.254438 6.10049,15.198654 3.98172,5.269993 6.33708,9.388632 7.27718,12.725041 0.92513,3.2833 1.14503,6.534065 0.61194,9.046123 -0.46972,2.213412 -0.46123,2.268362 0.48566,3.145916 0.59752,0.553756 1.27032,1.922651 1.77058,3.602415 0.45942,1.542647 1.36363,3.438683 2.09987,4.403209 1.01584,1.330833 1.29302,2.045402 1.29302,3.33349 0,1.892272 -0.23298,2.107998 -5.08204,4.705741 -1.78402,0.95574 -4.00897,2.580683 -5.45848,3.986492 -1.3458,1.305221 -3.20922,2.716451 -4.14092,3.136071 -2.24395,1.01063 -5.42172,1.02862 -7.04333,0.0399 z m 6.54158,-0.74208 c 0.86279,-0.39174 2.83422,-1.88564 4.38094,-3.319792 1.8562,-1.721094 3.97662,-3.208913 6.23737,-4.376547 1.88383,-0.972963 3.59691,-2.08996 3.80684,-2.482224 0.49028,-0.916097 -0.0122,-2.271163 -1.57267,-4.241474 -0.66068,-0.834166 -1.47925,-2.571867 -1.86236,-3.953485 -0.79574,-2.869679 -1.48016,-3.761206 -3.12425,-4.069641 -0.95149,-0.178498 -1.5903,0.03971 -3.17876,1.085835 -3.77168,2.48394 -5.98725,2.118515 -7.66103,-1.263572 l -0.95657,-1.932867 -0.61657,0.8773 c -0.86803,1.235109 -1.31291,3.104682 -1.70264,7.155178 -0.18573,1.930367 -0.77545,5.010974 -1.310489,6.845783 -1.110616,3.808641 -1.22915,6.181498 -0.389856,7.804516 1.284655,2.48424 4.785025,3.30804 7.950045,1.87099 z m -30.673467,-0.41366 c 2.709326,-0.75249 4.280491,-3.891086 3.213687,-6.419741 -0.298006,-0.706372 -1.76768,-2.893625 -3.265939,-4.860566 -1.498262,-1.966933 -3.38938,-4.892723 -4.20249,-6.501756 -3.511877,-6.94955 -6.272925,-7.876742 -9.804429,-3.292435 -1.035033,1.3436 -1.858637,1.9619 -3.307184,2.482789 -2.95042,1.060956 -3.211695,1.52083 -3.269273,5.754239 -0.02714,1.995194 -0.173776,4.584942 -0.325867,5.754996 -0.258363,1.987636 -0.216203,2.166899 0.641897,2.729147 0.505129,0.330977 2.746531,0.858394 4.980886,1.172042 2.684534,0.37684 4.93016,0.951101 6.620613,1.693045 4.085504,1.79314 6.27476,2.16686 8.718099,1.48824 z m 16.870216,-7.268571 c 1.345799,-0.476416 3.147552,-1.30978 4.003899,-1.851931 1.758001,-1.11299 2.173862,-2.305137 2.591851,-7.430062 0.345451,-4.235501 1.098801,-6.516015 2.629451,-7.959758 0.72343,-0.68236 1.31532,-1.529884 1.31532,-1.883388 0,-0.353503 0.46537,-1.008789 1.03414,-1.45619 1.25227,-0.985027 3.00036,-0.819009 5.67891,0.539321 2.06061,1.044965 2.99567,1.988868 3.44041,3.472956 l 0.32235,1.075674 0.0324,-1.139689 c 0.0438,-1.544287 -0.79418,-2.624836 -3.02283,-3.897668 l -1.87247,-1.069411 -0.0772,-3.186595 c -0.0704,-2.905465 -0.21596,-3.466364 -1.65007,-6.357795 -0.86508,-1.744168 -2.12797,-3.67941 -2.80641,-4.300544 l -1.23354,-1.129345 1.26256,1.488612 c 0.69441,0.818738 1.70319,2.42805 2.24174,3.576249 0.83157,1.772926 0.97919,2.607845 0.97919,5.538407 0,1.897919 -0.10707,3.557825 -0.23792,3.688681 -0.13085,0.130853 -0.63906,0.136437 -1.12934,0.01241 -0.74066,-0.187368 -1.0312,-0.724744 -1.71781,-3.177258 -0.45452,-1.623461 -1.8306,-5.045309 -3.05796,-7.6041 -2.203585,-4.594012 -4.434768,-10.202517 -5.370146,-13.498857 -0.606511,-2.137424 -0.588197,-2.118698 -1.377842,-1.408636 -0.363598,0.326955 -2.184206,1.370556 -4.045798,2.319117 -2.394285,1.219989 -3.837547,1.724648 -4.932256,1.724648 -1.509647,0 -1.984218,-0.241711 -5.012346,-2.552914 l -1.12533,-0.858905 -0.23086,1.423576 c -0.458852,2.829445 -2.190624,7.92259 -4.360398,12.823915 -2.704194,6.108547 -3.616256,8.824979 -3.948221,11.759151 -0.14005,1.237884 -0.383765,2.250702 -0.541585,2.250702 -0.594116,0 -1.570571,-3.278908 -1.571927,-5.278459 -0.0017,-2.581428 0.579875,-4.794411 1.998837,-7.605365 0.603608,-1.195742 1.012454,-2.174067 0.908555,-2.174067 -0.403763,0 -2.872293,5.382447 -3.403012,7.420022 -1.384709,5.316245 -0.232628,8.413523 4.314797,11.599989 6.661502,4.667837 8.919218,9.133937 5.261924,10.408879 l -1.098533,0.382949 1.033584,1.453841 c 0.960773,1.351415 3.671102,2.941608 5.927403,3.477698 2.174479,0.516643 6.497484,0.215685 8.846513,-0.615864 z M 107.98604,74.83555 c 0,-0.326227 -1.87019,-0.471619 -2.32846,-0.18102 -0.31546,0.200044 0.0169,0.315924 0.91679,0.319596 0.77642,0.0032 1.41167,-0.05919 1.41167,-0.138576 z M 74.102043,54.463509 c 0,-0.207046 -0.416566,0.131754 -0.92571,0.752896 -0.509137,0.621138 -0.925707,1.298741 -0.925707,1.505787 0,0.207046 0.41657,-0.131757 0.925707,-0.752895 0.509144,-0.621139 0.92571,-1.298741 0.92571,-1.505788 z m 32.531817,-1.129345 c -0.33916,-0.517613 -0.69186,-0.941116 -0.78379,-0.941116 -0.18449,0 0.17053,0.681959 0.73489,1.41168 0.64819,0.838099 0.68353,0.498006 0.0489,-0.470564 z M 90.867176,48.445371 c 4.020801,-1.982174 5.182591,-3.044207 5.007229,-4.577293 -0.09143,-0.799331 -0.460256,-1.235311 -1.440468,-1.702753 -0.724656,-0.345571 -2.37439,-1.147917 -3.666062,-1.782984 -4.313775,-2.12093 -5.269085,-1.983762 -9.666284,1.387944 -3.081419,2.362792 -2.948019,3.063981 1.216221,6.392677 3.069344,2.453488 4.077788,2.4868 8.549364,0.282409 z m -8.103102,-1.739967 c -1.590355,-0.95478 -3.011582,-2.223848 -3.011582,-2.689148 0,-0.187089 0.712297,0.269536 1.582881,1.014722 3.088812,2.643904 5.768708,2.644565 10.118034,0.0025 1.175847,-0.714286 2.361373,-1.298704 2.634507,-1.298704 0.822318,0 -0.02646,0.584017 -3.230222,2.222591 -3.572352,1.8271 -5.932884,2.04527 -8.093618,0.74805 z m -1.847362,-6.669953 c -0.595451,-1.112612 -0.50466,-3.28354 0.160408,-3.835495 0.803309,-0.666689 2.0634,0.521977 2.0634,1.946439 0,1.124945 0.224386,1.274949 1.088577,0.727714 0.807985,-0.511654 0.326816,-3.632849 -0.734151,-4.762194 -1.186982,-1.263484 -2.77448,-1.219434 -3.639657,0.100996 -0.9167,1.399053 -0.902143,4.867645 0.02636,6.284737 0.814006,1.242328 1.728695,0.833882 1.035058,-0.462197 z m 14.448681,0.32998 c 1.115898,-2.157918 0.509173,-5.751312 -1.233072,-7.302947 -1.020512,-0.908867 -3.273342,-0.909337 -4.277165,-8.93e-4 -1.869628,1.691993 -2.484786,5.021072 -1.067929,5.779357 0.640992,0.343049 0.752899,0.475677 0.752899,-0.381898 0,-0.857575 1.158606,-2.936804 1.661696,-3.129859 0.503089,-0.193055 0.935826,0.0892 1.394932,0.460959 0.885141,0.716737 1.140517,2.513936 0.580974,4.08848 -0.279281,0.785892 0.09138,1.167389 1.52888,1.573585 0.04645,0.01312 0.342898,-0.475927 0.658785,-1.086784 z"
         id="path2281"
         sodipodi:nodetypes="ccccccccccccccccccccccccccccccccccccccccccccccccccccccccccccccccccccccccccccccccccccccccccccccccccccccccccccccccccccccccccccccccccccccccccccccccczzcccc" />
      <path
         sodipodi:nodetypes="cccccccccccc"
         id="path14026"
         d="m 78.368643,48.790732 c 0,0 4.805292,6.967673 9.610588,6.006614 4.805292,-0.961059 9.370325,-6.006614 9.370325,-6.006614 l -1.201326,-4.0845 -0.48053,1.441589 -4.805292,2.402644 -4.324766,1.922119 -1.201322,-0.48053 -0.961059,0 -3.123441,-2.162381 -1.441588,-1.201326 -1.441589,2.162385 z"
         style="opacity:0.07000002;fill:#000e32;fill-opacity:1;fill-rule:evenodd;stroke:none" />
      <path
         id="path16302"
         d="m 90.389334,20.844455 c -2.392984,-0.02444 -5.138085,0.479026 -6.941059,1.348103 -2.146905,1.034857 -4.239533,3.531854 -5.069313,6.060888 -0.28092,0.856207 -0.449772,1.672952 -0.557069,2.985882 l 23.653087,0 c -0.61519,-3.499621 -1.587318,-5.665046 -3.353549,-7.431276 -1.654782,-1.654775 -2.778234,-2.226826 -5.503826,-2.763053 -0.668961,-0.131609 -1.430609,-0.192396 -2.228271,-0.200544 z"
         style="opacity:0.4;fill:url(#radialGradient3738);fill-opacity:1" />
      <path
         sodipodi:nodetypes="cczssc"
         id="path24777"
         d="m 71.897247,60.354714 c 0,0 -5.077669,8.168422 -3.753059,12.473404 0,4.8569 7.230158,7.892465 9.272266,10.596876 2.042108,2.704407 2.539989,3.978879 1.32461,5.298434 -2.648065,2.875042 -3.973829,-4.746516 -10.376107,-11.148794 -5.543987,-5.543987 3.53229,-17.21992 3.53229,-17.21992 z"
         style="opacity:0.8;fill:url(#linearGradient3735);fill-opacity:1;fill-rule:evenodd;stroke:none" />
      <path
         sodipodi:nodetypes="ccczc"
         id="path27067"
         d="m 113.56993,78.674699 c 0,0 -2.47181,1.647874 -4.73764,2.677789 -1.75086,1.338898 -4.73763,-2.16283 -4.94361,-4.428655 1.13291,-2.16283 -3.980932,-3.238982 2.26582,-3.08976 6.34975,0.149222 7.41543,4.840626 7.41543,4.840626 z"
         style="opacity:0.22999998;fill:url(#radialGradient3732);fill-opacity:1;fill-rule:evenodd;stroke:none" />
      <path
         sodipodi:type="star"
         style="fill:#ffd800;fill-opacity:1;fill-rule:nonzero;stroke:none"
         id="path3170"
         sodipodi:sides="5"
         sodipodi:cx="9.2855492"
         sodipodi:cy="207.37724"
         sodipodi:r1="47.520447"
         sodipodi:r2="93.177345"
         sodipodi:arg1="0.78539816"
         sodipodi:arg2="1.4137167"
         inkscape:flatsided="false"
         inkscape:rounded="0.18"
         inkscape:randomized="0"
         d="m 42.887579,240.97927 c -7.821028,7.82103 -8.101452,56.69789 -19.025882,58.42815 -10.92443,1.73026 -26.2949082,-44.66774 -36.149979,-49.68915 -9.855071,-5.02141 -56.426382,9.81567 -61.447792,-0.0394 -5.021409,-9.85507 34.355972,-38.81103 36.086232,-49.73546 1.73026,-10.92443 -26.77197,-50.63147 -18.950941,-58.4525 7.821028,-7.82103 47.5280661,20.6812 58.4524963,18.95094 10.9244307,-1.73026 39.8803947,-41.10764 49.7354657,-36.08623 9.855071,5.02141 -4.982011,51.59272 0.0394,61.44779 5.02141,9.85507 51.419413,25.22555 49.689153,36.14998 -1.730263,10.92443 -50.607122,11.20485 -58.428151,19.02588 z"
         transform="matrix(0.06823117,-0.03512174,0.03512174,0.06823117,81.7617,-4.333234)" />
      <path
         sodipodi:type="star"
         style="fill:#ffd800;fill-opacity:1;fill-rule:nonzero;stroke:none"
         id="path3335"
         sodipodi:sides="5"
         sodipodi:cx="9.2855492"
         sodipodi:cy="207.37724"
         sodipodi:r1="47.520447"
         sodipodi:r2="93.177345"
         sodipodi:arg1="0.78539816"
         sodipodi:arg2="1.4137167"
         inkscape:flatsided="false"
         inkscape:rounded="0.18"
         inkscape:randomized="0"
         d="m 42.887579,240.97927 c -7.821028,7.82103 -8.101452,56.69789 -19.025882,58.42815 -10.92443,1.73026 -26.2949082,-44.66774 -36.149979,-49.68915 -9.855071,-5.02141 -56.426382,9.81567 -61.447792,-0.0394 -5.021409,-9.85507 34.355972,-38.81103 36.086232,-49.73546 1.73026,-10.92443 -26.77197,-50.63147 -18.950941,-58.4525 7.821028,-7.82103 47.5280661,20.6812 58.4524963,18.95094 10.9244307,-1.73026 39.8803947,-41.10764 49.7354657,-36.08623 9.855071,5.02141 -4.982011,51.59272 0.0394,61.44779 5.02141,9.85507 51.419413,25.22555 49.689153,36.14998 -1.730263,10.92443 -50.607122,11.20485 -58.428151,19.02588 z"
         transform="matrix(0.06823117,-0.03512174,0.03512174,0.06823117,109.0016,2.849882)" />
      <path
         sodipodi:type="star"
         style="fill:#ffd800;fill-opacity:1;fill-rule:nonzero;stroke:none"
         id="path3337"
         sodipodi:sides="5"
         sodipodi:cx="9.2855492"
         sodipodi:cy="207.37724"
         sodipodi:r1="47.520447"
         sodipodi:r2="93.177345"
         sodipodi:arg1="0.78539816"
         sodipodi:arg2="1.4137167"
         inkscape:flatsided="false"
         inkscape:rounded="0.18"
         inkscape:randomized="0"
         d="m 42.887579,240.97927 c -7.821028,7.82103 -8.101452,56.69789 -19.025882,58.42815 -10.92443,1.73026 -26.2949082,-44.66774 -36.149979,-49.68915 -9.855071,-5.02141 -56.426382,9.81567 -61.447792,-0.0394 -5.021409,-9.85507 34.355972,-38.81103 36.086232,-49.73546 1.73026,-10.92443 -26.77197,-50.63147 -18.950941,-58.4525 7.821028,-7.82103 47.5280661,20.6812 58.4524963,18.95094 10.9244307,-1.73026 39.8803947,-41.10764 49.7354657,-36.08623 9.855071,5.02141 -4.982011,51.59272 0.0394,61.44779 5.02141,9.85507 51.419413,25.22555 49.689153,36.14998 -1.730263,10.92443 -50.607122,11.20485 -58.428151,19.02588 z"
         transform="matrix(0.06823117,-0.03512174,0.03512174,0.06823117,54.47013,2.849882)" />
      <path
         sodipodi:type="star"
         style="fill:#ffd800;fill-opacity:1;fill-rule:nonzero;stroke:none"
         id="path3339"
         sodipodi:sides="5"
         sodipodi:cx="9.2855492"
         sodipodi:cy="207.37724"
         sodipodi:r1="47.520447"
         sodipodi:r2="93.177345"
         sodipodi:arg1="0.78539816"
         sodipodi:arg2="1.4137167"
         inkscape:flatsided="false"
         inkscape:rounded="0.18"
         inkscape:randomized="0"
         d="m 42.887579,240.97927 c -7.821028,7.82103 -8.101452,56.69789 -19.025882,58.42815 -10.92443,1.73026 -26.2949082,-44.66774 -36.149979,-49.68915 -9.855071,-5.02141 -56.426382,9.81567 -61.447792,-0.0394 -5.021409,-9.85507 34.355972,-38.81103 36.086232,-49.73546 1.73026,-10.92443 -26.77197,-50.63147 -18.950941,-58.4525 7.821028,-7.82103 47.5280661,20.6812 58.4524963,18.95094 10.9244307,-1.73026 39.8803947,-41.10764 49.7354657,-36.08623 9.855071,5.02141 -4.982011,51.59272 0.0394,61.44779 5.02141,9.85507 51.419413,25.22555 49.689153,36.14998 -1.730263,10.92443 -50.607122,11.20485 -58.428151,19.02588 z"
         transform="matrix(0.06823117,-0.03512174,0.03512174,0.06823117,34.6652,23.19743)" />
      <path
         sodipodi:type="star"
         style="fill:#ffd800;fill-opacity:1;fill-rule:nonzero;stroke:none"
         id="path3341"
         sodipodi:sides="5"
         sodipodi:cx="9.2855492"
         sodipodi:cy="207.37724"
         sodipodi:r1="47.520447"
         sodipodi:r2="93.177345"
         sodipodi:arg1="0.78539816"
         sodipodi:arg2="1.4137167"
         inkscape:flatsided="false"
         inkscape:rounded="0.18"
         inkscape:randomized="0"
         d="m 42.887579,240.97927 c -7.821028,7.82103 -8.101452,56.69789 -19.025882,58.42815 -10.92443,1.73026 -26.2949082,-44.66774 -36.149979,-49.68915 -9.855071,-5.02141 -56.426382,9.81567 -61.447792,-0.0394 -5.021409,-9.85507 34.355972,-38.81103 36.086232,-49.73546 1.73026,-10.92443 -26.77197,-50.63147 -18.950941,-58.4525 7.821028,-7.82103 47.5280661,20.6812 58.4524963,18.95094 10.9244307,-1.73026 39.8803947,-41.10764 49.7354657,-36.08623 9.855071,5.02141 -4.982011,51.59272 0.0394,61.44779 5.02141,9.85507 51.419413,25.22555 49.689153,36.14998 -1.730263,10.92443 -50.607122,11.20485 -58.428151,19.02588 z"
         transform="matrix(0.06823117,-0.03512174,0.03512174,0.06823117,128.2639,23.19743)" />
      <path
         sodipodi:type="star"
         style="fill:#ffd800;fill-opacity:1;fill-rule:nonzero;stroke:none"
         id="path3343"
         sodipodi:sides="5"
         sodipodi:cx="9.2855492"
         sodipodi:cy="207.37724"
         sodipodi:r1="47.520447"
         sodipodi:r2="93.177345"
         sodipodi:arg1="0.78539816"
         sodipodi:arg2="1.4137167"
         inkscape:flatsided="false"
         inkscape:rounded="0.18"
         inkscape:randomized="0"
         d="m 42.887579,240.97927 c -7.821028,7.82103 -8.101452,56.69789 -19.025882,58.42815 -10.92443,1.73026 -26.2949082,-44.66774 -36.149979,-49.68915 -9.855071,-5.02141 -56.426382,9.81567 -61.447792,-0.0394 -5.021409,-9.85507 34.355972,-38.81103 36.086232,-49.73546 1.73026,-10.92443 -26.77197,-50.63147 -18.950941,-58.4525 7.821028,-7.82103 47.5280661,20.6812 58.4524963,18.95094 10.9244307,-1.73026 39.8803947,-41.10764 49.7354657,-36.08623 9.855071,5.02141 -4.982011,51.59272 0.0394,61.44779 5.02141,9.85507 51.419413,25.22555 49.689153,36.14998 -1.730263,10.92443 -50.607122,11.20485 -58.428151,19.02588 z"
         transform="matrix(0.06823117,-0.03512174,0.03512174,0.06823117,136.1316,51.00574)" />
      <path
         sodipodi:type="star"
         style="fill:#ffd800;fill-opacity:1;fill-rule:nonzero;stroke:none"
         id="path3345"
         sodipodi:sides="5"
         sodipodi:cx="9.2855492"
         sodipodi:cy="207.37724"
         sodipodi:r1="47.520447"
         sodipodi:r2="93.177345"
         sodipodi:arg1="0.78539816"
         sodipodi:arg2="1.4137167"
         inkscape:flatsided="false"
         inkscape:rounded="0.18"
         inkscape:randomized="0"
         d="m 42.887579,240.97927 c -7.821028,7.82103 -8.101452,56.69789 -19.025882,58.42815 -10.92443,1.73026 -26.2949082,-44.66774 -36.149979,-49.68915 -9.855071,-5.02141 -56.426382,9.81567 -61.447792,-0.0394 -5.021409,-9.85507 34.355972,-38.81103 36.086232,-49.73546 1.73026,-10.92443 -26.77197,-50.63147 -18.950941,-58.4525 7.821028,-7.82103 47.5280661,20.6812 58.4524963,18.95094 10.9244307,-1.73026 39.8803947,-41.10764 49.7354657,-36.08623 9.855071,5.02141 -4.982011,51.59272 0.0394,61.44779 5.02141,9.85507 51.419413,25.22555 49.689153,36.14998 -1.730263,10.92443 -50.607122,11.20485 -58.428151,19.02588 z"
         transform="matrix(0.06823117,-0.03512174,0.03512174,0.06823117,26.7975,51.00574)" />
      <path
         sodipodi:type="star"
         style="fill:#ffd800;fill-opacity:1;fill-rule:nonzero;stroke:none"
         id="path3347"
         sodipodi:sides="5"
         sodipodi:cx="9.2855492"
         sodipodi:cy="207.37724"
         sodipodi:r1="47.520447"
         sodipodi:r2="93.177345"
         sodipodi:arg1="0.78539816"
         sodipodi:arg2="1.4137167"
         inkscape:flatsided="false"
         inkscape:rounded="0.18"
         inkscape:randomized="0"
         d="m 42.887579,240.97927 c -7.821028,7.82103 -8.101452,56.69789 -19.025882,58.42815 -10.92443,1.73026 -26.2949082,-44.66774 -36.149979,-49.68915 -9.855071,-5.02141 -56.426382,9.81567 -61.447792,-0.0394 -5.021409,-9.85507 34.355972,-38.81103 36.086232,-49.73546 1.73026,-10.92443 -26.77197,-50.63147 -18.950941,-58.4525 7.821028,-7.82103 47.5280661,20.6812 58.4524963,18.95094 10.9244307,-1.73026 39.8803947,-41.10764 49.7354657,-36.08623 9.855071,5.02141 -4.982011,51.59272 0.0394,61.44779 5.02141,9.85507 51.419413,25.22555 49.689153,36.14998 -1.730263,10.92443 -50.607122,11.20485 -58.428151,19.02588 z"
         transform="matrix(0.06823117,-0.03512174,0.03512174,0.06823117,34.6652,77.72885)" />
      <path
         sodipodi:type="star"
         style="fill:#ffd800;fill-opacity:1;fill-rule:nonzero;stroke:none"
         id="path3349"
         sodipodi:sides="5"
         sodipodi:cx="9.2855492"
         sodipodi:cy="207.37724"
         sodipodi:r1="47.520447"
         sodipodi:r2="93.177345"
         sodipodi:arg1="0.78539816"
         sodipodi:arg2="1.4137167"
         inkscape:flatsided="false"
         inkscape:rounded="0.18"
         inkscape:randomized="0"
         d="m 42.887579,240.97927 c -7.821028,7.82103 -8.101452,56.69789 -19.025882,58.42815 -10.92443,1.73026 -26.2949082,-44.66774 -36.149979,-49.68915 -9.855071,-5.02141 -56.426382,9.81567 -61.447792,-0.0394 -5.021409,-9.85507 34.355972,-38.81103 36.086232,-49.73546 1.73026,-10.92443 -26.77197,-50.63147 -18.950941,-58.4525 7.821028,-7.82103 47.5280661,20.6812 58.4524963,18.95094 10.9244307,-1.73026 39.8803947,-41.10764 49.7354657,-36.08623 9.855071,5.02141 -4.982011,51.59272 0.0394,61.44779 5.02141,9.85507 51.419413,25.22555 49.689153,36.14998 -1.730263,10.92443 -50.607122,11.20485 -58.428151,19.02588 z"
         transform="matrix(0.06823117,-0.03512174,0.03512174,0.06823117,54.47013,96.58421)" />
      <path
         sodipodi:type="star"
         style="fill:#ffd800;fill-opacity:1;fill-rule:nonzero;stroke:none"
         id="path3351"
         sodipodi:sides="5"
         sodipodi:cx="9.2855492"
         sodipodi:cy="207.37724"
         sodipodi:r1="47.520447"
         sodipodi:r2="93.177345"
         sodipodi:arg1="0.78539816"
         sodipodi:arg2="1.4137167"
         inkscape:flatsided="false"
         inkscape:rounded="0.18"
         inkscape:randomized="0"
         d="m 42.887579,240.97927 c -7.821028,7.82103 -8.101452,56.69789 -19.025882,58.42815 -10.92443,1.73026 -26.2949082,-44.66774 -36.149979,-49.68915 -9.855071,-5.02141 -56.426382,9.81567 -61.447792,-0.0394 -5.021409,-9.85507 34.355972,-38.81103 36.086232,-49.73546 1.73026,-10.92443 -26.77197,-50.63147 -18.950941,-58.4525 7.821028,-7.82103 47.5280661,20.6812 58.4524963,18.95094 10.9244307,-1.73026 39.8803947,-41.10764 49.7354657,-36.08623 9.855071,5.02141 -4.982011,51.59272 0.0394,61.44779 5.02141,9.85507 51.419413,25.22555 49.689153,36.14998 -1.730263,10.92443 -50.607122,11.20485 -58.428151,19.02588 z"
         transform="matrix(0.06823117,-0.03512174,0.03512174,0.06823117,81.7617,104.7232)" />
      <path
         sodipodi:type="star"
         style="fill:#ffd800;fill-opacity:1;fill-rule:nonzero;stroke:none"
         id="path3353"
         sodipodi:sides="5"
         sodipodi:cx="9.2855492"
         sodipodi:cy="207.37724"
         sodipodi:r1="47.520447"
         sodipodi:r2="93.177345"
         sodipodi:arg1="0.78539816"
         sodipodi:arg2="1.4137167"
         inkscape:flatsided="false"
         inkscape:rounded="0.18"
         inkscape:randomized="0"
         d="m 42.887579,240.97927 c -7.821028,7.82103 -8.101452,56.69789 -19.025882,58.42815 -10.92443,1.73026 -26.2949082,-44.66774 -36.149979,-49.68915 -9.855071,-5.02141 -56.426382,9.81567 -61.447792,-0.0394 -5.021409,-9.85507 34.355972,-38.81103 36.086232,-49.73546 1.73026,-10.92443 -26.77197,-50.63147 -18.950941,-58.4525 7.821028,-7.82103 47.5280661,20.6812 58.4524963,18.95094 10.9244307,-1.73026 39.8803947,-41.10764 49.7354657,-36.08623 9.855071,5.02141 -4.982011,51.59272 0.0394,61.44779 5.02141,9.85507 51.419413,25.22555 49.689153,36.14998 -1.730263,10.92443 -50.607122,11.20485 -58.428151,19.02588 z"
         transform="matrix(0.06823117,-0.03512174,0.03512174,0.06823117,109.0016,96.58421)" />
      <path
         sodipodi:type="star"
         style="fill:#ffd800;fill-opacity:1;fill-rule:nonzero;stroke:none"
         id="path3355"
         sodipodi:sides="5"
         sodipodi:cx="9.2855492"
         sodipodi:cy="207.37724"
         sodipodi:r1="47.520447"
         sodipodi:r2="93.177345"
         sodipodi:arg1="0.78539816"
         sodipodi:arg2="1.4137167"
         inkscape:flatsided="false"
         inkscape:rounded="0.18"
         inkscape:randomized="0"
         d="m 42.887579,240.97927 c -7.821028,7.82103 -8.101452,56.69789 -19.025882,58.42815 -10.92443,1.73026 -26.2949082,-44.66774 -36.149979,-49.68915 -9.855071,-5.02141 -56.426382,9.81567 -61.447792,-0.0394 -5.021409,-9.85507 34.355972,-38.81103 36.086232,-49.73546 1.73026,-10.92443 -26.77197,-50.63147 -18.950941,-58.4525 7.821028,-7.82103 47.5280661,20.6812 58.4524963,18.95094 10.9244307,-1.73026 39.8803947,-41.10764 49.7354657,-36.08623 9.855071,5.02141 -4.982011,51.59272 0.0394,61.44779 5.02141,9.85507 51.419413,25.22555 49.689153,36.14998 -1.730263,10.92443 -50.607122,11.20485 -58.428151,19.02588 z"
         transform="matrix(0.06823117,-0.03512174,0.03512174,0.06823117,128.2639,77.72885)" />
      <path
         style="font-size:85.8863678px;font-style:normal;font-variant:normal;font-weight:normal;font-stretch:normal;writing-mode:lr-tb;text-anchor:start;fill:#ffba00;fill-opacity:1;stroke:none;font-family:Trebuchet MS"
         d="m 88.322615,113.76632 c -0.260501,0.76636 -0.514924,1.55085 -0.78125,1.78125 l 0,7.9375 c 0.856319,-0.60044 1.731858,-1.2795 2.15625,-1.28125 0.532463,-0.002 1.75267,0.97892 2.78125,1.625 l 0,-8.15625 c -0.191748,-0.0339 -0.592883,0.006 -0.6875,-0.0625 -0.278566,-0.20063 -0.536094,-1.05215 -0.8125,-1.84375 l -2.65625,0 z"
         id="path4993" />
    </g>
  </g>
</svg>
