<?xml version="1.0" encoding="UTF-8" standalone="no"?>
<!-- Created with Inkscape (http://www.inkscape.org/) -->

<svg
   xmlns:dc="http://purl.org/dc/elements/1.1/"
   xmlns:cc="http://creativecommons.org/ns#"
   xmlns:rdf="http://www.w3.org/1999/02/22-rdf-syntax-ns#"
   xmlns:svg="http://www.w3.org/2000/svg"
   xmlns="http://www.w3.org/2000/svg"
   xmlns:sodipodi="http://sodipodi.sourceforge.net/DTD/sodipodi-0.dtd"
   xmlns:inkscape="http://www.inkscape.org/namespaces/inkscape"
   width="1417.3228"
   height="1417.3228"
   id="svg2840"
   version="1.1"
   inkscape:version="0.47 r22583"
   sodipodi:docname="logo_ognion_40x40.svg">
  <defs
     id="defs2842">
    <inkscape:perspective
       sodipodi:type="inkscape:persp3d"
       inkscape:vp_x="0 : 526.18109 : 1"
       inkscape:vp_y="0 : 1000 : 0"
       inkscape:vp_z="744.09448 : 526.18109 : 1"
       inkscape:persp3d-origin="372.04724 : 350.78739 : 1"
       id="perspective2848" />
    <inkscape:perspective
       id="perspective2858"
       inkscape:persp3d-origin="0.5 : 0.33333333 : 1"
       inkscape:vp_z="1 : 0.5 : 1"
       inkscape:vp_y="0 : 1000 : 0"
       inkscape:vp_x="0 : 0.5 : 1"
       sodipodi:type="inkscape:persp3d" />
  </defs>
  <sodipodi:namedview
     id="base"
     pagecolor="#ffffff"
     bordercolor="#666666"
     borderopacity="1.0"
     inkscape:pageopacity="0.0"
     inkscape:pageshadow="2"
     inkscape:zoom="0.35455254"
     inkscape:cx="375"
     inkscape:cy="616.9171"
     inkscape:document-units="px"
     inkscape:current-layer="layer2"
     showgrid="false"
     units="cm"
     inkscape:window-width="1440"
     inkscape:window-height="851"
     inkscape:window-x="-4"
     inkscape:window-y="-4"
     inkscape:window-maximized="1" />
  <metadata
     id="metadata2845">
    <rdf:RDF>
      <cc:Work
         rdf:about="">
        <dc:format>image/svg+xml</dc:format>
        <dc:type
           rdf:resource="http://purl.org/dc/dcmitype/StillImage" />
        <dc:title></dc:title>
      </cc:Work>
    </rdf:RDF>
  </metadata>
  <g
     inkscape:label="Calque 1"
     inkscape:groupmode="layer"
     id="layer1"
     transform="translate(0,364.96193)"
     sodipodi:insensitive="true" />
  <g
     inkscape:groupmode="layer"
     id="layer2"
     inkscape:label="ognion"
     sodipodi:insensitive="true">
    <g
       transform="matrix(15.847957,0,0,15.847957,35.433071,35.463104)"
       style="fill:#4c5e85;fill-rule:nonzero;stroke:none"
       id="g20">
      <path
         d="m 45.7383,73.6289 c -0.4317,0.0547 -0.6817,0.4638 -0.6817,0.8994 0,1.6953 1.2198,3.2363 2.625,3.582 0.4229,0.1045 0.8252,0.0723 1.0176,-0.3183 0.1944,-0.3907 -0.041,-0.8233 -0.4316,-1.0176 -0.9248,-0.458 -1.4356,-0.8867 -1.6465,-2.3506 -0.0625,-0.4316 -0.4502,-0.8516 -0.8828,-0.7949 z m -7.375,0.7949 c -0.2119,1.4639 -0.7227,1.8926 -1.6475,2.3506 -0.3896,0.1943 -0.625,0.6269 -0.4316,1.0176 0.1933,0.3906 0.5957,0.4228 1.0185,0.3183 1.4043,-0.3457 2.6241,-1.8867 2.6241,-3.582 0,-0.4356 -0.2491,-0.8447 -0.6817,-0.8994 -0.4316,-0.0567 -0.8193,0.3633 -0.8818,0.7949 z m 24.126,-25.1123 c 0,-5.9522 -3.5489,-13.2774 -13.4346,-21.2832 -1.7383,-1.4072 -3.0693,-3.1006 -3.5176,-5.0225 -0.0391,-0.1679 -0.0058,-0.4248 0.2139,-0.4795 0.2324,-0.0586 0.4092,0.085 0.5263,0.3125 1.1934,2.3272 2.0508,3.0801 3.9004,4.4561 5.9532,4.4267 17.0752,10.6396 17.0752,22.8262 0,9.4326 -8.2334,17.3808 -11.7529,19.1181 -0.4766,0.2354 -0.9697,0.3242 -1.1445,0.0069 -0.1797,-0.3282 0.0215,-0.6739 0.4795,-1.1465 4.2812,-4.419 7.6543,-9.8906 7.6543,-18.7881 z m -23.9278,0.2051 c 0,5.4648 0.3809,9.7441 3.2149,17.5058 0.8349,2.2803 1.6279,2.4805 2.2597,2.5655 1.1797,0.1572 2.25,0.498 3.2666,0.9658 1.0157,0.4687 1.9805,1.0654 2.9453,1.9629 0.2842,0.2617 0.5166,0.4004 0.7833,0.4228 0.2656,0.0215 0.5664,-0.0644 0.9882,-0.1709 C 61.2793,69.917 71.9854,62.6152 71.9854,48.9336 71.9854,30 45.3047,26.9648 45.1563,16.2246 c -0.0479,-3.5117 0.7089,-4.8623 0.8613,-5.3584 0.0576,-0.1905 -0.0137,-0.3545 -0.1494,-0.4033 -0.1895,-0.0694 -0.3106,0.0615 -0.3731,0.1689 -0.2441,0.4199 -0.3711,0.8623 -1.0381,0.625 -0.5351,-0.1914 -0.7109,-2.06437 -0.915,-2.63477 -0.0762,-0.2119 -0.2041,-0.3095 -0.3701,-0.2724 -0.168,0.0381 -0.2647,0.1826 -0.2305,0.3838 0.0918,0.5185 0.9111,3.54777 0.9111,7.68157 0,17.2305 -5.291,22.8857 -5.291,33.1016 z M 42.042,12.5888 C 41.8936,7.91213 41.5908,3.8584 41.5264,3.00976 41.502,2.65527 41.1904,2.51465 40.9883,2.52636 c -0.209,0.0127 -0.4922,0.17774 -0.4737,0.51758 0.129,3.03129 0.4151,7.62596 0.3165,11.94036 -0.0625,2.6944 -0.4297,5.0762 -0.7549,6.4366 -2.627,10.9804 -13.834,15.3418 -14.293,27.0703 -0.207,5.3135 0.7656,13.7842 11.9385,21.5088 0.3818,0.2646 0.9824,0.5019 1.3779,0.1211 0.2627,-0.2539 0.4307,-0.6787 -0.1289,-1.4854 C 35.2744,63.3203 31.335,57.831 31.335,49.8408 c 0,-7.4317 2.9443,-11.7432 5.7802,-16.3633 2.3936,-3.9004 5.1485,-8.1748 4.9922,-16.9687 -0.0244,-1.3262 -0.0224,-2.5469 -0.0654,-3.92 z M 18.293,48.5556 C 18.9756,36.456 34.71,26.8027 38.0742,20.1289 c 1.125,-2.2315 1.4873,-3.4307 1.4873,-7.1143 0,-1.7373 -0.3193,-5.61327 -0.3408,-5.91797 -0.0293,-0.3964 -0.2939,-0.5185 -0.5215,-0.5039 -0.2324,0.0147 -0.5029,0.1612 -0.4844,0.5411 0.0196,0.3818 0.25,3.89447 0.2413,6.31637 -0.0098,2.8476 -0.7891,4.0478 -0.9463,4.4687 -3.3155,8.8067 -24.7139,13.46 -24.7139,31.0147 0,14.1171 11.6543,21.4795 21.0898,23.9453 0.3975,0.1025 0.8018,0.0224 0.9561,-0.3311 C 35.001,72.1884 34.8076,71.7675 34.458,71.6113 23.6572,66.0019 17.7412,58.33 18.293,48.5556 z m 24.25,30.7774 c 0.4716,0 0.7968,-0.3838 0.7968,-0.8545 0,0 0.0577,-4.9072 0.0577,-4.9072 0,-0.4698 -0.3829,-0.8526 -0.8545,-0.8526 -0.4707,0 -0.8535,0.3828 -0.8535,0.8526 0,0 0.0566,4.9072 0.0566,4.9072 0,0.4707 0.3262,0.8545 0.7969,0.8545 z M 84.9609,42.4765 C 84.9609,65.9404 65.9414,84.959 42.4805,84.959 19.0195,84.959 0,65.9404 0,42.4765 0,19.0156 19.0195,0 42.4805,0 65.9414,0 84.9609,19.0156 84.9609,42.4765 z"
         id="path22" />
    </g>
  </g>
</svg>
