<?xml version="1.0" encoding="UTF-8" standalone="no"?>
<!-- Created with Inkscape (http://www.inkscape.org/) -->

<svg
   xmlns:dc="http://purl.org/dc/elements/1.1/"
   xmlns:cc="http://creativecommons.org/ns#"
   xmlns:rdf="http://www.w3.org/1999/02/22-rdf-syntax-ns#"
   xmlns:svg="http://www.w3.org/2000/svg"
   xmlns="http://www.w3.org/2000/svg"
   xmlns:xlink="http://www.w3.org/1999/xlink"
   xmlns:sodipodi="http://sodipodi.sourceforge.net/DTD/sodipodi-0.dtd"
   xmlns:inkscape="http://www.inkscape.org/namespaces/inkscape"
   width="200"
   height="45"
   id="svg2823"
   version="1.1"
   inkscape:version="0.47 r22583"
   sodipodi:docname="hackcendo-logotype.svg">
  <defs
     id="defs2825">
    <linearGradient
       id="linearGradient3800">
      <stop
         style="stop-color:#cc0000;stop-opacity:1;"
         offset="0"
         id="stop3802" />
      <stop
         id="stop3808"
         offset="0.64999998"
         style="stop-color:#fcaf3e;stop-opacity:1;" />
      <stop
         style="stop-color:#fce94f;stop-opacity:1;"
         offset="1"
         id="stop3804" />
    </linearGradient>
    <inkscape:perspective
       sodipodi:type="inkscape:persp3d"
       inkscape:vp_x="0 : 526.18109 : 1"
       inkscape:vp_y="0 : 1000 : 0"
       inkscape:vp_z="744.09448 : 526.18109 : 1"
       inkscape:persp3d-origin="372.04724 : 350.78739 : 1"
       id="perspective2831" />
    <clipPath
       clipPathUnits="userSpaceOnUse"
       id="clipPath3730">
      <g
         style="font-size:35.97122192px;font-style:normal;font-variant:normal;font-weight:normal;font-stretch:normal;text-align:start;line-height:100%;writing-mode:lr-tb;text-anchor:start;fill:#ef2929;fill-opacity:1;stroke:none;font-family:Junction;-inkscape-font-specification:Junction"
         id="g3732">
        <path
           d="m 3.8146973e-8,1051.8586 0,-29.4964 3.021582661853027,0 0,13.5252 c 0.5515521,-0.5275 1.1510719,-1.0431 1.7985611,-1.5467 0.6714543,-0.5276 1.3788876,-0.9832 2.1223021,-1.3669 0.7433945,-0.4077 1.5107798,-0.7314 2.3021582,-0.9713 0.7913539,-0.2398 1.5947099,-0.3597 2.4100719,-0.3597 1.630679,0 2.793747,0.5516 3.489208,1.6547 0.719406,1.1031 1.079118,2.6019 1.079137,4.4964 l 0,14.0647 -3.021583,0 0,-14.0647 c -1.6e-5,-0.9832 -0.11992,-1.7506 -0.359712,-2.3022 -0.239824,-0.5515 -0.635507,-0.8273 -1.18705,-0.8273 -0.935266,0 -1.8345452,0.1679 -2.6978417,0.5036 -0.8633204,0.3118 -1.6666769,0.7194 -2.4100719,1.223 -0.743414,0.4796 -1.4148762,0.9952 -2.0143884,1.5468 -0.5995273,0.5276 -1.1031239,1.0072 -1.5107913,1.4388 l 0,12.482 -3.021582661853026,0"
           id="path3734" />
        <path
           d="m 22.644446,1037.2184 c -4e-6,0 -0.07195,-0.1199 -0.215827,-0.3598 -0.119908,-0.2637 -0.251802,-0.5395 -0.395684,-0.8273 -0.143888,-0.3117 -0.275782,-0.5875 -0.395683,-0.8273 -0.119907,-0.2638 -0.179859,-0.4077 -0.179856,-0.4317 0.311747,-0.1678 0.791363,-0.4316 1.438849,-0.7914 0.671457,-0.3596 1.438843,-0.7074 2.302158,-1.0431 0.863302,-0.3357 1.786562,-0.6355 2.769784,-0.8993 0.983203,-0.2638 1.978406,-0.3957 2.985611,-0.3957 1.031162,0 1.858499,0.2159 2.482015,0.6475 0.623485,0.4077 1.103101,0.9113 1.438848,1.5108 0.359696,0.5755 0.587514,1.199 0.683454,1.8705 0.119887,0.6475 0.179839,1.199 0.179856,1.6547 l 0,10.6475 c -1.7e-5,0.048 -1.7e-5,0.1558 0,0.3237 0.02396,0.1679 0.09591,0.3837 0.215827,0.6475 0.119887,0.2398 0.311733,0.5036 0.57554,0.7913 0.263771,0.2638 0.647463,0.5156 1.151079,0.7554 l -1.942446,1.7986 c -0.863326,-0.3357 -1.498817,-0.7794 -1.906475,-1.3309 -0.407689,-0.5516 -0.695458,-1.1391 -0.863309,-1.7626 -0.863323,0.9112 -1.870516,1.6546 -3.021583,2.2302 -1.151089,0.5755 -2.39809,0.8633 -3.741007,0.8633 -0.191854,0 -0.599527,-0.048 -1.223022,-0.1439 -0.599526,-0.096 -1.223026,-0.3237 -1.870503,-0.6834 -0.647486,-0.3598 -1.223025,-0.8993 -1.726619,-1.6187 -0.503599,-0.7195 -0.755397,-1.7027 -0.755395,-2.9497 -2e-6,-0.6475 0.08393,-1.2949 0.251798,-1.9424 0.167863,-0.6715 0.503595,-1.307 1.007194,-1.9065 0.527575,-0.5995 1.258989,-1.1271 2.194245,-1.5827 0.935245,-0.4796 2.158266,-0.8274 3.669065,-1.0432 1.318934,-0.1918 2.374089,-0.3477 3.165467,-0.4676 0.791354,-0.1199 1.402864,-0.2398 1.834532,-0.3597 l 0,-2.2662 c -1.4e-5,-0.1919 -0.02399,-0.4437 -0.07194,-0.7554 -0.02399,-0.3357 -0.119918,-0.6595 -0.28777,-0.9712 -0.143898,-0.3118 -0.371716,-0.5756 -0.683453,-0.7914 -0.287783,-0.2398 -0.683466,-0.3597 -1.18705,-0.3597 -0.503609,0 -1.055167,0.072 -1.654677,0.2158 -0.575549,0.1439 -1.163078,0.3238 -1.762589,0.5396 -0.575548,0.1918 -1.139096,0.4077 -1.690648,0.6474 -0.527584,0.2399 -0.995209,0.4677 -1.402878,0.6835 -0.407678,0.1919 -0.743409,0.3597 -1.007194,0.5036 -0.239812,0.1199 -0.359716,0.1799 -0.359712,0.1799 m 3.453237,12.5539 c 0.623493,0.048 1.246994,-0.012 1.870504,-0.1798 0.647472,-0.1919 1.258982,-0.4437 1.834532,-0.7554 0.599509,-0.3118 1.151067,-0.6715 1.654676,-1.0792 0.503584,-0.4316 0.935238,-0.8753 1.294964,-1.3309 l 0,-4.2446 c -0.551572,0.1199 -1.175072,0.2278 -1.870503,0.3237 -0.695455,0.096 -1.630706,0.2398 -2.805755,0.4317 -0.983222,0.1439 -1.774588,0.3597 -2.374101,0.6475 -0.575546,0.2638 -1.031181,0.5755 -1.366907,0.9352 -0.311756,0.3597 -0.515592,0.7434 -0.61151,1.1511 -0.09593,0.4077 -0.14389,0.8153 -0.143885,1.223 -5e-6,0.6235 0.107908,1.1271 0.323741,1.5108 0.215822,0.3597 0.45563,0.6475 0.719424,0.8633 0.287764,0.1919 0.563543,0.3238 0.827338,0.3957 0.287763,0.072 0.50359,0.1079 0.647482,0.1079"
           id="path3736" />
        <path
           d="m 49.35308,1031.6428 c 1.007183,0 1.894472,0.1679 2.661871,0.5036 0.767372,0.3118 1.402863,0.6715 1.906474,1.0791 0.599505,0.4557 1.103102,0.9833 1.510792,1.5828 l -1.906475,1.7985 c -0.263803,-0.4076 -0.599534,-0.7793 -1.007194,-1.1151 -0.335745,-0.2877 -0.767399,-0.5515 -1.294964,-0.7913 -0.52759,-0.2398 -1.175071,-0.3597 -1.942446,-0.3597 -0.623511,0 -1.259002,0.1678 -1.906475,0.5036 -0.623509,0.3117 -1.199048,0.8033 -1.726619,1.4748 -0.527584,0.6475 -0.959238,1.4748 -1.294964,2.482 -0.311755,1.0072 -0.467631,2.1823 -0.467626,3.5252 -5e-6,0.9832 0.119899,1.9184 0.359713,2.8057 0.263783,0.8873 0.611505,1.6667 1.043165,2.3382 0.455629,0.6714 1.007187,1.199 1.654676,1.5827 0.647474,0.3837 1.366897,0.5755 2.158274,0.5755 0.359701,0 0.707423,-0.024 1.043165,-0.072 0.359701,-0.048 0.719413,-0.1439 1.079137,-0.2878 0.38368,-0.1678 0.791354,-0.3957 1.223021,-0.6834 0.455622,-0.3118 0.947228,-0.7195 1.47482,-1.2231 l 1.870504,1.7986 c -0.719441,0.7194 -1.390903,1.295 -2.014389,1.7266 -0.599534,0.4077 -1.175073,0.7194 -1.726618,0.9353 -0.527591,0.2158 -1.043178,0.3477 -1.546763,0.3957 -0.479627,0.048 -0.947253,0.072 -1.402877,0.072 -1.247012,0 -2.374109,-0.2518 -3.381295,-0.7554 -1.0072,-0.5276 -1.870509,-1.235 -2.589928,-2.1223 -0.719428,-0.8873 -1.282977,-1.9305 -1.690648,-3.1295 -0.383695,-1.223 -0.575541,-2.542 -0.575539,-3.9568 -2e-6,-1.8705 0.263787,-3.4772 0.791367,-4.8202 0.527574,-1.3429 1.199036,-2.446 2.014388,-3.3093 0.815342,-0.8633 1.726612,-1.4988 2.733813,-1.9065 1.007186,-0.4316 1.990398,-0.6475 2.94964,-0.6475"
           id="path3738" />
        <path
           d="m 73.590935,1051.8586 c -0.167882,-0.048 -0.431671,-0.2278 -0.791367,-0.5395 -0.335746,-0.3358 -0.73143,-0.7434 -1.18705,-1.223 -0.45565,-0.5036 -0.947256,-1.0552 -1.47482,-1.6547 -0.527591,-0.5995 -1.055168,-1.1991 -1.582734,-1.7986 -0.503608,-0.5995 -0.995214,-1.175 -1.47482,-1.7266 -0.479626,-0.5516 -0.89929,-1.0312 -1.258993,-1.4389 -0.35972,-0.3836 -0.671471,-0.6714 -0.935252,-0.8633 -0.263796,-0.2158 -0.527585,-0.3597 -0.791366,-0.4316 -0.143892,-0.048 -0.311758,-0.06 -0.503598,-0.036 -0.167872,0.024 -0.287775,0.048 -0.359712,0.072 l 0,9.6402 -3.021582,0 0,-29.4964 3.021582,0 0,16.6907 c 0.04796,-0.048 0.251792,-0.1918 0.611511,-0.4317 0.359705,-0.2398 0.791359,-0.5395 1.294964,-0.8992 0.527569,-0.3837 1.091118,-0.8154 1.690647,-1.295 0.599511,-0.4796 1.175049,-0.9712 1.726619,-1.4748 0.575528,-0.5036 1.091115,-0.9952 1.546763,-1.4749 0.455622,-0.5035 0.791353,-0.9712 1.007194,-1.4028 l 3.057554,0 c -0.143902,0.5036 -0.503614,1.1031 -1.079137,1.7985 -0.575555,0.6955 -1.270998,1.4149 -2.086331,2.1583 -0.79138,0.7194 -1.642698,1.4389 -2.553957,2.1583 -0.8873,0.7194 -1.714637,1.3669 -2.482014,1.9424 0.335722,0.1199 0.671453,0.2998 1.007194,0.5396 0.335722,0.2158 0.671453,0.5036 1.007194,0.8633 0.383682,0.4556 0.875289,1.0312 1.474821,1.7266 0.623488,0.6955 1.270969,1.4269 1.942446,2.1943 0.695428,0.7674 1.390871,1.5347 2.08633,2.3021 0.695427,0.7434 1.330918,1.4269 1.906475,2.0504 0.599502,0.5995 1.103098,1.0911 1.510792,1.4748 0.407653,0.3837 0.659452,0.5755 0.755395,0.5755 l -4.064748,0"
           id="path3740" />
        <path
           d="m 87.010452,1031.6428 c 1.007182,0 1.894472,0.1679 2.66187,0.5036 0.767372,0.3118 1.402863,0.6715 1.906475,1.0791 0.599505,0.4557 1.103101,0.9833 1.510791,1.5828 l -1.906475,1.7985 c -0.263803,-0.4076 -0.599534,-0.7793 -1.007194,-1.1151 -0.335744,-0.2877 -0.767399,-0.5515 -1.294964,-0.7913 -0.527589,-0.2398 -1.175071,-0.3597 -1.942446,-0.3597 -0.623511,0 -1.259002,0.1678 -1.906475,0.5036 -0.623509,0.3117 -1.199047,0.8033 -1.726618,1.4748 -0.527584,0.6475 -0.959239,1.4748 -1.294964,2.482 -0.311756,1.0072 -0.467631,2.1823 -0.467626,3.5252 -5e-6,0.9832 0.119899,1.9184 0.359712,2.8057 0.263784,0.8873 0.611505,1.6667 1.043166,2.3382 0.455628,0.6714 1.007186,1.199 1.654676,1.5827 0.647473,0.3837 1.366897,0.5755 2.158273,0.5755 0.359702,0 0.707423,-0.024 1.043166,-0.072 0.3597,-0.048 0.719412,-0.1439 1.079136,-0.2878 0.383681,-0.1678 0.791354,-0.3957 1.223022,-0.6834 0.455621,-0.3118 0.947227,-0.7195 1.47482,-1.2231 l 1.870503,1.7986 c -0.71944,0.7194 -1.390902,1.295 -2.014388,1.7266 -0.599535,0.4077 -1.175074,0.7194 -1.726619,0.9353 -0.52759,0.2158 -1.043177,0.3477 -1.546762,0.3957 -0.479628,0.048 -0.947253,0.072 -1.402878,0.072 -1.247011,0 -2.374108,-0.2518 -3.381295,-0.7554 -1.0072,-0.5276 -1.870508,-1.235 -2.589928,-2.1223 -0.719428,-0.8873 -1.282976,-1.9305 -1.690647,-3.1295 -0.383695,-1.223 -0.575542,-2.542 -0.57554,-3.9568 -2e-6,-1.8705 0.263787,-3.4772 0.791367,-4.8202 0.527575,-1.3429 1.199037,-2.446 2.014389,-3.3093 0.815342,-0.8633 1.726612,-1.4988 2.733813,-1.9065 1.007185,-0.4316 1.990398,-0.6475 2.94964,-0.6475"
           id="path3742" />
        <path
           d="m 96.787883,1042.1824 c -2e-6,-1.4389 0.191844,-2.7938 0.57554,-4.0648 0.407671,-1.2949 0.983209,-2.41 1.726618,-3.3453 0.743401,-0.9592 1.630689,-1.7146 2.661869,-2.2662 1.05515,-0.5755 2.23021,-0.8633 3.52518,-0.8633 1.22301,0 2.26618,0.1919 3.1295,0.5756 0.88727,0.3597 1.61869,0.8273 2.19424,1.4028 0.59951,0.5516 1.06713,1.1751 1.40288,1.8705 0.35969,0.6955 0.63547,1.3789 0.82734,2.0504 0.19183,0.6475 0.31173,1.235 0.35971,1.7626 0.0479,0.5036 0.0719,0.8753 0.0719,1.1151 l 0,1.4029 -13.489206,0 c -0.04797,1.175 0.03597,2.2422 0.251796,3.2014 0.23981,0.9592 0.59952,1.7866 1.07914,2.482 0.47961,0.6955 1.07913,1.235 1.79856,1.6187 0.71942,0.3837 1.55874,0.5756 2.51799,0.5756 0.26377,0 0.59951,-0.012 1.00719,-0.036 0.40766,-0.024 0.87529,-0.1439 1.40288,-0.3597 0.52756,-0.2158 1.1031,-0.5516 1.72662,-1.0072 0.62348,-0.4796 1.28295,-1.1751 1.97841,-2.0863 l 1.83454,1.7626 c -0.91129,1.1271 -1.76261,1.9904 -2.55396,2.5899 -0.79138,0.5755 -1.53479,0.9952 -2.23022,1.259 -0.67147,0.2398 -1.28298,0.3717 -1.83453,0.3957 -0.52759,0.048 -0.97123,0.072 -1.33093,0.072 -1.43886,0 -2.69785,-0.2638 -3.77698,-0.7914 -1.07914,-0.5515 -1.978424,-1.2829 -2.697844,-2.1942 -0.719427,-0.9353 -1.258995,-2.0144 -1.618705,-3.2374 -0.359714,-1.223 -0.53957,-2.518 -0.539568,-3.8849 m 8.489207,-7.9497 c -0.67147,10e-5 -1.28298,0.132 -1.83453,0.3957 -0.52759,0.2399 -1.0072,0.5876 -1.43885,1.0432 -0.40768,0.4317 -0.76739,0.9473 -1.07914,1.5468 -0.31175,0.5995 -0.56355,1.247 -0.75539,1.9424 l 10.03597,0 c -0.072,-0.5036 -0.21584,-1.0432 -0.43166,-1.6187 -0.21584,-0.5755 -0.5156,-1.1031 -0.89928,-1.5827 -0.3837,-0.5036 -0.87531,-0.9113 -1.47482,-1.2231 -0.57555,-0.3357 -1.28298,-0.5035 -2.1223,-0.5036"
           id="path3744" />
        <path
           d="m 118.59262,1051.8586 0,-19.7841 3.02158,0 0,3.8129 c 0.55156,-0.5275 1.15108,-1.0431 1.79856,-1.5467 0.67146,-0.5276 1.37889,-0.9832 2.12231,-1.3669 0.74339,-0.4077 1.51078,-0.7314 2.30215,-0.9713 0.79136,-0.2398 1.59472,-0.3597 2.41008,-0.3597 1.63068,0 2.79374,0.5516 3.48921,1.6547 0.7194,1.1031 1.07911,2.6019 1.07913,4.4964 l 0,14.0647 -3.02158,0 0,-14.0647 c -2e-5,-0.9832 -0.11992,-1.7506 -0.35971,-2.3022 -0.23983,-0.5515 -0.63551,-0.8273 -1.18705,-0.8273 -0.91129,0 -1.78659,0.1559 -2.6259,0.4676 -0.81536,0.3118 -1.59474,0.7075 -2.33813,1.1871 -0.71944,0.4556 -1.3909,0.9592 -2.01439,1.5108 -0.62351,0.5515 -1.17507,1.0671 -1.65468,1.5467 l 0,12.482 -3.02158,0"
           id="path3746" />
        <path
           d="m 146.41693,1052.1464 c -1.10313,0 -2.09833,-0.2638 -2.98561,-0.7914 -0.8873,-0.5515 -1.6427,-1.2829 -2.26619,-2.1942 -0.62351,-0.9113 -1.10312,-1.9544 -1.43885,-3.1295 -0.33573,-1.199 -0.5036,-2.446 -0.5036,-3.741 0,-3.3813 0.7434,-5.9952 2.23022,-7.8417 1.51078,-1.8705 3.56114,-2.8058 6.15108,-2.8058 0.9832,0 1.99039,0.2398 3.02158,0.7194 1.05514,0.4557 2.09831,1.1272 3.1295,2.0144 l 0,-12.0144 3.02158,0 0,24.7482 c -0.024,0.4797 0.036,0.9353 0.17985,1.3669 0.11989,0.3598 0.32373,0.7315 0.61152,1.1152 0.28774,0.3597 0.7194,0.6354 1.29496,0.8273 l -1.90648,1.9424 c -0.62352,-0.2158 -1.12711,-0.4796 -1.51079,-0.7913 -0.35973,-0.3358 -0.6475,-0.6835 -0.86331,-1.0432 -0.21584,-0.3597 -0.37172,-0.7074 -0.46762,-1.0432 -0.0959,-0.3597 -0.15589,-0.6834 -0.17986,-0.9712 -0.95925,1.0792 -2.06236,1.9664 -3.30935,2.6619 -1.24701,0.6715 -2.64989,0.9952 -4.20863,0.9712 m 0,-2.9137 c 0.95922,0.072 1.82253,-0.048 2.58992,-0.3597 0.76738,-0.3117 1.45083,-0.7194 2.05036,-1.223 0.62349,-0.5036 1.15107,-1.0432 1.58274,-1.6187 0.45562,-0.5995 0.82732,-1.1271 1.11511,-1.5827 l 0,-6.5828 c -1.00721,-0.9832 -2.05038,-1.7745 -3.1295,-2.3741 -1.07915,-0.5995 -2.08634,-0.8992 -3.02158,-0.8992 -1.60673,0 -2.8897,0.6714 -3.84892,2.0143 -0.95924,1.343 -1.43886,3.2375 -1.43885,5.6835 -1e-5,0.9113 0.0959,1.7746 0.28777,2.5899 0.19184,0.8154 0.46762,1.5468 0.82734,2.1943 0.3597,0.6235 0.79136,1.1271 1.29496,1.5108 0.50359,0.3837 1.06714,0.5995 1.69065,0.6474"
           id="path3748" />
        <path
           d="m 162.19648,1041.9666 c 0,-1.8945 0.23981,-3.4892 0.71943,-4.7842 0.50359,-1.3189 1.15107,-2.3861 1.94244,-3.2015 0.81535,-0.8153 1.73861,-1.4028 2.76979,-1.7625 1.03116,-0.3837 2.08632,-0.5756 3.16546,-0.5756 1.07913,0 2.13428,0.1919 3.16547,0.5756 1.03116,0.3597 1.94243,0.9472 2.73382,1.7625 0.81533,0.8154 1.46281,1.8826 1.94244,3.2015 0.50358,1.3189 0.75538,2.9137 0.7554,4.7842 -2e-5,1.9184 -0.25182,3.5371 -0.7554,4.8561 -0.47963,1.2949 -1.12711,2.3501 -1.94244,3.1654 -0.79139,0.8154 -1.70266,1.4029 -2.73382,1.7626 -1.03119,0.3597 -2.08634,0.5396 -3.16547,0.5396 -1.07914,0 -2.1343,-0.1679 -3.16546,-0.5036 -1.03118,-0.3597 -1.95444,-0.9353 -2.76979,-1.7266 -0.79137,-0.8154 -1.43885,-1.8825 -1.94244,-3.2015 -0.47962,-1.3189 -0.71943,-2.9496 -0.71943,-4.892 m 14.17266,0 c -10e-6,-1.3909 -0.16788,-2.578 -0.50359,-3.5612 -0.31177,-1.0072 -0.73143,-1.8225 -1.259,-2.446 -0.52759,-0.6235 -1.12711,-1.0792 -1.79856,-1.3669 -0.67147,-0.3118 -1.34293,-0.4677 -2.01439,-0.4677 -0.69545,0 -1.3789,0.1439 -2.05035,0.4317 -0.64749,0.2638 -1.23502,0.7074 -1.76259,1.3309 -0.52759,0.6235 -0.95924,1.4389 -1.29497,2.4461 -0.31175,0.9832 -0.46763,2.1942 -0.46762,3.6331 -1e-5,1.4148 0.15587,2.6259 0.46762,3.633 0.33573,1.0072 0.76738,1.8226 1.29497,2.4461 0.52757,0.6235 1.1151,1.0791 1.76259,1.3669 0.67145,0.2878 1.3549,0.4317 2.05035,0.4317 0.67146,0 1.34292,-0.1319 2.01439,-0.3957 0.67145,-0.2878 1.27097,-0.7434 1.79856,-1.3669 0.52757,-0.6235 0.94723,-1.4389 1.259,-2.4461 0.33571,-1.0072 0.50358,-2.2302 0.50359,-3.669"
           id="path3750" />
      </g>
    </clipPath>
    <clipPath
       clipPathUnits="userSpaceOnUse"
       id="clipPath3752">
      <g
         style="font-size:35.97122192px;font-style:normal;font-variant:normal;font-weight:normal;font-stretch:normal;text-align:start;line-height:100%;writing-mode:lr-tb;text-anchor:start;fill:#ef2929;fill-opacity:1;stroke:none;font-family:Junction;-inkscape-font-specification:Junction"
         id="g3754">
        <path
           d="m 3.8146973e-8,1051.8586 0,-29.4964 3.021582661853027,0 0,13.5252 c 0.5515521,-0.5275 1.1510719,-1.0431 1.7985611,-1.5467 0.6714543,-0.5276 1.3788876,-0.9832 2.1223021,-1.3669 0.7433945,-0.4077 1.5107798,-0.7314 2.3021582,-0.9713 0.7913539,-0.2398 1.5947099,-0.3597 2.4100719,-0.3597 1.630679,0 2.793747,0.5516 3.489208,1.6547 0.719406,1.1031 1.079118,2.6019 1.079137,4.4964 l 0,14.0647 -3.021583,0 0,-14.0647 c -1.6e-5,-0.9832 -0.11992,-1.7506 -0.359712,-2.3022 -0.239824,-0.5515 -0.635507,-0.8273 -1.18705,-0.8273 -0.935266,0 -1.8345452,0.1679 -2.6978417,0.5036 -0.8633204,0.3118 -1.6666769,0.7194 -2.4100719,1.223 -0.743414,0.4796 -1.4148762,0.9952 -2.0143884,1.5468 -0.5995273,0.5276 -1.1031239,1.0072 -1.5107913,1.4388 l 0,12.482 -3.021582661853026,0"
           id="path3756" />
        <path
           d="m 22.644446,1037.2184 c -4e-6,0 -0.07195,-0.1199 -0.215827,-0.3598 -0.119908,-0.2637 -0.251802,-0.5395 -0.395684,-0.8273 -0.143888,-0.3117 -0.275782,-0.5875 -0.395683,-0.8273 -0.119907,-0.2638 -0.179859,-0.4077 -0.179856,-0.4317 0.311747,-0.1678 0.791363,-0.4316 1.438849,-0.7914 0.671457,-0.3596 1.438843,-0.7074 2.302158,-1.0431 0.863302,-0.3357 1.786562,-0.6355 2.769784,-0.8993 0.983203,-0.2638 1.978406,-0.3957 2.985611,-0.3957 1.031162,0 1.858499,0.2159 2.482015,0.6475 0.623485,0.4077 1.103101,0.9113 1.438848,1.5108 0.359696,0.5755 0.587514,1.199 0.683454,1.8705 0.119887,0.6475 0.179839,1.199 0.179856,1.6547 l 0,10.6475 c -1.7e-5,0.048 -1.7e-5,0.1558 0,0.3237 0.02396,0.1679 0.09591,0.3837 0.215827,0.6475 0.119887,0.2398 0.311733,0.5036 0.57554,0.7913 0.263771,0.2638 0.647463,0.5156 1.151079,0.7554 l -1.942446,1.7986 c -0.863326,-0.3357 -1.498817,-0.7794 -1.906475,-1.3309 -0.407689,-0.5516 -0.695458,-1.1391 -0.863309,-1.7626 -0.863323,0.9112 -1.870516,1.6546 -3.021583,2.2302 -1.151089,0.5755 -2.39809,0.8633 -3.741007,0.8633 -0.191854,0 -0.599527,-0.048 -1.223022,-0.1439 -0.599526,-0.096 -1.223026,-0.3237 -1.870503,-0.6834 -0.647486,-0.3598 -1.223025,-0.8993 -1.726619,-1.6187 -0.503599,-0.7195 -0.755397,-1.7027 -0.755395,-2.9497 -2e-6,-0.6475 0.08393,-1.2949 0.251798,-1.9424 0.167863,-0.6715 0.503595,-1.307 1.007194,-1.9065 0.527575,-0.5995 1.258989,-1.1271 2.194245,-1.5827 0.935245,-0.4796 2.158266,-0.8274 3.669065,-1.0432 1.318934,-0.1918 2.374089,-0.3477 3.165467,-0.4676 0.791354,-0.1199 1.402864,-0.2398 1.834532,-0.3597 l 0,-2.2662 c -1.4e-5,-0.1919 -0.02399,-0.4437 -0.07194,-0.7554 -0.02399,-0.3357 -0.119918,-0.6595 -0.28777,-0.9712 -0.143898,-0.3118 -0.371716,-0.5756 -0.683453,-0.7914 -0.287783,-0.2398 -0.683466,-0.3597 -1.18705,-0.3597 -0.503609,0 -1.055167,0.072 -1.654677,0.2158 -0.575549,0.1439 -1.163078,0.3238 -1.762589,0.5396 -0.575548,0.1918 -1.139096,0.4077 -1.690648,0.6474 -0.527584,0.2399 -0.995209,0.4677 -1.402878,0.6835 -0.407678,0.1919 -0.743409,0.3597 -1.007194,0.5036 -0.239812,0.1199 -0.359716,0.1799 -0.359712,0.1799 m 3.453237,12.5539 c 0.623493,0.048 1.246994,-0.012 1.870504,-0.1798 0.647472,-0.1919 1.258982,-0.4437 1.834532,-0.7554 0.599509,-0.3118 1.151067,-0.6715 1.654676,-1.0792 0.503584,-0.4316 0.935238,-0.8753 1.294964,-1.3309 l 0,-4.2446 c -0.551572,0.1199 -1.175072,0.2278 -1.870503,0.3237 -0.695455,0.096 -1.630706,0.2398 -2.805755,0.4317 -0.983222,0.1439 -1.774588,0.3597 -2.374101,0.6475 -0.575546,0.2638 -1.031181,0.5755 -1.366907,0.9352 -0.311756,0.3597 -0.515592,0.7434 -0.61151,1.1511 -0.09593,0.4077 -0.14389,0.8153 -0.143885,1.223 -5e-6,0.6235 0.107908,1.1271 0.323741,1.5108 0.215822,0.3597 0.45563,0.6475 0.719424,0.8633 0.287764,0.1919 0.563543,0.3238 0.827338,0.3957 0.287763,0.072 0.50359,0.1079 0.647482,0.1079"
           id="path3758" />
        <path
           d="m 49.35308,1031.6428 c 1.007183,0 1.894472,0.1679 2.661871,0.5036 0.767372,0.3118 1.402863,0.6715 1.906474,1.0791 0.599505,0.4557 1.103102,0.9833 1.510792,1.5828 l -1.906475,1.7985 c -0.263803,-0.4076 -0.599534,-0.7793 -1.007194,-1.1151 -0.335745,-0.2877 -0.767399,-0.5515 -1.294964,-0.7913 -0.52759,-0.2398 -1.175071,-0.3597 -1.942446,-0.3597 -0.623511,0 -1.259002,0.1678 -1.906475,0.5036 -0.623509,0.3117 -1.199048,0.8033 -1.726619,1.4748 -0.527584,0.6475 -0.959238,1.4748 -1.294964,2.482 -0.311755,1.0072 -0.467631,2.1823 -0.467626,3.5252 -5e-6,0.9832 0.119899,1.9184 0.359713,2.8057 0.263783,0.8873 0.611505,1.6667 1.043165,2.3382 0.455629,0.6714 1.007187,1.199 1.654676,1.5827 0.647474,0.3837 1.366897,0.5755 2.158274,0.5755 0.359701,0 0.707423,-0.024 1.043165,-0.072 0.359701,-0.048 0.719413,-0.1439 1.079137,-0.2878 0.38368,-0.1678 0.791354,-0.3957 1.223021,-0.6834 0.455622,-0.3118 0.947228,-0.7195 1.47482,-1.2231 l 1.870504,1.7986 c -0.719441,0.7194 -1.390903,1.295 -2.014389,1.7266 -0.599534,0.4077 -1.175073,0.7194 -1.726618,0.9353 -0.527591,0.2158 -1.043178,0.3477 -1.546763,0.3957 -0.479627,0.048 -0.947253,0.072 -1.402877,0.072 -1.247012,0 -2.374109,-0.2518 -3.381295,-0.7554 -1.0072,-0.5276 -1.870509,-1.235 -2.589928,-2.1223 -0.719428,-0.8873 -1.282977,-1.9305 -1.690648,-3.1295 -0.383695,-1.223 -0.575541,-2.542 -0.575539,-3.9568 -2e-6,-1.8705 0.263787,-3.4772 0.791367,-4.8202 0.527574,-1.3429 1.199036,-2.446 2.014388,-3.3093 0.815342,-0.8633 1.726612,-1.4988 2.733813,-1.9065 1.007186,-0.4316 1.990398,-0.6475 2.94964,-0.6475"
           id="path3760" />
        <path
           d="m 73.590935,1051.8586 c -0.167882,-0.048 -0.431671,-0.2278 -0.791367,-0.5395 -0.335746,-0.3358 -0.73143,-0.7434 -1.18705,-1.223 -0.45565,-0.5036 -0.947256,-1.0552 -1.47482,-1.6547 -0.527591,-0.5995 -1.055168,-1.1991 -1.582734,-1.7986 -0.503608,-0.5995 -0.995214,-1.175 -1.47482,-1.7266 -0.479626,-0.5516 -0.89929,-1.0312 -1.258993,-1.4389 -0.35972,-0.3836 -0.671471,-0.6714 -0.935252,-0.8633 -0.263796,-0.2158 -0.527585,-0.3597 -0.791366,-0.4316 -0.143892,-0.048 -0.311758,-0.06 -0.503598,-0.036 -0.167872,0.024 -0.287775,0.048 -0.359712,0.072 l 0,9.6402 -3.021582,0 0,-29.4964 3.021582,0 0,16.6907 c 0.04796,-0.048 0.251792,-0.1918 0.611511,-0.4317 0.359705,-0.2398 0.791359,-0.5395 1.294964,-0.8992 0.527569,-0.3837 1.091118,-0.8154 1.690647,-1.295 0.599511,-0.4796 1.175049,-0.9712 1.726619,-1.4748 0.575528,-0.5036 1.091115,-0.9952 1.546763,-1.4749 0.455622,-0.5035 0.791353,-0.9712 1.007194,-1.4028 l 3.057554,0 c -0.143902,0.5036 -0.503614,1.1031 -1.079137,1.7985 -0.575555,0.6955 -1.270998,1.4149 -2.086331,2.1583 -0.79138,0.7194 -1.642698,1.4389 -2.553957,2.1583 -0.8873,0.7194 -1.714637,1.3669 -2.482014,1.9424 0.335722,0.1199 0.671453,0.2998 1.007194,0.5396 0.335722,0.2158 0.671453,0.5036 1.007194,0.8633 0.383682,0.4556 0.875289,1.0312 1.474821,1.7266 0.623488,0.6955 1.270969,1.4269 1.942446,2.1943 0.695428,0.7674 1.390871,1.5347 2.08633,2.3021 0.695427,0.7434 1.330918,1.4269 1.906475,2.0504 0.599502,0.5995 1.103098,1.0911 1.510792,1.4748 0.407653,0.3837 0.659452,0.5755 0.755395,0.5755 l -4.064748,0"
           id="path3762" />
        <path
           d="m 87.010452,1031.6428 c 1.007182,0 1.894472,0.1679 2.66187,0.5036 0.767372,0.3118 1.402863,0.6715 1.906475,1.0791 0.599505,0.4557 1.103101,0.9833 1.510791,1.5828 l -1.906475,1.7985 c -0.263803,-0.4076 -0.599534,-0.7793 -1.007194,-1.1151 -0.335744,-0.2877 -0.767399,-0.5515 -1.294964,-0.7913 -0.527589,-0.2398 -1.175071,-0.3597 -1.942446,-0.3597 -0.623511,0 -1.259002,0.1678 -1.906475,0.5036 -0.623509,0.3117 -1.199047,0.8033 -1.726618,1.4748 -0.527584,0.6475 -0.959239,1.4748 -1.294964,2.482 -0.311756,1.0072 -0.467631,2.1823 -0.467626,3.5252 -5e-6,0.9832 0.119899,1.9184 0.359712,2.8057 0.263784,0.8873 0.611505,1.6667 1.043166,2.3382 0.455628,0.6714 1.007186,1.199 1.654676,1.5827 0.647473,0.3837 1.366897,0.5755 2.158273,0.5755 0.359702,0 0.707423,-0.024 1.043166,-0.072 0.3597,-0.048 0.719412,-0.1439 1.079136,-0.2878 0.383681,-0.1678 0.791354,-0.3957 1.223022,-0.6834 0.455621,-0.3118 0.947227,-0.7195 1.47482,-1.2231 l 1.870503,1.7986 c -0.71944,0.7194 -1.390902,1.295 -2.014388,1.7266 -0.599535,0.4077 -1.175074,0.7194 -1.726619,0.9353 -0.52759,0.2158 -1.043177,0.3477 -1.546762,0.3957 -0.479628,0.048 -0.947253,0.072 -1.402878,0.072 -1.247011,0 -2.374108,-0.2518 -3.381295,-0.7554 -1.0072,-0.5276 -1.870508,-1.235 -2.589928,-2.1223 -0.719428,-0.8873 -1.282976,-1.9305 -1.690647,-3.1295 -0.383695,-1.223 -0.575542,-2.542 -0.57554,-3.9568 -2e-6,-1.8705 0.263787,-3.4772 0.791367,-4.8202 0.527575,-1.3429 1.199037,-2.446 2.014389,-3.3093 0.815342,-0.8633 1.726612,-1.4988 2.733813,-1.9065 1.007185,-0.4316 1.990398,-0.6475 2.94964,-0.6475"
           id="path3764" />
        <path
           d="m 96.787883,1042.1824 c -2e-6,-1.4389 0.191844,-2.7938 0.57554,-4.0648 0.407671,-1.2949 0.983209,-2.41 1.726618,-3.3453 0.743401,-0.9592 1.630689,-1.7146 2.661869,-2.2662 1.05515,-0.5755 2.23021,-0.8633 3.52518,-0.8633 1.22301,0 2.26618,0.1919 3.1295,0.5756 0.88727,0.3597 1.61869,0.8273 2.19424,1.4028 0.59951,0.5516 1.06713,1.1751 1.40288,1.8705 0.35969,0.6955 0.63547,1.3789 0.82734,2.0504 0.19183,0.6475 0.31173,1.235 0.35971,1.7626 0.0479,0.5036 0.0719,0.8753 0.0719,1.1151 l 0,1.4029 -13.489206,0 c -0.04797,1.175 0.03597,2.2422 0.251796,3.2014 0.23981,0.9592 0.59952,1.7866 1.07914,2.482 0.47961,0.6955 1.07913,1.235 1.79856,1.6187 0.71942,0.3837 1.55874,0.5756 2.51799,0.5756 0.26377,0 0.59951,-0.012 1.00719,-0.036 0.40766,-0.024 0.87529,-0.1439 1.40288,-0.3597 0.52756,-0.2158 1.1031,-0.5516 1.72662,-1.0072 0.62348,-0.4796 1.28295,-1.1751 1.97841,-2.0863 l 1.83454,1.7626 c -0.91129,1.1271 -1.76261,1.9904 -2.55396,2.5899 -0.79138,0.5755 -1.53479,0.9952 -2.23022,1.259 -0.67147,0.2398 -1.28298,0.3717 -1.83453,0.3957 -0.52759,0.048 -0.97123,0.072 -1.33093,0.072 -1.43886,0 -2.69785,-0.2638 -3.77698,-0.7914 -1.07914,-0.5515 -1.978424,-1.2829 -2.697844,-2.1942 -0.719427,-0.9353 -1.258995,-2.0144 -1.618705,-3.2374 -0.359714,-1.223 -0.53957,-2.518 -0.539568,-3.8849 m 8.489207,-7.9497 c -0.67147,10e-5 -1.28298,0.132 -1.83453,0.3957 -0.52759,0.2399 -1.0072,0.5876 -1.43885,1.0432 -0.40768,0.4317 -0.76739,0.9473 -1.07914,1.5468 -0.31175,0.5995 -0.56355,1.247 -0.75539,1.9424 l 10.03597,0 c -0.072,-0.5036 -0.21584,-1.0432 -0.43166,-1.6187 -0.21584,-0.5755 -0.5156,-1.1031 -0.89928,-1.5827 -0.3837,-0.5036 -0.87531,-0.9113 -1.47482,-1.2231 -0.57555,-0.3357 -1.28298,-0.5035 -2.1223,-0.5036"
           id="path3766" />
        <path
           d="m 118.59262,1051.8586 0,-19.7841 3.02158,0 0,3.8129 c 0.55156,-0.5275 1.15108,-1.0431 1.79856,-1.5467 0.67146,-0.5276 1.37889,-0.9832 2.12231,-1.3669 0.74339,-0.4077 1.51078,-0.7314 2.30215,-0.9713 0.79136,-0.2398 1.59472,-0.3597 2.41008,-0.3597 1.63068,0 2.79374,0.5516 3.48921,1.6547 0.7194,1.1031 1.07911,2.6019 1.07913,4.4964 l 0,14.0647 -3.02158,0 0,-14.0647 c -2e-5,-0.9832 -0.11992,-1.7506 -0.35971,-2.3022 -0.23983,-0.5515 -0.63551,-0.8273 -1.18705,-0.8273 -0.91129,0 -1.78659,0.1559 -2.6259,0.4676 -0.81536,0.3118 -1.59474,0.7075 -2.33813,1.1871 -0.71944,0.4556 -1.3909,0.9592 -2.01439,1.5108 -0.62351,0.5515 -1.17507,1.0671 -1.65468,1.5467 l 0,12.482 -3.02158,0"
           id="path3768" />
        <path
           d="m 146.41693,1052.1464 c -1.10313,0 -2.09833,-0.2638 -2.98561,-0.7914 -0.8873,-0.5515 -1.6427,-1.2829 -2.26619,-2.1942 -0.62351,-0.9113 -1.10312,-1.9544 -1.43885,-3.1295 -0.33573,-1.199 -0.5036,-2.446 -0.5036,-3.741 0,-3.3813 0.7434,-5.9952 2.23022,-7.8417 1.51078,-1.8705 3.56114,-2.8058 6.15108,-2.8058 0.9832,0 1.99039,0.2398 3.02158,0.7194 1.05514,0.4557 2.09831,1.1272 3.1295,2.0144 l 0,-12.0144 3.02158,0 0,24.7482 c -0.024,0.4797 0.036,0.9353 0.17985,1.3669 0.11989,0.3598 0.32373,0.7315 0.61152,1.1152 0.28774,0.3597 0.7194,0.6354 1.29496,0.8273 l -1.90648,1.9424 c -0.62352,-0.2158 -1.12711,-0.4796 -1.51079,-0.7913 -0.35973,-0.3358 -0.6475,-0.6835 -0.86331,-1.0432 -0.21584,-0.3597 -0.37172,-0.7074 -0.46762,-1.0432 -0.0959,-0.3597 -0.15589,-0.6834 -0.17986,-0.9712 -0.95925,1.0792 -2.06236,1.9664 -3.30935,2.6619 -1.24701,0.6715 -2.64989,0.9952 -4.20863,0.9712 m 0,-2.9137 c 0.95922,0.072 1.82253,-0.048 2.58992,-0.3597 0.76738,-0.3117 1.45083,-0.7194 2.05036,-1.223 0.62349,-0.5036 1.15107,-1.0432 1.58274,-1.6187 0.45562,-0.5995 0.82732,-1.1271 1.11511,-1.5827 l 0,-6.5828 c -1.00721,-0.9832 -2.05038,-1.7745 -3.1295,-2.3741 -1.07915,-0.5995 -2.08634,-0.8992 -3.02158,-0.8992 -1.60673,0 -2.8897,0.6714 -3.84892,2.0143 -0.95924,1.343 -1.43886,3.2375 -1.43885,5.6835 -1e-5,0.9113 0.0959,1.7746 0.28777,2.5899 0.19184,0.8154 0.46762,1.5468 0.82734,2.1943 0.3597,0.6235 0.79136,1.1271 1.29496,1.5108 0.50359,0.3837 1.06714,0.5995 1.69065,0.6474"
           id="path3770" />
        <path
           d="m 162.19648,1041.9666 c 0,-1.8945 0.23981,-3.4892 0.71943,-4.7842 0.50359,-1.3189 1.15107,-2.3861 1.94244,-3.2015 0.81535,-0.8153 1.73861,-1.4028 2.76979,-1.7625 1.03116,-0.3837 2.08632,-0.5756 3.16546,-0.5756 1.07913,0 2.13428,0.1919 3.16547,0.5756 1.03116,0.3597 1.94243,0.9472 2.73382,1.7625 0.81533,0.8154 1.46281,1.8826 1.94244,3.2015 0.50358,1.3189 0.75538,2.9137 0.7554,4.7842 -2e-5,1.9184 -0.25182,3.5371 -0.7554,4.8561 -0.47963,1.2949 -1.12711,2.3501 -1.94244,3.1654 -0.79139,0.8154 -1.70266,1.4029 -2.73382,1.7626 -1.03119,0.3597 -2.08634,0.5396 -3.16547,0.5396 -1.07914,0 -2.1343,-0.1679 -3.16546,-0.5036 -1.03118,-0.3597 -1.95444,-0.9353 -2.76979,-1.7266 -0.79137,-0.8154 -1.43885,-1.8825 -1.94244,-3.2015 -0.47962,-1.3189 -0.71943,-2.9496 -0.71943,-4.892 m 14.17266,0 c -10e-6,-1.3909 -0.16788,-2.578 -0.50359,-3.5612 -0.31177,-1.0072 -0.73143,-1.8225 -1.259,-2.446 -0.52759,-0.6235 -1.12711,-1.0792 -1.79856,-1.3669 -0.67147,-0.3118 -1.34293,-0.4677 -2.01439,-0.4677 -0.69545,0 -1.3789,0.1439 -2.05035,0.4317 -0.64749,0.2638 -1.23502,0.7074 -1.76259,1.3309 -0.52759,0.6235 -0.95924,1.4389 -1.29497,2.4461 -0.31175,0.9832 -0.46763,2.1942 -0.46762,3.6331 -1e-5,1.4148 0.15587,2.6259 0.46762,3.633 0.33573,1.0072 0.76738,1.8226 1.29497,2.4461 0.52757,0.6235 1.1151,1.0791 1.76259,1.3669 0.67145,0.2878 1.3549,0.4317 2.05035,0.4317 0.67146,0 1.34292,-0.1319 2.01439,-0.3957 0.67145,-0.2878 1.27097,-0.7434 1.79856,-1.3669 0.52757,-0.6235 0.94723,-1.4389 1.259,-2.4461 0.33571,-1.0072 0.50358,-2.2302 0.50359,-3.669"
           id="path3772" />
      </g>
    </clipPath>
    <clipPath
       clipPathUnits="userSpaceOnUse"
       id="clipPath3774">
      <g
         style="font-size:35.97122192px;font-style:normal;font-variant:normal;font-weight:normal;font-stretch:normal;text-align:start;line-height:100%;writing-mode:lr-tb;text-anchor:start;fill:#ef2929;fill-opacity:1;stroke:none;font-family:Junction;-inkscape-font-specification:Junction"
         id="g3776">
        <path
           d="m 3.8146973e-8,1051.8586 0,-29.4964 3.021582661853027,0 0,13.5252 c 0.5515521,-0.5275 1.1510719,-1.0431 1.7985611,-1.5467 0.6714543,-0.5276 1.3788876,-0.9832 2.1223021,-1.3669 0.7433945,-0.4077 1.5107798,-0.7314 2.3021582,-0.9713 0.7913539,-0.2398 1.5947099,-0.3597 2.4100719,-0.3597 1.630679,0 2.793747,0.5516 3.489208,1.6547 0.719406,1.1031 1.079118,2.6019 1.079137,4.4964 l 0,14.0647 -3.021583,0 0,-14.0647 c -1.6e-5,-0.9832 -0.11992,-1.7506 -0.359712,-2.3022 -0.239824,-0.5515 -0.635507,-0.8273 -1.18705,-0.8273 -0.935266,0 -1.8345452,0.1679 -2.6978417,0.5036 -0.8633204,0.3118 -1.6666769,0.7194 -2.4100719,1.223 -0.743414,0.4796 -1.4148762,0.9952 -2.0143884,1.5468 -0.5995273,0.5276 -1.1031239,1.0072 -1.5107913,1.4388 l 0,12.482 -3.021582661853026,0"
           id="path3778" />
        <path
           d="m 22.644446,1037.2184 c -4e-6,0 -0.07195,-0.1199 -0.215827,-0.3598 -0.119908,-0.2637 -0.251802,-0.5395 -0.395684,-0.8273 -0.143888,-0.3117 -0.275782,-0.5875 -0.395683,-0.8273 -0.119907,-0.2638 -0.179859,-0.4077 -0.179856,-0.4317 0.311747,-0.1678 0.791363,-0.4316 1.438849,-0.7914 0.671457,-0.3596 1.438843,-0.7074 2.302158,-1.0431 0.863302,-0.3357 1.786562,-0.6355 2.769784,-0.8993 0.983203,-0.2638 1.978406,-0.3957 2.985611,-0.3957 1.031162,0 1.858499,0.2159 2.482015,0.6475 0.623485,0.4077 1.103101,0.9113 1.438848,1.5108 0.359696,0.5755 0.587514,1.199 0.683454,1.8705 0.119887,0.6475 0.179839,1.199 0.179856,1.6547 l 0,10.6475 c -1.7e-5,0.048 -1.7e-5,0.1558 0,0.3237 0.02396,0.1679 0.09591,0.3837 0.215827,0.6475 0.119887,0.2398 0.311733,0.5036 0.57554,0.7913 0.263771,0.2638 0.647463,0.5156 1.151079,0.7554 l -1.942446,1.7986 c -0.863326,-0.3357 -1.498817,-0.7794 -1.906475,-1.3309 -0.407689,-0.5516 -0.695458,-1.1391 -0.863309,-1.7626 -0.863323,0.9112 -1.870516,1.6546 -3.021583,2.2302 -1.151089,0.5755 -2.39809,0.8633 -3.741007,0.8633 -0.191854,0 -0.599527,-0.048 -1.223022,-0.1439 -0.599526,-0.096 -1.223026,-0.3237 -1.870503,-0.6834 -0.647486,-0.3598 -1.223025,-0.8993 -1.726619,-1.6187 -0.503599,-0.7195 -0.755397,-1.7027 -0.755395,-2.9497 -2e-6,-0.6475 0.08393,-1.2949 0.251798,-1.9424 0.167863,-0.6715 0.503595,-1.307 1.007194,-1.9065 0.527575,-0.5995 1.258989,-1.1271 2.194245,-1.5827 0.935245,-0.4796 2.158266,-0.8274 3.669065,-1.0432 1.318934,-0.1918 2.374089,-0.3477 3.165467,-0.4676 0.791354,-0.1199 1.402864,-0.2398 1.834532,-0.3597 l 0,-2.2662 c -1.4e-5,-0.1919 -0.02399,-0.4437 -0.07194,-0.7554 -0.02399,-0.3357 -0.119918,-0.6595 -0.28777,-0.9712 -0.143898,-0.3118 -0.371716,-0.5756 -0.683453,-0.7914 -0.287783,-0.2398 -0.683466,-0.3597 -1.18705,-0.3597 -0.503609,0 -1.055167,0.072 -1.654677,0.2158 -0.575549,0.1439 -1.163078,0.3238 -1.762589,0.5396 -0.575548,0.1918 -1.139096,0.4077 -1.690648,0.6474 -0.527584,0.2399 -0.995209,0.4677 -1.402878,0.6835 -0.407678,0.1919 -0.743409,0.3597 -1.007194,0.5036 -0.239812,0.1199 -0.359716,0.1799 -0.359712,0.1799 m 3.453237,12.5539 c 0.623493,0.048 1.246994,-0.012 1.870504,-0.1798 0.647472,-0.1919 1.258982,-0.4437 1.834532,-0.7554 0.599509,-0.3118 1.151067,-0.6715 1.654676,-1.0792 0.503584,-0.4316 0.935238,-0.8753 1.294964,-1.3309 l 0,-4.2446 c -0.551572,0.1199 -1.175072,0.2278 -1.870503,0.3237 -0.695455,0.096 -1.630706,0.2398 -2.805755,0.4317 -0.983222,0.1439 -1.774588,0.3597 -2.374101,0.6475 -0.575546,0.2638 -1.031181,0.5755 -1.366907,0.9352 -0.311756,0.3597 -0.515592,0.7434 -0.61151,1.1511 -0.09593,0.4077 -0.14389,0.8153 -0.143885,1.223 -5e-6,0.6235 0.107908,1.1271 0.323741,1.5108 0.215822,0.3597 0.45563,0.6475 0.719424,0.8633 0.287764,0.1919 0.563543,0.3238 0.827338,0.3957 0.287763,0.072 0.50359,0.1079 0.647482,0.1079"
           id="path3780" />
        <path
           d="m 49.35308,1031.6428 c 1.007183,0 1.894472,0.1679 2.661871,0.5036 0.767372,0.3118 1.402863,0.6715 1.906474,1.0791 0.599505,0.4557 1.103102,0.9833 1.510792,1.5828 l -1.906475,1.7985 c -0.263803,-0.4076 -0.599534,-0.7793 -1.007194,-1.1151 -0.335745,-0.2877 -0.767399,-0.5515 -1.294964,-0.7913 -0.52759,-0.2398 -1.175071,-0.3597 -1.942446,-0.3597 -0.623511,0 -1.259002,0.1678 -1.906475,0.5036 -0.623509,0.3117 -1.199048,0.8033 -1.726619,1.4748 -0.527584,0.6475 -0.959238,1.4748 -1.294964,2.482 -0.311755,1.0072 -0.467631,2.1823 -0.467626,3.5252 -5e-6,0.9832 0.119899,1.9184 0.359713,2.8057 0.263783,0.8873 0.611505,1.6667 1.043165,2.3382 0.455629,0.6714 1.007187,1.199 1.654676,1.5827 0.647474,0.3837 1.366897,0.5755 2.158274,0.5755 0.359701,0 0.707423,-0.024 1.043165,-0.072 0.359701,-0.048 0.719413,-0.1439 1.079137,-0.2878 0.38368,-0.1678 0.791354,-0.3957 1.223021,-0.6834 0.455622,-0.3118 0.947228,-0.7195 1.47482,-1.2231 l 1.870504,1.7986 c -0.719441,0.7194 -1.390903,1.295 -2.014389,1.7266 -0.599534,0.4077 -1.175073,0.7194 -1.726618,0.9353 -0.527591,0.2158 -1.043178,0.3477 -1.546763,0.3957 -0.479627,0.048 -0.947253,0.072 -1.402877,0.072 -1.247012,0 -2.374109,-0.2518 -3.381295,-0.7554 -1.0072,-0.5276 -1.870509,-1.235 -2.589928,-2.1223 -0.719428,-0.8873 -1.282977,-1.9305 -1.690648,-3.1295 -0.383695,-1.223 -0.575541,-2.542 -0.575539,-3.9568 -2e-6,-1.8705 0.263787,-3.4772 0.791367,-4.8202 0.527574,-1.3429 1.199036,-2.446 2.014388,-3.3093 0.815342,-0.8633 1.726612,-1.4988 2.733813,-1.9065 1.007186,-0.4316 1.990398,-0.6475 2.94964,-0.6475"
           id="path3782" />
        <path
           d="m 73.590935,1051.8586 c -0.167882,-0.048 -0.431671,-0.2278 -0.791367,-0.5395 -0.335746,-0.3358 -0.73143,-0.7434 -1.18705,-1.223 -0.45565,-0.5036 -0.947256,-1.0552 -1.47482,-1.6547 -0.527591,-0.5995 -1.055168,-1.1991 -1.582734,-1.7986 -0.503608,-0.5995 -0.995214,-1.175 -1.47482,-1.7266 -0.479626,-0.5516 -0.89929,-1.0312 -1.258993,-1.4389 -0.35972,-0.3836 -0.671471,-0.6714 -0.935252,-0.8633 -0.263796,-0.2158 -0.527585,-0.3597 -0.791366,-0.4316 -0.143892,-0.048 -0.311758,-0.06 -0.503598,-0.036 -0.167872,0.024 -0.287775,0.048 -0.359712,0.072 l 0,9.6402 -3.021582,0 0,-29.4964 3.021582,0 0,16.6907 c 0.04796,-0.048 0.251792,-0.1918 0.611511,-0.4317 0.359705,-0.2398 0.791359,-0.5395 1.294964,-0.8992 0.527569,-0.3837 1.091118,-0.8154 1.690647,-1.295 0.599511,-0.4796 1.175049,-0.9712 1.726619,-1.4748 0.575528,-0.5036 1.091115,-0.9952 1.546763,-1.4749 0.455622,-0.5035 0.791353,-0.9712 1.007194,-1.4028 l 3.057554,0 c -0.143902,0.5036 -0.503614,1.1031 -1.079137,1.7985 -0.575555,0.6955 -1.270998,1.4149 -2.086331,2.1583 -0.79138,0.7194 -1.642698,1.4389 -2.553957,2.1583 -0.8873,0.7194 -1.714637,1.3669 -2.482014,1.9424 0.335722,0.1199 0.671453,0.2998 1.007194,0.5396 0.335722,0.2158 0.671453,0.5036 1.007194,0.8633 0.383682,0.4556 0.875289,1.0312 1.474821,1.7266 0.623488,0.6955 1.270969,1.4269 1.942446,2.1943 0.695428,0.7674 1.390871,1.5347 2.08633,2.3021 0.695427,0.7434 1.330918,1.4269 1.906475,2.0504 0.599502,0.5995 1.103098,1.0911 1.510792,1.4748 0.407653,0.3837 0.659452,0.5755 0.755395,0.5755 l -4.064748,0"
           id="path3784" />
        <path
           d="m 87.010452,1031.6428 c 1.007182,0 1.894472,0.1679 2.66187,0.5036 0.767372,0.3118 1.402863,0.6715 1.906475,1.0791 0.599505,0.4557 1.103101,0.9833 1.510791,1.5828 l -1.906475,1.7985 c -0.263803,-0.4076 -0.599534,-0.7793 -1.007194,-1.1151 -0.335744,-0.2877 -0.767399,-0.5515 -1.294964,-0.7913 -0.527589,-0.2398 -1.175071,-0.3597 -1.942446,-0.3597 -0.623511,0 -1.259002,0.1678 -1.906475,0.5036 -0.623509,0.3117 -1.199047,0.8033 -1.726618,1.4748 -0.527584,0.6475 -0.959239,1.4748 -1.294964,2.482 -0.311756,1.0072 -0.467631,2.1823 -0.467626,3.5252 -5e-6,0.9832 0.119899,1.9184 0.359712,2.8057 0.263784,0.8873 0.611505,1.6667 1.043166,2.3382 0.455628,0.6714 1.007186,1.199 1.654676,1.5827 0.647473,0.3837 1.366897,0.5755 2.158273,0.5755 0.359702,0 0.707423,-0.024 1.043166,-0.072 0.3597,-0.048 0.719412,-0.1439 1.079136,-0.2878 0.383681,-0.1678 0.791354,-0.3957 1.223022,-0.6834 0.455621,-0.3118 0.947227,-0.7195 1.47482,-1.2231 l 1.870503,1.7986 c -0.71944,0.7194 -1.390902,1.295 -2.014388,1.7266 -0.599535,0.4077 -1.175074,0.7194 -1.726619,0.9353 -0.52759,0.2158 -1.043177,0.3477 -1.546762,0.3957 -0.479628,0.048 -0.947253,0.072 -1.402878,0.072 -1.247011,0 -2.374108,-0.2518 -3.381295,-0.7554 -1.0072,-0.5276 -1.870508,-1.235 -2.589928,-2.1223 -0.719428,-0.8873 -1.282976,-1.9305 -1.690647,-3.1295 -0.383695,-1.223 -0.575542,-2.542 -0.57554,-3.9568 -2e-6,-1.8705 0.263787,-3.4772 0.791367,-4.8202 0.527575,-1.3429 1.199037,-2.446 2.014389,-3.3093 0.815342,-0.8633 1.726612,-1.4988 2.733813,-1.9065 1.007185,-0.4316 1.990398,-0.6475 2.94964,-0.6475"
           id="path3786" />
        <path
           d="m 96.787883,1042.1824 c -2e-6,-1.4389 0.191844,-2.7938 0.57554,-4.0648 0.407671,-1.2949 0.983209,-2.41 1.726618,-3.3453 0.743401,-0.9592 1.630689,-1.7146 2.661869,-2.2662 1.05515,-0.5755 2.23021,-0.8633 3.52518,-0.8633 1.22301,0 2.26618,0.1919 3.1295,0.5756 0.88727,0.3597 1.61869,0.8273 2.19424,1.4028 0.59951,0.5516 1.06713,1.1751 1.40288,1.8705 0.35969,0.6955 0.63547,1.3789 0.82734,2.0504 0.19183,0.6475 0.31173,1.235 0.35971,1.7626 0.0479,0.5036 0.0719,0.8753 0.0719,1.1151 l 0,1.4029 -13.489206,0 c -0.04797,1.175 0.03597,2.2422 0.251796,3.2014 0.23981,0.9592 0.59952,1.7866 1.07914,2.482 0.47961,0.6955 1.07913,1.235 1.79856,1.6187 0.71942,0.3837 1.55874,0.5756 2.51799,0.5756 0.26377,0 0.59951,-0.012 1.00719,-0.036 0.40766,-0.024 0.87529,-0.1439 1.40288,-0.3597 0.52756,-0.2158 1.1031,-0.5516 1.72662,-1.0072 0.62348,-0.4796 1.28295,-1.1751 1.97841,-2.0863 l 1.83454,1.7626 c -0.91129,1.1271 -1.76261,1.9904 -2.55396,2.5899 -0.79138,0.5755 -1.53479,0.9952 -2.23022,1.259 -0.67147,0.2398 -1.28298,0.3717 -1.83453,0.3957 -0.52759,0.048 -0.97123,0.072 -1.33093,0.072 -1.43886,0 -2.69785,-0.2638 -3.77698,-0.7914 -1.07914,-0.5515 -1.978424,-1.2829 -2.697844,-2.1942 -0.719427,-0.9353 -1.258995,-2.0144 -1.618705,-3.2374 -0.359714,-1.223 -0.53957,-2.518 -0.539568,-3.8849 m 8.489207,-7.9497 c -0.67147,10e-5 -1.28298,0.132 -1.83453,0.3957 -0.52759,0.2399 -1.0072,0.5876 -1.43885,1.0432 -0.40768,0.4317 -0.76739,0.9473 -1.07914,1.5468 -0.31175,0.5995 -0.56355,1.247 -0.75539,1.9424 l 10.03597,0 c -0.072,-0.5036 -0.21584,-1.0432 -0.43166,-1.6187 -0.21584,-0.5755 -0.5156,-1.1031 -0.89928,-1.5827 -0.3837,-0.5036 -0.87531,-0.9113 -1.47482,-1.2231 -0.57555,-0.3357 -1.28298,-0.5035 -2.1223,-0.5036"
           id="path3788" />
        <path
           d="m 118.59262,1051.8586 0,-19.7841 3.02158,0 0,3.8129 c 0.55156,-0.5275 1.15108,-1.0431 1.79856,-1.5467 0.67146,-0.5276 1.37889,-0.9832 2.12231,-1.3669 0.74339,-0.4077 1.51078,-0.7314 2.30215,-0.9713 0.79136,-0.2398 1.59472,-0.3597 2.41008,-0.3597 1.63068,0 2.79374,0.5516 3.48921,1.6547 0.7194,1.1031 1.07911,2.6019 1.07913,4.4964 l 0,14.0647 -3.02158,0 0,-14.0647 c -2e-5,-0.9832 -0.11992,-1.7506 -0.35971,-2.3022 -0.23983,-0.5515 -0.63551,-0.8273 -1.18705,-0.8273 -0.91129,0 -1.78659,0.1559 -2.6259,0.4676 -0.81536,0.3118 -1.59474,0.7075 -2.33813,1.1871 -0.71944,0.4556 -1.3909,0.9592 -2.01439,1.5108 -0.62351,0.5515 -1.17507,1.0671 -1.65468,1.5467 l 0,12.482 -3.02158,0"
           id="path3790" />
        <path
           d="m 146.41693,1052.1464 c -1.10313,0 -2.09833,-0.2638 -2.98561,-0.7914 -0.8873,-0.5515 -1.6427,-1.2829 -2.26619,-2.1942 -0.62351,-0.9113 -1.10312,-1.9544 -1.43885,-3.1295 -0.33573,-1.199 -0.5036,-2.446 -0.5036,-3.741 0,-3.3813 0.7434,-5.9952 2.23022,-7.8417 1.51078,-1.8705 3.56114,-2.8058 6.15108,-2.8058 0.9832,0 1.99039,0.2398 3.02158,0.7194 1.05514,0.4557 2.09831,1.1272 3.1295,2.0144 l 0,-12.0144 3.02158,0 0,24.7482 c -0.024,0.4797 0.036,0.9353 0.17985,1.3669 0.11989,0.3598 0.32373,0.7315 0.61152,1.1152 0.28774,0.3597 0.7194,0.6354 1.29496,0.8273 l -1.90648,1.9424 c -0.62352,-0.2158 -1.12711,-0.4796 -1.51079,-0.7913 -0.35973,-0.3358 -0.6475,-0.6835 -0.86331,-1.0432 -0.21584,-0.3597 -0.37172,-0.7074 -0.46762,-1.0432 -0.0959,-0.3597 -0.15589,-0.6834 -0.17986,-0.9712 -0.95925,1.0792 -2.06236,1.9664 -3.30935,2.6619 -1.24701,0.6715 -2.64989,0.9952 -4.20863,0.9712 m 0,-2.9137 c 0.95922,0.072 1.82253,-0.048 2.58992,-0.3597 0.76738,-0.3117 1.45083,-0.7194 2.05036,-1.223 0.62349,-0.5036 1.15107,-1.0432 1.58274,-1.6187 0.45562,-0.5995 0.82732,-1.1271 1.11511,-1.5827 l 0,-6.5828 c -1.00721,-0.9832 -2.05038,-1.7745 -3.1295,-2.3741 -1.07915,-0.5995 -2.08634,-0.8992 -3.02158,-0.8992 -1.60673,0 -2.8897,0.6714 -3.84892,2.0143 -0.95924,1.343 -1.43886,3.2375 -1.43885,5.6835 -1e-5,0.9113 0.0959,1.7746 0.28777,2.5899 0.19184,0.8154 0.46762,1.5468 0.82734,2.1943 0.3597,0.6235 0.79136,1.1271 1.29496,1.5108 0.50359,0.3837 1.06714,0.5995 1.69065,0.6474"
           id="path3792" />
        <path
           d="m 162.19648,1041.9666 c 0,-1.8945 0.23981,-3.4892 0.71943,-4.7842 0.50359,-1.3189 1.15107,-2.3861 1.94244,-3.2015 0.81535,-0.8153 1.73861,-1.4028 2.76979,-1.7625 1.03116,-0.3837 2.08632,-0.5756 3.16546,-0.5756 1.07913,0 2.13428,0.1919 3.16547,0.5756 1.03116,0.3597 1.94243,0.9472 2.73382,1.7625 0.81533,0.8154 1.46281,1.8826 1.94244,3.2015 0.50358,1.3189 0.75538,2.9137 0.7554,4.7842 -2e-5,1.9184 -0.25182,3.5371 -0.7554,4.8561 -0.47963,1.2949 -1.12711,2.3501 -1.94244,3.1654 -0.79139,0.8154 -1.70266,1.4029 -2.73382,1.7626 -1.03119,0.3597 -2.08634,0.5396 -3.16547,0.5396 -1.07914,0 -2.1343,-0.1679 -3.16546,-0.5036 -1.03118,-0.3597 -1.95444,-0.9353 -2.76979,-1.7266 -0.79137,-0.8154 -1.43885,-1.8825 -1.94244,-3.2015 -0.47962,-1.3189 -0.71943,-2.9496 -0.71943,-4.892 m 14.17266,0 c -10e-6,-1.3909 -0.16788,-2.578 -0.50359,-3.5612 -0.31177,-1.0072 -0.73143,-1.8225 -1.259,-2.446 -0.52759,-0.6235 -1.12711,-1.0792 -1.79856,-1.3669 -0.67147,-0.3118 -1.34293,-0.4677 -2.01439,-0.4677 -0.69545,0 -1.3789,0.1439 -2.05035,0.4317 -0.64749,0.2638 -1.23502,0.7074 -1.76259,1.3309 -0.52759,0.6235 -0.95924,1.4389 -1.29497,2.4461 -0.31175,0.9832 -0.46763,2.1942 -0.46762,3.6331 -1e-5,1.4148 0.15587,2.6259 0.46762,3.633 0.33573,1.0072 0.76738,1.8226 1.29497,2.4461 0.52757,0.6235 1.1151,1.0791 1.76259,1.3669 0.67145,0.2878 1.3549,0.4317 2.05035,0.4317 0.67146,0 1.34292,-0.1319 2.01439,-0.3957 0.67145,-0.2878 1.27097,-0.7434 1.79856,-1.3669 0.52757,-0.6235 0.94723,-1.4389 1.259,-2.4461 0.33571,-1.0072 0.50358,-2.2302 0.50359,-3.669"
           id="path3794" />
      </g>
    </clipPath>
    <linearGradient
       inkscape:collect="always"
       xlink:href="#linearGradient3800"
       id="linearGradient3824"
       x1="3.8146972e-08"
       y1="977.36218"
       x2="3.8146972e-08"
       y2="1007.3622"
       gradientUnits="userSpaceOnUse"
       gradientTransform="matrix(0.99337751,0,0,0.99337751,10.898647,44.071934)" />
  </defs>
  <sodipodi:namedview
     id="base"
     pagecolor="#000000"
     bordercolor="#666666"
     borderopacity="1.0"
     inkscape:pageopacity="0"
     inkscape:pageshadow="2"
     inkscape:zoom="2.0138408"
     inkscape:cx="86.5"
     inkscape:cy="19.758591"
     inkscape:document-units="px"
     inkscape:current-layer="layer1"
     showgrid="false"
     showguides="true"
     inkscape:guide-bbox="true"
     showborder="true"
     inkscape:window-width="1680"
     inkscape:window-height="1000"
     inkscape:window-x="0"
     inkscape:window-y="25"
     inkscape:window-maximized="1" />
  <metadata
     id="metadata2828">
    <rdf:RDF>
      <cc:Work
         rdf:about="">
        <dc:format>image/svg+xml</dc:format>
        <dc:type
           rdf:resource="http://purl.org/dc/dcmitype/StillImage" />
        <dc:title />
      </cc:Work>
    </rdf:RDF>
  </metadata>
  <g
     inkscape:label="Calque 1"
     inkscape:groupmode="layer"
     id="layer1"
     transform="translate(1.5991926e-7,-1007.3622)">
    <g
       style="font-size:35.73300171px;font-style:normal;font-variant:normal;font-weight:normal;font-stretch:normal;text-align:start;line-height:100%;writing-mode:lr-tb;text-anchor:start;fill:url(#linearGradient3824);fill-opacity:1;stroke:#fcaf3e;stroke-width:0.1986755;stroke-miterlimit:4;stroke-opacity:1;font-family:Junction;-inkscape-font-specification:Junction"
       id="text3796">
      <path
         d="m 10.898647,1044.2626 0,-29.3011 3.001572,0 0,13.4356 c 0.5479,-0.524 1.143449,-1.0362 1.786651,-1.5365 0.667007,-0.5241 1.369755,-0.9767 2.108247,-1.3579 0.738471,-0.4049 1.500774,-0.7265 2.286912,-0.9647 0.786113,-0.2382 1.584149,-0.3574 2.394111,-0.3574 1.61988,0 2.775246,0.548 3.466101,1.6437 0.714641,1.0959 1.071971,2.5847 1.07199,4.4667 l 0,13.9716 -3.001572,0 0,-13.9716 c -1.6e-5,-0.9767 -0.119126,-1.739 -0.35733,-2.2869 -0.238236,-0.5479 -0.631298,-0.8219 -1.179189,-0.8219 -0.929072,0 -1.822396,0.1668 -2.679975,0.5003 -0.857603,0.3097 -1.65564,0.7146 -2.394111,1.2149 -0.738491,0.4764 -1.405507,0.9886 -2.001048,1.5365 -0.595557,0.5241 -1.095819,1.0005 -1.500787,1.4293 l 0,12.3994 -3.001572,0"
         style="stroke:#fcaf3e"
         id="path2853" />
      <path
         d="m 33.393129,1029.7192 c -4e-6,10e-5 -0.07147,-0.1191 -0.214398,-0.3573 -0.119113,-0.262 -0.250134,-0.536 -0.393063,-0.8218 -0.142935,-0.3097 -0.273956,-0.5837 -0.393063,-0.8219 -0.119113,-0.262 -0.178667,-0.405 -0.178665,-0.4288 0.309683,-0.1667 0.786123,-0.4288 1.42932,-0.7861 0.667012,-0.3573 1.429315,-0.7028 2.286912,-1.0363 0.857585,-0.3335 1.774731,-0.6312 2.751442,-0.8933 0.976691,-0.262 1.965303,-0.3931 2.965839,-0.3931 1.024333,0 1.846191,0.2144 2.465577,0.6432 0.619357,0.405 1.095796,0.9053 1.42932,1.5008 0.357313,0.5718 0.583622,1.1911 0.678927,1.8581 0.119093,0.6432 0.178648,1.1911 0.178665,1.6437 l 0,10.577 c -1.7e-5,0.048 -1.7e-5,0.1549 0,0.3216 0.0238,0.1668 0.09527,0.3812 0.214398,0.6432 0.119093,0.2382 0.309669,0.5003 0.571728,0.7861 0.262024,0.2621 0.643176,0.5122 1.143456,0.7504 l -1.929582,1.7867 c -0.857608,-0.3335 -1.488891,-0.7742 -1.893849,-1.3222 -0.404989,-0.5479 -0.690853,-1.1315 -0.857592,-1.7509 -0.857606,0.9053 -1.858129,1.6438 -3.001572,2.2155 -1.143466,0.5717 -2.382209,0.8576 -3.716233,0.8576 -0.190583,0 -0.595556,-0.048 -1.214922,-0.143 -0.595555,-0.095 -1.214927,-0.3216 -1.858116,-0.6789 -0.643197,-0.3573 -1.214925,-0.8933 -1.715184,-1.608 -0.500264,-0.7146 -0.750395,-1.6913 -0.750393,-2.9301 -2e-6,-0.6432 0.08338,-1.2864 0.250131,-1.9296 0.166752,-0.667 0.50026,-1.2983 1.000524,-1.8938 0.524081,-0.5956 1.250651,-1.1196 2.179713,-1.5723 0.929052,-0.4764 2.143973,-0.8218 3.644767,-1.0362 1.310199,-0.1906 2.358366,-0.3454 3.144504,-0.4646 0.786113,-0.119 1.393573,-0.2382 1.822383,-0.3573 l 0,-2.2512 c -1.4e-5,-0.1905 -0.02384,-0.4407 -0.07147,-0.7504 -0.02384,-0.3334 -0.119124,-0.655 -0.285864,-0.9647 -0.142946,-0.3097 -0.369254,-0.5718 -0.678927,-0.7862 -0.285877,-0.2382 -0.67894,-0.3573 -1.179189,-0.3573 -0.500274,0 -1.048179,0.072 -1.643718,0.2144 -0.571738,0.1429 -1.155376,0.3216 -1.750917,0.536 -0.571736,0.1906 -1.131553,0.405 -1.679452,0.6432 -0.52409,0.2382 -0.988618,0.4645 -1.393587,0.6789 -0.404979,0.1906 -0.738486,0.3574 -1.000524,0.5003 -0.238224,0.1191 -0.357334,0.1787 -0.35733,0.1786 m 3.430368,12.4709 c 0.619365,0.048 1.238736,-0.012 1.858117,-0.1787 0.643184,-0.1906 1.250644,-0.4407 1.822383,-0.7504 0.595538,-0.3097 1.143444,-0.667 1.643718,-1.072 0.500249,-0.4288 0.929044,-0.8695 1.286388,-1.3221 l 0,-4.2165 c -0.54792,0.1191 -1.167291,0.2263 -1.858116,0.3216 -0.69085,0.095 -1.619907,0.2382 -2.787174,0.4288 -0.976711,0.1429 -1.762836,0.3573 -2.358379,0.6432 -0.571734,0.262 -1.024352,0.5717 -1.357854,0.929 -0.309691,0.3574 -0.512178,0.7385 -0.607461,1.1435 -0.09529,0.405 -0.142936,0.81 -0.142932,1.2149 -4e-6,0.6194 0.107194,1.1197 0.321597,1.5008 0.214393,0.3573 0.452613,0.6432 0.71466,0.8576 0.285858,0.1906 0.559811,0.3216 0.821859,0.3931 0.285857,0.071 0.500255,0.1072 0.643194,0.1072"
         style="stroke:#fcaf3e"
         id="path2855" />
      <path
         d="m 59.924883,1024.1806 c 1.000513,0 1.881926,0.1668 2.644242,0.5003 0.76229,0.3097 1.393573,0.667 1.893849,1.072 0.595535,0.4526 1.095796,0.9767 1.500786,1.5722 l -1.893849,1.7867 c -0.262056,-0.405 -0.595564,-0.7742 -1.000524,-1.1077 -0.333521,-0.2859 -0.762317,-0.5479 -1.286388,-0.7862 -0.524096,-0.2382 -1.167289,-0.3573 -1.929582,-0.3573 -0.619382,0 -1.250664,0.1668 -1.893849,0.5003 -0.61938,0.3097 -1.191107,0.798 -1.715184,1.465 -0.52409,0.6432 -0.952886,1.4651 -1.286388,2.4656 -0.309691,1.0005 -0.464534,2.1678 -0.464529,3.5018 -5e-6,0.9767 0.119105,1.9058 0.35733,2.7872 0.262036,0.8814 0.607455,1.6556 1.036257,2.3226 0.452611,0.6671 1.000517,1.1912 1.643718,1.5723 0.643185,0.3812 1.357845,0.5717 2.14398,0.5717 0.35732,0 0.702738,-0.024 1.036257,-0.071 0.357319,-0.048 0.714648,-0.143 1.07199,-0.2859 0.38114,-0.1668 0.786113,-0.3931 1.214922,-0.6789 0.452604,-0.3097 0.940955,-0.7147 1.465053,-1.215 l 1.858116,1.7867 c -0.714676,0.7147 -1.381691,1.2864 -2.001048,1.7152 -0.595564,0.405 -1.167291,0.7146 -1.715184,0.929 -0.524096,0.2144 -1.036269,0.3455 -1.536519,0.3931 -0.476451,0.048 -0.940979,0.072 -1.393587,0.072 -1.238753,0 -2.358386,-0.2502 -3.358902,-0.7504 -1.00053,-0.5241 -1.858121,-1.2269 -2.572776,-2.1083 -0.714664,-0.8814 -1.27448,-1.9176 -1.679451,-3.1087 -0.381154,-1.215 -0.57173,-2.5252 -0.571728,-3.9307 -2e-6,-1.8581 0.26204,-3.4541 0.786126,-4.7882 0.524081,-1.334 1.191096,-2.4298 2.001048,-3.2874 0.809942,-0.8576 1.715177,-1.4889 2.715708,-1.8939 1.000516,-0.4288 1.977217,-0.6432 2.930106,-0.6432"
         style="stroke:#fcaf3e"
         id="path2857" />
      <path
         d="m 84.002226,1044.2626 c -0.166771,-0.048 -0.428812,-0.2263 -0.786126,-0.536 -0.333524,-0.3335 -0.726586,-0.7385 -1.179189,-1.2149 -0.452632,-0.5003 -0.940983,-1.0482 -1.465054,-1.6438 -0.524096,-0.5955 -1.048179,-1.1911 -1.572252,-1.7866 -0.500272,-0.5956 -0.988623,-1.1673 -1.465053,-1.7152 -0.476449,-0.5479 -0.893334,-1.0243 -1.250655,-1.4293 -0.357338,-0.3812 -0.667024,-0.667 -0.929058,-0.8576 -0.262049,-0.2144 -0.524091,-0.3573 -0.786126,-0.4288 -0.142939,-0.048 -0.309692,-0.06 -0.500262,-0.036 -0.16676,0.024 -0.28587,0.048 -0.35733,0.071 l 0,9.5765 -3.001572,0 0,-29.3011 3.001572,0 0,16.5801 c 0.04764,-0.048 0.250125,-0.1905 0.607461,-0.4288 0.357323,-0.2382 0.786119,-0.536 1.286388,-0.8933 0.524076,-0.3811 1.083892,-0.8099 1.679451,-1.2864 0.59554,-0.4764 1.167268,-0.9648 1.715184,-1.465 0.571717,-0.5003 1.083889,-0.9886 1.536519,-1.4651 0.452605,-0.5002 0.786113,-0.9648 1.000524,-1.3936 l 3.037306,0 c -0.142949,0.5003 -0.500279,1.0959 -1.07199,1.7867 -0.571744,0.6908 -1.262581,1.4055 -2.072515,2.144 -0.786138,0.7146 -1.631819,1.4293 -2.537043,2.1439 -0.881424,0.7147 -1.703282,1.3579 -2.465577,1.9296 0.333499,0.1191 0.667007,0.2978 1.000524,0.536 0.333498,0.2144 0.667006,0.5003 1.000524,0.8576 0.381141,0.4526 0.869492,1.0244 1.465053,1.7152 0.61936,0.6908 1.262553,1.4174 1.929582,2.1797 0.690824,0.7623 1.381661,1.5246 2.072515,2.2869 0.690821,0.7385 1.322103,1.4174 1.893849,2.0368 0.595531,0.5955 1.095793,1.0839 1.500786,1.465 0.404954,0.3812 0.655085,0.5718 0.750393,0.5718 l -4.037829,0"
         style="stroke:#fcaf3e"
         id="path2859" />
      <path
         d="m 97.332873,1024.1806 c 1.000512,0 1.881925,0.1668 2.644242,0.5003 0.762285,0.3097 1.393575,0.667 1.893845,1.072 0.59554,0.4526 1.0958,0.9767 1.50079,1.5722 l -1.89385,1.7867 c -0.26206,-0.405 -0.59556,-0.7742 -1.00052,-1.1077 -0.33352,-0.2859 -0.76232,-0.5479 -1.286391,-0.7862 -0.524096,-0.2382 -1.167289,-0.3573 -1.929582,-0.3573 -0.619382,0 -1.250665,0.1668 -1.893849,0.5003 -0.61938,0.3097 -1.191108,0.798 -1.715185,1.465 -0.52409,0.6432 -0.952885,1.4651 -1.286388,2.4656 -0.309691,1.0005 -0.464534,2.1678 -0.464529,3.5018 -5e-6,0.9767 0.119105,1.9058 0.35733,2.7872 0.262037,0.8814 0.607455,1.6556 1.036257,2.3226 0.452612,0.6671 1.000517,1.1912 1.643718,1.5723 0.643186,0.3812 1.357845,0.5717 2.143981,0.5717 0.357319,0 0.702738,-0.024 1.036257,-0.071 0.357318,-0.048 0.714648,-0.143 1.07199,-0.2859 0.381139,-0.1668 0.786113,-0.3931 1.214921,-0.6789 0.4526,-0.3097 0.94096,-0.7147 1.46505,-1.215 l 1.85812,1.7867 c -0.71468,0.7147 -1.38169,1.2864 -2.00105,1.7152 -0.59556,0.405 -1.16729,0.7146 -1.71518,0.929 -0.524099,0.2144 -1.036271,0.3455 -1.536521,0.3931 -0.476451,0.048 -0.94098,0.072 -1.393587,0.072 -1.238753,0 -2.358386,-0.2502 -3.358903,-0.7504 -1.000529,-0.5241 -1.858121,-1.2269 -2.572776,-2.1083 -0.714663,-0.8814 -1.27448,-1.9176 -1.679451,-3.1087 -0.381154,-1.215 -0.57173,-2.5252 -0.571728,-3.9307 -2e-6,-1.8581 0.26204,-3.4541 0.786126,-4.7882 0.524081,-1.334 1.191096,-2.4298 2.001048,-3.2874 0.809943,-0.8576 1.715178,-1.4889 2.715708,-1.8939 1.000516,-0.4288 1.977217,-0.6432 2.930107,-0.6432"
         style="stroke:#fcaf3e"
         id="path2861" />
      <path
         d="m 107.04554,1034.6504 c 0,-1.4293 0.19058,-2.7753 0.57173,-4.0378 0.40497,-1.2864 0.9767,-2.3941 1.71519,-3.3232 0.73847,-0.9529 1.61989,-1.7033 2.64424,-2.2512 1.04816,-0.5717 2.21544,-0.8576 3.50183,-0.8576 1.21491,0 2.25117,0.1906 3.10877,0.5718 0.8814,0.3573 1.60797,0.8218 2.17972,1.3935 0.59553,0.548 1.06006,1.1673 1.39358,1.8582 0.35732,0.6908 0.63127,1.3697 0.82186,2.0367 0.19056,0.6432 0.30967,1.2269 0.35733,1.751 0.0476,0.5002 0.0715,0.8695 0.0715,1.1077 l 0,1.3936 -13.39988,0 c -0.0477,1.1673 0.0357,2.2273 0.25013,3.1802 0.23822,0.9529 0.59555,1.7747 1.07199,2.4656 0.47644,0.6908 1.07199,1.2268 1.78665,1.608 0.71466,0.3811 1.54843,0.5717 2.50132,0.5717 0.26203,0 0.59553,-0.012 1.00052,-0.036 0.40496,-0.024 0.86949,-0.143 1.39359,-0.3574 0.52407,-0.2144 1.09579,-0.5479 1.71518,-1.0005 0.61936,-0.4764 1.27446,-1.1673 1.96532,-2.0725 l 1.82238,1.7509 c -0.90526,1.1196 -1.75094,1.9772 -2.53704,2.5728 -0.78615,0.5717 -1.52463,0.9886 -2.21545,1.2506 -0.66703,0.2383 -1.27449,0.3693 -1.82238,0.3931 -0.5241,0.048 -0.96481,0.072 -1.32212,0.072 -1.42933,0 -2.67999,-0.2621 -3.75197,-0.7862 -1.072,-0.5479 -1.96532,-1.2744 -2.67998,-2.1797 -0.71466,-0.929 -1.25065,-2.001 -1.60798,-3.2159 -0.35733,-1.215 -0.536,-2.5013 -0.536,-3.8592 m 8.43299,-7.897 c -0.66702,0 -1.27448,0.131 -1.82238,0.3931 -0.52409,0.2382 -1.00053,0.5836 -1.42932,1.0362 -0.40498,0.4288 -0.76231,0.941 -1.07199,1.5365 -0.30969,0.5956 -0.55982,1.2388 -0.75039,1.9296 l 9.9695,0 c -0.0715,-0.5002 -0.21441,-1.0362 -0.42879,-1.608 -0.21441,-0.5717 -0.51219,-1.0958 -0.89333,-1.5722 -0.38116,-0.5003 -0.86951,-0.9052 -1.46505,-1.2149 -0.57174,-0.3335 -1.27449,-0.5003 -2.10825,-0.5003"
         style="stroke:#fcaf3e"
         id="path2863" />
      <path
         d="m 128.70588,1044.2626 0,-19.6532 3.00158,0 0,3.7877 c 0.54789,-0.524 1.14344,-1.0362 1.78665,-1.5365 0.667,-0.5241 1.36975,-0.9767 2.10824,-1.3579 0.73847,-0.4049 1.50078,-0.7265 2.28691,-0.9647 0.78612,-0.2382 1.58415,-0.3574 2.39412,-0.3574 1.61988,0 2.77524,0.548 3.4661,1.6437 0.71464,1.0959 1.07197,2.5847 1.07199,4.4667 l 0,13.9716 -3.00158,0 0,-13.9716 c -10e-6,-0.9767 -0.11912,-1.739 -0.35733,-2.2869 -0.23823,-0.5479 -0.63129,-0.8219 -1.17918,-0.8219 -0.90525,0 -1.77476,0.1549 -2.60851,0.4645 -0.80996,0.3097 -1.58418,0.7028 -2.32265,1.1792 -0.71467,0.4526 -1.38168,0.9529 -2.00105,1.5008 -0.61938,0.5479 -1.16728,1.0601 -1.64371,1.5365 l 0,12.3994 -3.00158,0"
         style="stroke:#fcaf3e"
         id="path2865" />
      <path
         d="m 156.34592,1044.5484 c -1.09582,0 -2.08443,-0.262 -2.96584,-0.7861 -0.88142,-0.5479 -1.63181,-1.2745 -2.25118,-2.1797 -0.61937,-0.9052 -1.09581,-1.9415 -1.42932,-3.1088 -0.33351,-1.1911 -0.50026,-2.4298 -0.50026,-3.7162 0,-3.3589 0.73848,-5.9555 2.21545,-7.7898 1.50078,-1.8581 3.53756,-2.7872 6.11034,-2.7872 0.97669,0 1.97722,0.2383 3.00157,0.7147 1.04816,0.4526 2.08441,1.1196 3.10878,2.001 l 0,-11.9348 3.00157,0 0,24.5843 c -0.0238,0.4765 0.0357,0.9291 0.17866,1.3579 0.11909,0.3573 0.32158,0.7265 0.60746,1.1077 0.28585,0.3573 0.71464,0.6313 1.28639,0.8219 l -1.89385,1.9295 c -0.61939,-0.2144 -1.11965,-0.4764 -1.50078,-0.7861 -0.35735,-0.3335 -0.64321,-0.6789 -0.8576,-1.0362 -0.21441,-0.3574 -0.36925,-0.7028 -0.46452,-1.0363 -0.0953,-0.3573 -0.15486,-0.6789 -0.17867,-0.9648 -0.9529,1.072 -2.04871,1.9534 -3.28744,2.6442 -1.23875,0.6671 -2.63234,0.9887 -4.18076,0.9648 m 0,-2.8943 c 0.95287,0.071 1.81046,-0.048 2.57278,-0.3574 0.76229,-0.3096 1.44122,-0.7146 2.03678,-1.2149 0.61936,-0.5002 1.14344,-1.0362 1.57225,-1.608 0.4526,-0.5955 0.82185,-1.1196 1.10773,-1.5722 l 0,-6.5392 c -1.00054,-0.9767 -2.0368,-1.7628 -3.10878,-2.3583 -1.072,-0.5956 -2.07252,-0.8934 -3.00157,-0.8934 -1.59608,0 -2.87056,0.6671 -3.82343,2.0011 -0.95288,1.334 -1.42932,3.216 -1.42932,5.6458 0,0.9052 0.0953,1.7628 0.28586,2.5728 0.19058,0.8099 0.46453,1.5365 0.82186,2.1797 0.35733,0.6194 0.78612,1.1196 1.28639,1.5008 0.50026,0.3811 1.06007,0.5955 1.67945,0.6432"
         style="stroke:#fcaf3e"
         id="path2867" />
      <path
         d="m 172.02098,1034.436 c 0,-1.8819 0.23822,-3.4661 0.71466,-4.7525 0.50026,-1.3102 1.14345,-2.3703 1.92958,-3.1802 0.80994,-0.81 1.72709,-1.3936 2.75144,-1.7509 1.02434,-0.3812 2.07251,-0.5718 3.14451,-0.5718 1.07197,0 2.12014,0.1906 3.1445,0.5718 1.02433,0.3573 1.92957,0.9409 2.71571,1.7509 0.80993,0.8099 1.45312,1.87 1.92958,3.1802 0.50024,1.3102 0.75037,2.8944 0.75039,4.7525 -2e-5,1.9058 -0.25015,3.5137 -0.75039,4.824 -0.47646,1.2863 -1.11965,2.3345 -1.92958,3.1445 -0.78614,0.8099 -1.69138,1.3935 -2.71571,1.7509 -1.02436,0.3573 -2.07253,0.536 -3.1445,0.536 -1.072,0 -2.12017,-0.1668 -3.14451,-0.5003 -1.02435,-0.3573 -1.9415,-0.929 -2.75144,-1.7152 -0.78613,-0.8099 -1.42932,-1.87 -1.92958,-3.1802 -0.47644,-1.3102 -0.71466,-2.9301 -0.71466,-4.8597 m 14.0788,0 c -2e-5,-1.3817 -0.16677,-2.5609 -0.50026,-3.5376 -0.3097,-1.0005 -0.72659,-1.8104 -1.25066,-2.4298 -0.52409,-0.6194 -1.11964,-1.072 -1.78665,-1.3579 -0.66702,-0.3096 -1.33404,-0.4645 -2.00104,-0.4645 -0.69085,0 -1.36978,0.143 -2.03679,0.4288 -0.6432,0.2621 -1.22684,0.7028 -1.75091,1.3221 -0.52409,0.6194 -0.95289,1.4294 -1.28639,2.4299 -0.30969,0.9767 -0.46453,2.1797 -0.46453,3.609 0,1.4055 0.15484,2.6085 0.46453,3.609 0.3335,1.0006 0.7623,1.8105 1.28639,2.4299 0.52407,0.6194 1.10771,1.072 1.75091,1.3578 0.66701,0.2859 1.34594,0.4288 2.03679,0.4288 0.667,0 1.33402,-0.131 2.00104,-0.393 0.66701,-0.2859 1.26256,-0.7385 1.78665,-1.3579 0.52407,-0.6194 0.94096,-1.4293 1.25066,-2.4298 0.33349,-1.0006 0.50024,-2.2155 0.50026,-3.6448"
         style="stroke:#fcaf3e"
         id="path2869" />
    </g>
  </g>
</svg>
