<?xml version="1.0" encoding="UTF-8" standalone="no"?>
<!-- Created with Inkscape (http://www.inkscape.org/) -->

<svg
   xmlns:dc="http://purl.org/dc/elements/1.1/"
   xmlns:cc="http://creativecommons.org/ns#"
   xmlns:rdf="http://www.w3.org/1999/02/22-rdf-syntax-ns#"
   xmlns:svg="http://www.w3.org/2000/svg"
   xmlns="http://www.w3.org/2000/svg"
   xmlns:xlink="http://www.w3.org/1999/xlink"
   xmlns:sodipodi="http://sodipodi.sourceforge.net/DTD/sodipodi-0.dtd"
   xmlns:inkscape="http://www.inkscape.org/namespaces/inkscape"
   width="200"
   height="45"
   id="svg2823"
   version="1.1"
   inkscape:version="0.47 r22583"
   sodipodi:docname="Nouveau document 1">
  <defs
     id="defs2825">
    <linearGradient
       id="linearGradient3800">
      <stop
         style="stop-color:#cc0000;stop-opacity:1;"
         offset="0"
         id="stop3802" />
      <stop
         id="stop3808"
         offset="0.64999998"
         style="stop-color:#fcaf3e;stop-opacity:1;" />
      <stop
         style="stop-color:#fce94f;stop-opacity:1;"
         offset="1"
         id="stop3804" />
    </linearGradient>
    <inkscape:perspective
       sodipodi:type="inkscape:persp3d"
       inkscape:vp_x="0 : 526.18109 : 1"
       inkscape:vp_y="0 : 1000 : 0"
       inkscape:vp_z="744.09448 : 526.18109 : 1"
       inkscape:persp3d-origin="372.04724 : 350.78739 : 1"
       id="perspective2831" />
    <clipPath
       clipPathUnits="userSpaceOnUse"
       id="clipPath3730">
      <g
         style="font-size:35.97122192px;font-style:normal;font-variant:normal;font-weight:normal;font-stretch:normal;text-align:start;line-height:100%;writing-mode:lr-tb;text-anchor:start;fill:#ef2929;fill-opacity:1;stroke:none;font-family:Junction;-inkscape-font-specification:Junction"
         id="g3732">
        <path
           d="m 3.8146973e-8,1051.8586 0,-29.4964 3.021582661853027,0 0,13.5252 c 0.5515521,-0.5275 1.1510719,-1.0431 1.7985611,-1.5467 0.6714543,-0.5276 1.3788876,-0.9832 2.1223021,-1.3669 0.7433945,-0.4077 1.5107798,-0.7314 2.3021582,-0.9713 0.7913539,-0.2398 1.5947099,-0.3597 2.4100719,-0.3597 1.630679,0 2.793747,0.5516 3.489208,1.6547 0.719406,1.1031 1.079118,2.6019 1.079137,4.4964 l 0,14.0647 -3.021583,0 0,-14.0647 c -1.6e-5,-0.9832 -0.11992,-1.7506 -0.359712,-2.3022 -0.239824,-0.5515 -0.635507,-0.8273 -1.18705,-0.8273 -0.935266,0 -1.8345452,0.1679 -2.6978417,0.5036 -0.8633204,0.3118 -1.6666769,0.7194 -2.4100719,1.223 -0.743414,0.4796 -1.4148762,0.9952 -2.0143884,1.5468 -0.5995273,0.5276 -1.1031239,1.0072 -1.5107913,1.4388 l 0,12.482 -3.021582661853026,0"
           id="path3734" />
        <path
           d="m 22.644446,1037.2184 c -4e-6,0 -0.07195,-0.1199 -0.215827,-0.3598 -0.119908,-0.2637 -0.251802,-0.5395 -0.395684,-0.8273 -0.143888,-0.3117 -0.275782,-0.5875 -0.395683,-0.8273 -0.119907,-0.2638 -0.179859,-0.4077 -0.179856,-0.4317 0.311747,-0.1678 0.791363,-0.4316 1.438849,-0.7914 0.671457,-0.3596 1.438843,-0.7074 2.302158,-1.0431 0.863302,-0.3357 1.786562,-0.6355 2.769784,-0.8993 0.983203,-0.2638 1.978406,-0.3957 2.985611,-0.3957 1.031162,0 1.858499,0.2159 2.482015,0.6475 0.623485,0.4077 1.103101,0.9113 1.438848,1.5108 0.359696,0.5755 0.587514,1.199 0.683454,1.8705 0.119887,0.6475 0.179839,1.199 0.179856,1.6547 l 0,10.6475 c -1.7e-5,0.048 -1.7e-5,0.1558 0,0.3237 0.02396,0.1679 0.09591,0.3837 0.215827,0.6475 0.119887,0.2398 0.311733,0.5036 0.57554,0.7913 0.263771,0.2638 0.647463,0.5156 1.151079,0.7554 l -1.942446,1.7986 c -0.863326,-0.3357 -1.498817,-0.7794 -1.906475,-1.3309 -0.407689,-0.5516 -0.695458,-1.1391 -0.863309,-1.7626 -0.863323,0.9112 -1.870516,1.6546 -3.021583,2.2302 -1.151089,0.5755 -2.39809,0.8633 -3.741007,0.8633 -0.191854,0 -0.599527,-0.048 -1.223022,-0.1439 -0.599526,-0.096 -1.223026,-0.3237 -1.870503,-0.6834 -0.647486,-0.3598 -1.223025,-0.8993 -1.726619,-1.6187 -0.503599,-0.7195 -0.755397,-1.7027 -0.755395,-2.9497 -2e-6,-0.6475 0.08393,-1.2949 0.251798,-1.9424 0.167863,-0.6715 0.503595,-1.307 1.007194,-1.9065 0.527575,-0.5995 1.258989,-1.1271 2.194245,-1.5827 0.935245,-0.4796 2.158266,-0.8274 3.669065,-1.0432 1.318934,-0.1918 2.374089,-0.3477 3.165467,-0.4676 0.791354,-0.1199 1.402864,-0.2398 1.834532,-0.3597 l 0,-2.2662 c -1.4e-5,-0.1919 -0.02399,-0.4437 -0.07194,-0.7554 -0.02399,-0.3357 -0.119918,-0.6595 -0.28777,-0.9712 -0.143898,-0.3118 -0.371716,-0.5756 -0.683453,-0.7914 -0.287783,-0.2398 -0.683466,-0.3597 -1.18705,-0.3597 -0.503609,0 -1.055167,0.072 -1.654677,0.2158 -0.575549,0.1439 -1.163078,0.3238 -1.762589,0.5396 -0.575548,0.1918 -1.139096,0.4077 -1.690648,0.6474 -0.527584,0.2399 -0.995209,0.4677 -1.402878,0.6835 -0.407678,0.1919 -0.743409,0.3597 -1.007194,0.5036 -0.239812,0.1199 -0.359716,0.1799 -0.359712,0.1799 m 3.453237,12.5539 c 0.623493,0.048 1.246994,-0.012 1.870504,-0.1798 0.647472,-0.1919 1.258982,-0.4437 1.834532,-0.7554 0.599509,-0.3118 1.151067,-0.6715 1.654676,-1.0792 0.503584,-0.4316 0.935238,-0.8753 1.294964,-1.3309 l 0,-4.2446 c -0.551572,0.1199 -1.175072,0.2278 -1.870503,0.3237 -0.695455,0.096 -1.630706,0.2398 -2.805755,0.4317 -0.983222,0.1439 -1.774588,0.3597 -2.374101,0.6475 -0.575546,0.2638 -1.031181,0.5755 -1.366907,0.9352 -0.311756,0.3597 -0.515592,0.7434 -0.61151,1.1511 -0.09593,0.4077 -0.14389,0.8153 -0.143885,1.223 -5e-6,0.6235 0.107908,1.1271 0.323741,1.5108 0.215822,0.3597 0.45563,0.6475 0.719424,0.8633 0.287764,0.1919 0.563543,0.3238 0.827338,0.3957 0.287763,0.072 0.50359,0.1079 0.647482,0.1079"
           id="path3736" />
        <path
           d="m 49.35308,1031.6428 c 1.007183,0 1.894472,0.1679 2.661871,0.5036 0.767372,0.3118 1.402863,0.6715 1.906474,1.0791 0.599505,0.4557 1.103102,0.9833 1.510792,1.5828 l -1.906475,1.7985 c -0.263803,-0.4076 -0.599534,-0.7793 -1.007194,-1.1151 -0.335745,-0.2877 -0.767399,-0.5515 -1.294964,-0.7913 -0.52759,-0.2398 -1.175071,-0.3597 -1.942446,-0.3597 -0.623511,0 -1.259002,0.1678 -1.906475,0.5036 -0.623509,0.3117 -1.199048,0.8033 -1.726619,1.4748 -0.527584,0.6475 -0.959238,1.4748 -1.294964,2.482 -0.311755,1.0072 -0.467631,2.1823 -0.467626,3.5252 -5e-6,0.9832 0.119899,1.9184 0.359713,2.8057 0.263783,0.8873 0.611505,1.6667 1.043165,2.3382 0.455629,0.6714 1.007187,1.199 1.654676,1.5827 0.647474,0.3837 1.366897,0.5755 2.158274,0.5755 0.359701,0 0.707423,-0.024 1.043165,-0.072 0.359701,-0.048 0.719413,-0.1439 1.079137,-0.2878 0.38368,-0.1678 0.791354,-0.3957 1.223021,-0.6834 0.455622,-0.3118 0.947228,-0.7195 1.47482,-1.2231 l 1.870504,1.7986 c -0.719441,0.7194 -1.390903,1.295 -2.014389,1.7266 -0.599534,0.4077 -1.175073,0.7194 -1.726618,0.9353 -0.527591,0.2158 -1.043178,0.3477 -1.546763,0.3957 -0.479627,0.048 -0.947253,0.072 -1.402877,0.072 -1.247012,0 -2.374109,-0.2518 -3.381295,-0.7554 -1.0072,-0.5276 -1.870509,-1.235 -2.589928,-2.1223 -0.719428,-0.8873 -1.282977,-1.9305 -1.690648,-3.1295 -0.383695,-1.223 -0.575541,-2.542 -0.575539,-3.9568 -2e-6,-1.8705 0.263787,-3.4772 0.791367,-4.8202 0.527574,-1.3429 1.199036,-2.446 2.014388,-3.3093 0.815342,-0.8633 1.726612,-1.4988 2.733813,-1.9065 1.007186,-0.4316 1.990398,-0.6475 2.94964,-0.6475"
           id="path3738" />
        <path
           d="m 73.590935,1051.8586 c -0.167882,-0.048 -0.431671,-0.2278 -0.791367,-0.5395 -0.335746,-0.3358 -0.73143,-0.7434 -1.18705,-1.223 -0.45565,-0.5036 -0.947256,-1.0552 -1.47482,-1.6547 -0.527591,-0.5995 -1.055168,-1.1991 -1.582734,-1.7986 -0.503608,-0.5995 -0.995214,-1.175 -1.47482,-1.7266 -0.479626,-0.5516 -0.89929,-1.0312 -1.258993,-1.4389 -0.35972,-0.3836 -0.671471,-0.6714 -0.935252,-0.8633 -0.263796,-0.2158 -0.527585,-0.3597 -0.791366,-0.4316 -0.143892,-0.048 -0.311758,-0.06 -0.503598,-0.036 -0.167872,0.024 -0.287775,0.048 -0.359712,0.072 l 0,9.6402 -3.021582,0 0,-29.4964 3.021582,0 0,16.6907 c 0.04796,-0.048 0.251792,-0.1918 0.611511,-0.4317 0.359705,-0.2398 0.791359,-0.5395 1.294964,-0.8992 0.527569,-0.3837 1.091118,-0.8154 1.690647,-1.295 0.599511,-0.4796 1.175049,-0.9712 1.726619,-1.4748 0.575528,-0.5036 1.091115,-0.9952 1.546763,-1.4749 0.455622,-0.5035 0.791353,-0.9712 1.007194,-1.4028 l 3.057554,0 c -0.143902,0.5036 -0.503614,1.1031 -1.079137,1.7985 -0.575555,0.6955 -1.270998,1.4149 -2.086331,2.1583 -0.79138,0.7194 -1.642698,1.4389 -2.553957,2.1583 -0.8873,0.7194 -1.714637,1.3669 -2.482014,1.9424 0.335722,0.1199 0.671453,0.2998 1.007194,0.5396 0.335722,0.2158 0.671453,0.5036 1.007194,0.8633 0.383682,0.4556 0.875289,1.0312 1.474821,1.7266 0.623488,0.6955 1.270969,1.4269 1.942446,2.1943 0.695428,0.7674 1.390871,1.5347 2.08633,2.3021 0.695427,0.7434 1.330918,1.4269 1.906475,2.0504 0.599502,0.5995 1.103098,1.0911 1.510792,1.4748 0.407653,0.3837 0.659452,0.5755 0.755395,0.5755 l -4.064748,0"
           id="path3740" />
        <path
           d="m 87.010452,1031.6428 c 1.007182,0 1.894472,0.1679 2.66187,0.5036 0.767372,0.3118 1.402863,0.6715 1.906475,1.0791 0.599505,0.4557 1.103101,0.9833 1.510791,1.5828 l -1.906475,1.7985 c -0.263803,-0.4076 -0.599534,-0.7793 -1.007194,-1.1151 -0.335744,-0.2877 -0.767399,-0.5515 -1.294964,-0.7913 -0.527589,-0.2398 -1.175071,-0.3597 -1.942446,-0.3597 -0.623511,0 -1.259002,0.1678 -1.906475,0.5036 -0.623509,0.3117 -1.199047,0.8033 -1.726618,1.4748 -0.527584,0.6475 -0.959239,1.4748 -1.294964,2.482 -0.311756,1.0072 -0.467631,2.1823 -0.467626,3.5252 -5e-6,0.9832 0.119899,1.9184 0.359712,2.8057 0.263784,0.8873 0.611505,1.6667 1.043166,2.3382 0.455628,0.6714 1.007186,1.199 1.654676,1.5827 0.647473,0.3837 1.366897,0.5755 2.158273,0.5755 0.359702,0 0.707423,-0.024 1.043166,-0.072 0.3597,-0.048 0.719412,-0.1439 1.079136,-0.2878 0.383681,-0.1678 0.791354,-0.3957 1.223022,-0.6834 0.455621,-0.3118 0.947227,-0.7195 1.47482,-1.2231 l 1.870503,1.7986 c -0.71944,0.7194 -1.390902,1.295 -2.014388,1.7266 -0.599535,0.4077 -1.175074,0.7194 -1.726619,0.9353 -0.52759,0.2158 -1.043177,0.3477 -1.546762,0.3957 -0.479628,0.048 -0.947253,0.072 -1.402878,0.072 -1.247011,0 -2.374108,-0.2518 -3.381295,-0.7554 -1.0072,-0.5276 -1.870508,-1.235 -2.589928,-2.1223 -0.719428,-0.8873 -1.282976,-1.9305 -1.690647,-3.1295 -0.383695,-1.223 -0.575542,-2.542 -0.57554,-3.9568 -2e-6,-1.8705 0.263787,-3.4772 0.791367,-4.8202 0.527575,-1.3429 1.199037,-2.446 2.014389,-3.3093 0.815342,-0.8633 1.726612,-1.4988 2.733813,-1.9065 1.007185,-0.4316 1.990398,-0.6475 2.94964,-0.6475"
           id="path3742" />
        <path
           d="m 96.787883,1042.1824 c -2e-6,-1.4389 0.191844,-2.7938 0.57554,-4.0648 0.407671,-1.2949 0.983209,-2.41 1.726618,-3.3453 0.743401,-0.9592 1.630689,-1.7146 2.661869,-2.2662 1.05515,-0.5755 2.23021,-0.8633 3.52518,-0.8633 1.22301,0 2.26618,0.1919 3.1295,0.5756 0.88727,0.3597 1.61869,0.8273 2.19424,1.4028 0.59951,0.5516 1.06713,1.1751 1.40288,1.8705 0.35969,0.6955 0.63547,1.3789 0.82734,2.0504 0.19183,0.6475 0.31173,1.235 0.35971,1.7626 0.0479,0.5036 0.0719,0.8753 0.0719,1.1151 l 0,1.4029 -13.489206,0 c -0.04797,1.175 0.03597,2.2422 0.251796,3.2014 0.23981,0.9592 0.59952,1.7866 1.07914,2.482 0.47961,0.6955 1.07913,1.235 1.79856,1.6187 0.71942,0.3837 1.55874,0.5756 2.51799,0.5756 0.26377,0 0.59951,-0.012 1.00719,-0.036 0.40766,-0.024 0.87529,-0.1439 1.40288,-0.3597 0.52756,-0.2158 1.1031,-0.5516 1.72662,-1.0072 0.62348,-0.4796 1.28295,-1.1751 1.97841,-2.0863 l 1.83454,1.7626 c -0.91129,1.1271 -1.76261,1.9904 -2.55396,2.5899 -0.79138,0.5755 -1.53479,0.9952 -2.23022,1.259 -0.67147,0.2398 -1.28298,0.3717 -1.83453,0.3957 -0.52759,0.048 -0.97123,0.072 -1.33093,0.072 -1.43886,0 -2.69785,-0.2638 -3.77698,-0.7914 -1.07914,-0.5515 -1.978424,-1.2829 -2.697844,-2.1942 -0.719427,-0.9353 -1.258995,-2.0144 -1.618705,-3.2374 -0.359714,-1.223 -0.53957,-2.518 -0.539568,-3.8849 m 8.489207,-7.9497 c -0.67147,10e-5 -1.28298,0.132 -1.83453,0.3957 -0.52759,0.2399 -1.0072,0.5876 -1.43885,1.0432 -0.40768,0.4317 -0.76739,0.9473 -1.07914,1.5468 -0.31175,0.5995 -0.56355,1.247 -0.75539,1.9424 l 10.03597,0 c -0.072,-0.5036 -0.21584,-1.0432 -0.43166,-1.6187 -0.21584,-0.5755 -0.5156,-1.1031 -0.89928,-1.5827 -0.3837,-0.5036 -0.87531,-0.9113 -1.47482,-1.2231 -0.57555,-0.3357 -1.28298,-0.5035 -2.1223,-0.5036"
           id="path3744" />
        <path
           d="m 118.59262,1051.8586 0,-19.7841 3.02158,0 0,3.8129 c 0.55156,-0.5275 1.15108,-1.0431 1.79856,-1.5467 0.67146,-0.5276 1.37889,-0.9832 2.12231,-1.3669 0.74339,-0.4077 1.51078,-0.7314 2.30215,-0.9713 0.79136,-0.2398 1.59472,-0.3597 2.41008,-0.3597 1.63068,0 2.79374,0.5516 3.48921,1.6547 0.7194,1.1031 1.07911,2.6019 1.07913,4.4964 l 0,14.0647 -3.02158,0 0,-14.0647 c -2e-5,-0.9832 -0.11992,-1.7506 -0.35971,-2.3022 -0.23983,-0.5515 -0.63551,-0.8273 -1.18705,-0.8273 -0.91129,0 -1.78659,0.1559 -2.6259,0.4676 -0.81536,0.3118 -1.59474,0.7075 -2.33813,1.1871 -0.71944,0.4556 -1.3909,0.9592 -2.01439,1.5108 -0.62351,0.5515 -1.17507,1.0671 -1.65468,1.5467 l 0,12.482 -3.02158,0"
           id="path3746" />
        <path
           d="m 146.41693,1052.1464 c -1.10313,0 -2.09833,-0.2638 -2.98561,-0.7914 -0.8873,-0.5515 -1.6427,-1.2829 -2.26619,-2.1942 -0.62351,-0.9113 -1.10312,-1.9544 -1.43885,-3.1295 -0.33573,-1.199 -0.5036,-2.446 -0.5036,-3.741 0,-3.3813 0.7434,-5.9952 2.23022,-7.8417 1.51078,-1.8705 3.56114,-2.8058 6.15108,-2.8058 0.9832,0 1.99039,0.2398 3.02158,0.7194 1.05514,0.4557 2.09831,1.1272 3.1295,2.0144 l 0,-12.0144 3.02158,0 0,24.7482 c -0.024,0.4797 0.036,0.9353 0.17985,1.3669 0.11989,0.3598 0.32373,0.7315 0.61152,1.1152 0.28774,0.3597 0.7194,0.6354 1.29496,0.8273 l -1.90648,1.9424 c -0.62352,-0.2158 -1.12711,-0.4796 -1.51079,-0.7913 -0.35973,-0.3358 -0.6475,-0.6835 -0.86331,-1.0432 -0.21584,-0.3597 -0.37172,-0.7074 -0.46762,-1.0432 -0.0959,-0.3597 -0.15589,-0.6834 -0.17986,-0.9712 -0.95925,1.0792 -2.06236,1.9664 -3.30935,2.6619 -1.24701,0.6715 -2.64989,0.9952 -4.20863,0.9712 m 0,-2.9137 c 0.95922,0.072 1.82253,-0.048 2.58992,-0.3597 0.76738,-0.3117 1.45083,-0.7194 2.05036,-1.223 0.62349,-0.5036 1.15107,-1.0432 1.58274,-1.6187 0.45562,-0.5995 0.82732,-1.1271 1.11511,-1.5827 l 0,-6.5828 c -1.00721,-0.9832 -2.05038,-1.7745 -3.1295,-2.3741 -1.07915,-0.5995 -2.08634,-0.8992 -3.02158,-0.8992 -1.60673,0 -2.8897,0.6714 -3.84892,2.0143 -0.95924,1.343 -1.43886,3.2375 -1.43885,5.6835 -1e-5,0.9113 0.0959,1.7746 0.28777,2.5899 0.19184,0.8154 0.46762,1.5468 0.82734,2.1943 0.3597,0.6235 0.79136,1.1271 1.29496,1.5108 0.50359,0.3837 1.06714,0.5995 1.69065,0.6474"
           id="path3748" />
        <path
           d="m 162.19648,1041.9666 c 0,-1.8945 0.23981,-3.4892 0.71943,-4.7842 0.50359,-1.3189 1.15107,-2.3861 1.94244,-3.2015 0.81535,-0.8153 1.73861,-1.4028 2.76979,-1.7625 1.03116,-0.3837 2.08632,-0.5756 3.16546,-0.5756 1.07913,0 2.13428,0.1919 3.16547,0.5756 1.03116,0.3597 1.94243,0.9472 2.73382,1.7625 0.81533,0.8154 1.46281,1.8826 1.94244,3.2015 0.50358,1.3189 0.75538,2.9137 0.7554,4.7842 -2e-5,1.9184 -0.25182,3.5371 -0.7554,4.8561 -0.47963,1.2949 -1.12711,2.3501 -1.94244,3.1654 -0.79139,0.8154 -1.70266,1.4029 -2.73382,1.7626 -1.03119,0.3597 -2.08634,0.5396 -3.16547,0.5396 -1.07914,0 -2.1343,-0.1679 -3.16546,-0.5036 -1.03118,-0.3597 -1.95444,-0.9353 -2.76979,-1.7266 -0.79137,-0.8154 -1.43885,-1.8825 -1.94244,-3.2015 -0.47962,-1.3189 -0.71943,-2.9496 -0.71943,-4.892 m 14.17266,0 c -10e-6,-1.3909 -0.16788,-2.578 -0.50359,-3.5612 -0.31177,-1.0072 -0.73143,-1.8225 -1.259,-2.446 -0.52759,-0.6235 -1.12711,-1.0792 -1.79856,-1.3669 -0.67147,-0.3118 -1.34293,-0.4677 -2.01439,-0.4677 -0.69545,0 -1.3789,0.1439 -2.05035,0.4317 -0.64749,0.2638 -1.23502,0.7074 -1.76259,1.3309 -0.52759,0.6235 -0.95924,1.4389 -1.29497,2.4461 -0.31175,0.9832 -0.46763,2.1942 -0.46762,3.6331 -1e-5,1.4148 0.15587,2.6259 0.46762,3.633 0.33573,1.0072 0.76738,1.8226 1.29497,2.4461 0.52757,0.6235 1.1151,1.0791 1.76259,1.3669 0.67145,0.2878 1.3549,0.4317 2.05035,0.4317 0.67146,0 1.34292,-0.1319 2.01439,-0.3957 0.67145,-0.2878 1.27097,-0.7434 1.79856,-1.3669 0.52757,-0.6235 0.94723,-1.4389 1.259,-2.4461 0.33571,-1.0072 0.50358,-2.2302 0.50359,-3.669"
           id="path3750" />
      </g>
    </clipPath>
    <clipPath
       clipPathUnits="userSpaceOnUse"
       id="clipPath3752">
      <g
         style="font-size:35.97122192px;font-style:normal;font-variant:normal;font-weight:normal;font-stretch:normal;text-align:start;line-height:100%;writing-mode:lr-tb;text-anchor:start;fill:#ef2929;fill-opacity:1;stroke:none;font-family:Junction;-inkscape-font-specification:Junction"
         id="g3754">
        <path
           d="m 3.8146973e-8,1051.8586 0,-29.4964 3.021582661853027,0 0,13.5252 c 0.5515521,-0.5275 1.1510719,-1.0431 1.7985611,-1.5467 0.6714543,-0.5276 1.3788876,-0.9832 2.1223021,-1.3669 0.7433945,-0.4077 1.5107798,-0.7314 2.3021582,-0.9713 0.7913539,-0.2398 1.5947099,-0.3597 2.4100719,-0.3597 1.630679,0 2.793747,0.5516 3.489208,1.6547 0.719406,1.1031 1.079118,2.6019 1.079137,4.4964 l 0,14.0647 -3.021583,0 0,-14.0647 c -1.6e-5,-0.9832 -0.11992,-1.7506 -0.359712,-2.3022 -0.239824,-0.5515 -0.635507,-0.8273 -1.18705,-0.8273 -0.935266,0 -1.8345452,0.1679 -2.6978417,0.5036 -0.8633204,0.3118 -1.6666769,0.7194 -2.4100719,1.223 -0.743414,0.4796 -1.4148762,0.9952 -2.0143884,1.5468 -0.5995273,0.5276 -1.1031239,1.0072 -1.5107913,1.4388 l 0,12.482 -3.021582661853026,0"
           id="path3756" />
        <path
           d="m 22.644446,1037.2184 c -4e-6,0 -0.07195,-0.1199 -0.215827,-0.3598 -0.119908,-0.2637 -0.251802,-0.5395 -0.395684,-0.8273 -0.143888,-0.3117 -0.275782,-0.5875 -0.395683,-0.8273 -0.119907,-0.2638 -0.179859,-0.4077 -0.179856,-0.4317 0.311747,-0.1678 0.791363,-0.4316 1.438849,-0.7914 0.671457,-0.3596 1.438843,-0.7074 2.302158,-1.0431 0.863302,-0.3357 1.786562,-0.6355 2.769784,-0.8993 0.983203,-0.2638 1.978406,-0.3957 2.985611,-0.3957 1.031162,0 1.858499,0.2159 2.482015,0.6475 0.623485,0.4077 1.103101,0.9113 1.438848,1.5108 0.359696,0.5755 0.587514,1.199 0.683454,1.8705 0.119887,0.6475 0.179839,1.199 0.179856,1.6547 l 0,10.6475 c -1.7e-5,0.048 -1.7e-5,0.1558 0,0.3237 0.02396,0.1679 0.09591,0.3837 0.215827,0.6475 0.119887,0.2398 0.311733,0.5036 0.57554,0.7913 0.263771,0.2638 0.647463,0.5156 1.151079,0.7554 l -1.942446,1.7986 c -0.863326,-0.3357 -1.498817,-0.7794 -1.906475,-1.3309 -0.407689,-0.5516 -0.695458,-1.1391 -0.863309,-1.7626 -0.863323,0.9112 -1.870516,1.6546 -3.021583,2.2302 -1.151089,0.5755 -2.39809,0.8633 -3.741007,0.8633 -0.191854,0 -0.599527,-0.048 -1.223022,-0.1439 -0.599526,-0.096 -1.223026,-0.3237 -1.870503,-0.6834 -0.647486,-0.3598 -1.223025,-0.8993 -1.726619,-1.6187 -0.503599,-0.7195 -0.755397,-1.7027 -0.755395,-2.9497 -2e-6,-0.6475 0.08393,-1.2949 0.251798,-1.9424 0.167863,-0.6715 0.503595,-1.307 1.007194,-1.9065 0.527575,-0.5995 1.258989,-1.1271 2.194245,-1.5827 0.935245,-0.4796 2.158266,-0.8274 3.669065,-1.0432 1.318934,-0.1918 2.374089,-0.3477 3.165467,-0.4676 0.791354,-0.1199 1.402864,-0.2398 1.834532,-0.3597 l 0,-2.2662 c -1.4e-5,-0.1919 -0.02399,-0.4437 -0.07194,-0.7554 -0.02399,-0.3357 -0.119918,-0.6595 -0.28777,-0.9712 -0.143898,-0.3118 -0.371716,-0.5756 -0.683453,-0.7914 -0.287783,-0.2398 -0.683466,-0.3597 -1.18705,-0.3597 -0.503609,0 -1.055167,0.072 -1.654677,0.2158 -0.575549,0.1439 -1.163078,0.3238 -1.762589,0.5396 -0.575548,0.1918 -1.139096,0.4077 -1.690648,0.6474 -0.527584,0.2399 -0.995209,0.4677 -1.402878,0.6835 -0.407678,0.1919 -0.743409,0.3597 -1.007194,0.5036 -0.239812,0.1199 -0.359716,0.1799 -0.359712,0.1799 m 3.453237,12.5539 c 0.623493,0.048 1.246994,-0.012 1.870504,-0.1798 0.647472,-0.1919 1.258982,-0.4437 1.834532,-0.7554 0.599509,-0.3118 1.151067,-0.6715 1.654676,-1.0792 0.503584,-0.4316 0.935238,-0.8753 1.294964,-1.3309 l 0,-4.2446 c -0.551572,0.1199 -1.175072,0.2278 -1.870503,0.3237 -0.695455,0.096 -1.630706,0.2398 -2.805755,0.4317 -0.983222,0.1439 -1.774588,0.3597 -2.374101,0.6475 -0.575546,0.2638 -1.031181,0.5755 -1.366907,0.9352 -0.311756,0.3597 -0.515592,0.7434 -0.61151,1.1511 -0.09593,0.4077 -0.14389,0.8153 -0.143885,1.223 -5e-6,0.6235 0.107908,1.1271 0.323741,1.5108 0.215822,0.3597 0.45563,0.6475 0.719424,0.8633 0.287764,0.1919 0.563543,0.3238 0.827338,0.3957 0.287763,0.072 0.50359,0.1079 0.647482,0.1079"
           id="path3758" />
        <path
           d="m 49.35308,1031.6428 c 1.007183,0 1.894472,0.1679 2.661871,0.5036 0.767372,0.3118 1.402863,0.6715 1.906474,1.0791 0.599505,0.4557 1.103102,0.9833 1.510792,1.5828 l -1.906475,1.7985 c -0.263803,-0.4076 -0.599534,-0.7793 -1.007194,-1.1151 -0.335745,-0.2877 -0.767399,-0.5515 -1.294964,-0.7913 -0.52759,-0.2398 -1.175071,-0.3597 -1.942446,-0.3597 -0.623511,0 -1.259002,0.1678 -1.906475,0.5036 -0.623509,0.3117 -1.199048,0.8033 -1.726619,1.4748 -0.527584,0.6475 -0.959238,1.4748 -1.294964,2.482 -0.311755,1.0072 -0.467631,2.1823 -0.467626,3.5252 -5e-6,0.9832 0.119899,1.9184 0.359713,2.8057 0.263783,0.8873 0.611505,1.6667 1.043165,2.3382 0.455629,0.6714 1.007187,1.199 1.654676,1.5827 0.647474,0.3837 1.366897,0.5755 2.158274,0.5755 0.359701,0 0.707423,-0.024 1.043165,-0.072 0.359701,-0.048 0.719413,-0.1439 1.079137,-0.2878 0.38368,-0.1678 0.791354,-0.3957 1.223021,-0.6834 0.455622,-0.3118 0.947228,-0.7195 1.47482,-1.2231 l 1.870504,1.7986 c -0.719441,0.7194 -1.390903,1.295 -2.014389,1.7266 -0.599534,0.4077 -1.175073,0.7194 -1.726618,0.9353 -0.527591,0.2158 -1.043178,0.3477 -1.546763,0.3957 -0.479627,0.048 -0.947253,0.072 -1.402877,0.072 -1.247012,0 -2.374109,-0.2518 -3.381295,-0.7554 -1.0072,-0.5276 -1.870509,-1.235 -2.589928,-2.1223 -0.719428,-0.8873 -1.282977,-1.9305 -1.690648,-3.1295 -0.383695,-1.223 -0.575541,-2.542 -0.575539,-3.9568 -2e-6,-1.8705 0.263787,-3.4772 0.791367,-4.8202 0.527574,-1.3429 1.199036,-2.446 2.014388,-3.3093 0.815342,-0.8633 1.726612,-1.4988 2.733813,-1.9065 1.007186,-0.4316 1.990398,-0.6475 2.94964,-0.6475"
           id="path3760" />
        <path
           d="m 73.590935,1051.8586 c -0.167882,-0.048 -0.431671,-0.2278 -0.791367,-0.5395 -0.335746,-0.3358 -0.73143,-0.7434 -1.18705,-1.223 -0.45565,-0.5036 -0.947256,-1.0552 -1.47482,-1.6547 -0.527591,-0.5995 -1.055168,-1.1991 -1.582734,-1.7986 -0.503608,-0.5995 -0.995214,-1.175 -1.47482,-1.7266 -0.479626,-0.5516 -0.89929,-1.0312 -1.258993,-1.4389 -0.35972,-0.3836 -0.671471,-0.6714 -0.935252,-0.8633 -0.263796,-0.2158 -0.527585,-0.3597 -0.791366,-0.4316 -0.143892,-0.048 -0.311758,-0.06 -0.503598,-0.036 -0.167872,0.024 -0.287775,0.048 -0.359712,0.072 l 0,9.6402 -3.021582,0 0,-29.4964 3.021582,0 0,16.6907 c 0.04796,-0.048 0.251792,-0.1918 0.611511,-0.4317 0.359705,-0.2398 0.791359,-0.5395 1.294964,-0.8992 0.527569,-0.3837 1.091118,-0.8154 1.690647,-1.295 0.599511,-0.4796 1.175049,-0.9712 1.726619,-1.4748 0.575528,-0.5036 1.091115,-0.9952 1.546763,-1.4749 0.455622,-0.5035 0.791353,-0.9712 1.007194,-1.4028 l 3.057554,0 c -0.143902,0.5036 -0.503614,1.1031 -1.079137,1.7985 -0.575555,0.6955 -1.270998,1.4149 -2.086331,2.1583 -0.79138,0.7194 -1.642698,1.4389 -2.553957,2.1583 -0.8873,0.7194 -1.714637,1.3669 -2.482014,1.9424 0.335722,0.1199 0.671453,0.2998 1.007194,0.5396 0.335722,0.2158 0.671453,0.5036 1.007194,0.8633 0.383682,0.4556 0.875289,1.0312 1.474821,1.7266 0.623488,0.6955 1.270969,1.4269 1.942446,2.1943 0.695428,0.7674 1.390871,1.5347 2.08633,2.3021 0.695427,0.7434 1.330918,1.4269 1.906475,2.0504 0.599502,0.5995 1.103098,1.0911 1.510792,1.4748 0.407653,0.3837 0.659452,0.5755 0.755395,0.5755 l -4.064748,0"
           id="path3762" />
        <path
           d="m 87.010452,1031.6428 c 1.007182,0 1.894472,0.1679 2.66187,0.5036 0.767372,0.3118 1.402863,0.6715 1.906475,1.0791 0.599505,0.4557 1.103101,0.9833 1.510791,1.5828 l -1.906475,1.7985 c -0.263803,-0.4076 -0.599534,-0.7793 -1.007194,-1.1151 -0.335744,-0.2877 -0.767399,-0.5515 -1.294964,-0.7913 -0.527589,-0.2398 -1.175071,-0.3597 -1.942446,-0.3597 -0.623511,0 -1.259002,0.1678 -1.906475,0.5036 -0.623509,0.3117 -1.199047,0.8033 -1.726618,1.4748 -0.527584,0.6475 -0.959239,1.4748 -1.294964,2.482 -0.311756,1.0072 -0.467631,2.1823 -0.467626,3.5252 -5e-6,0.9832 0.119899,1.9184 0.359712,2.8057 0.263784,0.8873 0.611505,1.6667 1.043166,2.3382 0.455628,0.6714 1.007186,1.199 1.654676,1.5827 0.647473,0.3837 1.366897,0.5755 2.158273,0.5755 0.359702,0 0.707423,-0.024 1.043166,-0.072 0.3597,-0.048 0.719412,-0.1439 1.079136,-0.2878 0.383681,-0.1678 0.791354,-0.3957 1.223022,-0.6834 0.455621,-0.3118 0.947227,-0.7195 1.47482,-1.2231 l 1.870503,1.7986 c -0.71944,0.7194 -1.390902,1.295 -2.014388,1.7266 -0.599535,0.4077 -1.175074,0.7194 -1.726619,0.9353 -0.52759,0.2158 -1.043177,0.3477 -1.546762,0.3957 -0.479628,0.048 -0.947253,0.072 -1.402878,0.072 -1.247011,0 -2.374108,-0.2518 -3.381295,-0.7554 -1.0072,-0.5276 -1.870508,-1.235 -2.589928,-2.1223 -0.719428,-0.8873 -1.282976,-1.9305 -1.690647,-3.1295 -0.383695,-1.223 -0.575542,-2.542 -0.57554,-3.9568 -2e-6,-1.8705 0.263787,-3.4772 0.791367,-4.8202 0.527575,-1.3429 1.199037,-2.446 2.014389,-3.3093 0.815342,-0.8633 1.726612,-1.4988 2.733813,-1.9065 1.007185,-0.4316 1.990398,-0.6475 2.94964,-0.6475"
           id="path3764" />
        <path
           d="m 96.787883,1042.1824 c -2e-6,-1.4389 0.191844,-2.7938 0.57554,-4.0648 0.407671,-1.2949 0.983209,-2.41 1.726618,-3.3453 0.743401,-0.9592 1.630689,-1.7146 2.661869,-2.2662 1.05515,-0.5755 2.23021,-0.8633 3.52518,-0.8633 1.22301,0 2.26618,0.1919 3.1295,0.5756 0.88727,0.3597 1.61869,0.8273 2.19424,1.4028 0.59951,0.5516 1.06713,1.1751 1.40288,1.8705 0.35969,0.6955 0.63547,1.3789 0.82734,2.0504 0.19183,0.6475 0.31173,1.235 0.35971,1.7626 0.0479,0.5036 0.0719,0.8753 0.0719,1.1151 l 0,1.4029 -13.489206,0 c -0.04797,1.175 0.03597,2.2422 0.251796,3.2014 0.23981,0.9592 0.59952,1.7866 1.07914,2.482 0.47961,0.6955 1.07913,1.235 1.79856,1.6187 0.71942,0.3837 1.55874,0.5756 2.51799,0.5756 0.26377,0 0.59951,-0.012 1.00719,-0.036 0.40766,-0.024 0.87529,-0.1439 1.40288,-0.3597 0.52756,-0.2158 1.1031,-0.5516 1.72662,-1.0072 0.62348,-0.4796 1.28295,-1.1751 1.97841,-2.0863 l 1.83454,1.7626 c -0.91129,1.1271 -1.76261,1.9904 -2.55396,2.5899 -0.79138,0.5755 -1.53479,0.9952 -2.23022,1.259 -0.67147,0.2398 -1.28298,0.3717 -1.83453,0.3957 -0.52759,0.048 -0.97123,0.072 -1.33093,0.072 -1.43886,0 -2.69785,-0.2638 -3.77698,-0.7914 -1.07914,-0.5515 -1.978424,-1.2829 -2.697844,-2.1942 -0.719427,-0.9353 -1.258995,-2.0144 -1.618705,-3.2374 -0.359714,-1.223 -0.53957,-2.518 -0.539568,-3.8849 m 8.489207,-7.9497 c -0.67147,10e-5 -1.28298,0.132 -1.83453,0.3957 -0.52759,0.2399 -1.0072,0.5876 -1.43885,1.0432 -0.40768,0.4317 -0.76739,0.9473 -1.07914,1.5468 -0.31175,0.5995 -0.56355,1.247 -0.75539,1.9424 l 10.03597,0 c -0.072,-0.5036 -0.21584,-1.0432 -0.43166,-1.6187 -0.21584,-0.5755 -0.5156,-1.1031 -0.89928,-1.5827 -0.3837,-0.5036 -0.87531,-0.9113 -1.47482,-1.2231 -0.57555,-0.3357 -1.28298,-0.5035 -2.1223,-0.5036"
           id="path3766" />
        <path
           d="m 118.59262,1051.8586 0,-19.7841 3.02158,0 0,3.8129 c 0.55156,-0.5275 1.15108,-1.0431 1.79856,-1.5467 0.67146,-0.5276 1.37889,-0.9832 2.12231,-1.3669 0.74339,-0.4077 1.51078,-0.7314 2.30215,-0.9713 0.79136,-0.2398 1.59472,-0.3597 2.41008,-0.3597 1.63068,0 2.79374,0.5516 3.48921,1.6547 0.7194,1.1031 1.07911,2.6019 1.07913,4.4964 l 0,14.0647 -3.02158,0 0,-14.0647 c -2e-5,-0.9832 -0.11992,-1.7506 -0.35971,-2.3022 -0.23983,-0.5515 -0.63551,-0.8273 -1.18705,-0.8273 -0.91129,0 -1.78659,0.1559 -2.6259,0.4676 -0.81536,0.3118 -1.59474,0.7075 -2.33813,1.1871 -0.71944,0.4556 -1.3909,0.9592 -2.01439,1.5108 -0.62351,0.5515 -1.17507,1.0671 -1.65468,1.5467 l 0,12.482 -3.02158,0"
           id="path3768" />
        <path
           d="m 146.41693,1052.1464 c -1.10313,0 -2.09833,-0.2638 -2.98561,-0.7914 -0.8873,-0.5515 -1.6427,-1.2829 -2.26619,-2.1942 -0.62351,-0.9113 -1.10312,-1.9544 -1.43885,-3.1295 -0.33573,-1.199 -0.5036,-2.446 -0.5036,-3.741 0,-3.3813 0.7434,-5.9952 2.23022,-7.8417 1.51078,-1.8705 3.56114,-2.8058 6.15108,-2.8058 0.9832,0 1.99039,0.2398 3.02158,0.7194 1.05514,0.4557 2.09831,1.1272 3.1295,2.0144 l 0,-12.0144 3.02158,0 0,24.7482 c -0.024,0.4797 0.036,0.9353 0.17985,1.3669 0.11989,0.3598 0.32373,0.7315 0.61152,1.1152 0.28774,0.3597 0.7194,0.6354 1.29496,0.8273 l -1.90648,1.9424 c -0.62352,-0.2158 -1.12711,-0.4796 -1.51079,-0.7913 -0.35973,-0.3358 -0.6475,-0.6835 -0.86331,-1.0432 -0.21584,-0.3597 -0.37172,-0.7074 -0.46762,-1.0432 -0.0959,-0.3597 -0.15589,-0.6834 -0.17986,-0.9712 -0.95925,1.0792 -2.06236,1.9664 -3.30935,2.6619 -1.24701,0.6715 -2.64989,0.9952 -4.20863,0.9712 m 0,-2.9137 c 0.95922,0.072 1.82253,-0.048 2.58992,-0.3597 0.76738,-0.3117 1.45083,-0.7194 2.05036,-1.223 0.62349,-0.5036 1.15107,-1.0432 1.58274,-1.6187 0.45562,-0.5995 0.82732,-1.1271 1.11511,-1.5827 l 0,-6.5828 c -1.00721,-0.9832 -2.05038,-1.7745 -3.1295,-2.3741 -1.07915,-0.5995 -2.08634,-0.8992 -3.02158,-0.8992 -1.60673,0 -2.8897,0.6714 -3.84892,2.0143 -0.95924,1.343 -1.43886,3.2375 -1.43885,5.6835 -1e-5,0.9113 0.0959,1.7746 0.28777,2.5899 0.19184,0.8154 0.46762,1.5468 0.82734,2.1943 0.3597,0.6235 0.79136,1.1271 1.29496,1.5108 0.50359,0.3837 1.06714,0.5995 1.69065,0.6474"
           id="path3770" />
        <path
           d="m 162.19648,1041.9666 c 0,-1.8945 0.23981,-3.4892 0.71943,-4.7842 0.50359,-1.3189 1.15107,-2.3861 1.94244,-3.2015 0.81535,-0.8153 1.73861,-1.4028 2.76979,-1.7625 1.03116,-0.3837 2.08632,-0.5756 3.16546,-0.5756 1.07913,0 2.13428,0.1919 3.16547,0.5756 1.03116,0.3597 1.94243,0.9472 2.73382,1.7625 0.81533,0.8154 1.46281,1.8826 1.94244,3.2015 0.50358,1.3189 0.75538,2.9137 0.7554,4.7842 -2e-5,1.9184 -0.25182,3.5371 -0.7554,4.8561 -0.47963,1.2949 -1.12711,2.3501 -1.94244,3.1654 -0.79139,0.8154 -1.70266,1.4029 -2.73382,1.7626 -1.03119,0.3597 -2.08634,0.5396 -3.16547,0.5396 -1.07914,0 -2.1343,-0.1679 -3.16546,-0.5036 -1.03118,-0.3597 -1.95444,-0.9353 -2.76979,-1.7266 -0.79137,-0.8154 -1.43885,-1.8825 -1.94244,-3.2015 -0.47962,-1.3189 -0.71943,-2.9496 -0.71943,-4.892 m 14.17266,0 c -10e-6,-1.3909 -0.16788,-2.578 -0.50359,-3.5612 -0.31177,-1.0072 -0.73143,-1.8225 -1.259,-2.446 -0.52759,-0.6235 -1.12711,-1.0792 -1.79856,-1.3669 -0.67147,-0.3118 -1.34293,-0.4677 -2.01439,-0.4677 -0.69545,0 -1.3789,0.1439 -2.05035,0.4317 -0.64749,0.2638 -1.23502,0.7074 -1.76259,1.3309 -0.52759,0.6235 -0.95924,1.4389 -1.29497,2.4461 -0.31175,0.9832 -0.46763,2.1942 -0.46762,3.6331 -1e-5,1.4148 0.15587,2.6259 0.46762,3.633 0.33573,1.0072 0.76738,1.8226 1.29497,2.4461 0.52757,0.6235 1.1151,1.0791 1.76259,1.3669 0.67145,0.2878 1.3549,0.4317 2.05035,0.4317 0.67146,0 1.34292,-0.1319 2.01439,-0.3957 0.67145,-0.2878 1.27097,-0.7434 1.79856,-1.3669 0.52757,-0.6235 0.94723,-1.4389 1.259,-2.4461 0.33571,-1.0072 0.50358,-2.2302 0.50359,-3.669"
           id="path3772" />
      </g>
    </clipPath>
    <clipPath
       clipPathUnits="userSpaceOnUse"
       id="clipPath3774">
      <g
         style="font-size:35.97122192px;font-style:normal;font-variant:normal;font-weight:normal;font-stretch:normal;text-align:start;line-height:100%;writing-mode:lr-tb;text-anchor:start;fill:#ef2929;fill-opacity:1;stroke:none;font-family:Junction;-inkscape-font-specification:Junction"
         id="g3776">
        <path
           d="m 3.8146973e-8,1051.8586 0,-29.4964 3.021582661853027,0 0,13.5252 c 0.5515521,-0.5275 1.1510719,-1.0431 1.7985611,-1.5467 0.6714543,-0.5276 1.3788876,-0.9832 2.1223021,-1.3669 0.7433945,-0.4077 1.5107798,-0.7314 2.3021582,-0.9713 0.7913539,-0.2398 1.5947099,-0.3597 2.4100719,-0.3597 1.630679,0 2.793747,0.5516 3.489208,1.6547 0.719406,1.1031 1.079118,2.6019 1.079137,4.4964 l 0,14.0647 -3.021583,0 0,-14.0647 c -1.6e-5,-0.9832 -0.11992,-1.7506 -0.359712,-2.3022 -0.239824,-0.5515 -0.635507,-0.8273 -1.18705,-0.8273 -0.935266,0 -1.8345452,0.1679 -2.6978417,0.5036 -0.8633204,0.3118 -1.6666769,0.7194 -2.4100719,1.223 -0.743414,0.4796 -1.4148762,0.9952 -2.0143884,1.5468 -0.5995273,0.5276 -1.1031239,1.0072 -1.5107913,1.4388 l 0,12.482 -3.021582661853026,0"
           id="path3778" />
        <path
           d="m 22.644446,1037.2184 c -4e-6,0 -0.07195,-0.1199 -0.215827,-0.3598 -0.119908,-0.2637 -0.251802,-0.5395 -0.395684,-0.8273 -0.143888,-0.3117 -0.275782,-0.5875 -0.395683,-0.8273 -0.119907,-0.2638 -0.179859,-0.4077 -0.179856,-0.4317 0.311747,-0.1678 0.791363,-0.4316 1.438849,-0.7914 0.671457,-0.3596 1.438843,-0.7074 2.302158,-1.0431 0.863302,-0.3357 1.786562,-0.6355 2.769784,-0.8993 0.983203,-0.2638 1.978406,-0.3957 2.985611,-0.3957 1.031162,0 1.858499,0.2159 2.482015,0.6475 0.623485,0.4077 1.103101,0.9113 1.438848,1.5108 0.359696,0.5755 0.587514,1.199 0.683454,1.8705 0.119887,0.6475 0.179839,1.199 0.179856,1.6547 l 0,10.6475 c -1.7e-5,0.048 -1.7e-5,0.1558 0,0.3237 0.02396,0.1679 0.09591,0.3837 0.215827,0.6475 0.119887,0.2398 0.311733,0.5036 0.57554,0.7913 0.263771,0.2638 0.647463,0.5156 1.151079,0.7554 l -1.942446,1.7986 c -0.863326,-0.3357 -1.498817,-0.7794 -1.906475,-1.3309 -0.407689,-0.5516 -0.695458,-1.1391 -0.863309,-1.7626 -0.863323,0.9112 -1.870516,1.6546 -3.021583,2.2302 -1.151089,0.5755 -2.39809,0.8633 -3.741007,0.8633 -0.191854,0 -0.599527,-0.048 -1.223022,-0.1439 -0.599526,-0.096 -1.223026,-0.3237 -1.870503,-0.6834 -0.647486,-0.3598 -1.223025,-0.8993 -1.726619,-1.6187 -0.503599,-0.7195 -0.755397,-1.7027 -0.755395,-2.9497 -2e-6,-0.6475 0.08393,-1.2949 0.251798,-1.9424 0.167863,-0.6715 0.503595,-1.307 1.007194,-1.9065 0.527575,-0.5995 1.258989,-1.1271 2.194245,-1.5827 0.935245,-0.4796 2.158266,-0.8274 3.669065,-1.0432 1.318934,-0.1918 2.374089,-0.3477 3.165467,-0.4676 0.791354,-0.1199 1.402864,-0.2398 1.834532,-0.3597 l 0,-2.2662 c -1.4e-5,-0.1919 -0.02399,-0.4437 -0.07194,-0.7554 -0.02399,-0.3357 -0.119918,-0.6595 -0.28777,-0.9712 -0.143898,-0.3118 -0.371716,-0.5756 -0.683453,-0.7914 -0.287783,-0.2398 -0.683466,-0.3597 -1.18705,-0.3597 -0.503609,0 -1.055167,0.072 -1.654677,0.2158 -0.575549,0.1439 -1.163078,0.3238 -1.762589,0.5396 -0.575548,0.1918 -1.139096,0.4077 -1.690648,0.6474 -0.527584,0.2399 -0.995209,0.4677 -1.402878,0.6835 -0.407678,0.1919 -0.743409,0.3597 -1.007194,0.5036 -0.239812,0.1199 -0.359716,0.1799 -0.359712,0.1799 m 3.453237,12.5539 c 0.623493,0.048 1.246994,-0.012 1.870504,-0.1798 0.647472,-0.1919 1.258982,-0.4437 1.834532,-0.7554 0.599509,-0.3118 1.151067,-0.6715 1.654676,-1.0792 0.503584,-0.4316 0.935238,-0.8753 1.294964,-1.3309 l 0,-4.2446 c -0.551572,0.1199 -1.175072,0.2278 -1.870503,0.3237 -0.695455,0.096 -1.630706,0.2398 -2.805755,0.4317 -0.983222,0.1439 -1.774588,0.3597 -2.374101,0.6475 -0.575546,0.2638 -1.031181,0.5755 -1.366907,0.9352 -0.311756,0.3597 -0.515592,0.7434 -0.61151,1.1511 -0.09593,0.4077 -0.14389,0.8153 -0.143885,1.223 -5e-6,0.6235 0.107908,1.1271 0.323741,1.5108 0.215822,0.3597 0.45563,0.6475 0.719424,0.8633 0.287764,0.1919 0.563543,0.3238 0.827338,0.3957 0.287763,0.072 0.50359,0.1079 0.647482,0.1079"
           id="path3780" />
        <path
           d="m 49.35308,1031.6428 c 1.007183,0 1.894472,0.1679 2.661871,0.5036 0.767372,0.3118 1.402863,0.6715 1.906474,1.0791 0.599505,0.4557 1.103102,0.9833 1.510792,1.5828 l -1.906475,1.7985 c -0.263803,-0.4076 -0.599534,-0.7793 -1.007194,-1.1151 -0.335745,-0.2877 -0.767399,-0.5515 -1.294964,-0.7913 -0.52759,-0.2398 -1.175071,-0.3597 -1.942446,-0.3597 -0.623511,0 -1.259002,0.1678 -1.906475,0.5036 -0.623509,0.3117 -1.199048,0.8033 -1.726619,1.4748 -0.527584,0.6475 -0.959238,1.4748 -1.294964,2.482 -0.311755,1.0072 -0.467631,2.1823 -0.467626,3.5252 -5e-6,0.9832 0.119899,1.9184 0.359713,2.8057 0.263783,0.8873 0.611505,1.6667 1.043165,2.3382 0.455629,0.6714 1.007187,1.199 1.654676,1.5827 0.647474,0.3837 1.366897,0.5755 2.158274,0.5755 0.359701,0 0.707423,-0.024 1.043165,-0.072 0.359701,-0.048 0.719413,-0.1439 1.079137,-0.2878 0.38368,-0.1678 0.791354,-0.3957 1.223021,-0.6834 0.455622,-0.3118 0.947228,-0.7195 1.47482,-1.2231 l 1.870504,1.7986 c -0.719441,0.7194 -1.390903,1.295 -2.014389,1.7266 -0.599534,0.4077 -1.175073,0.7194 -1.726618,0.9353 -0.527591,0.2158 -1.043178,0.3477 -1.546763,0.3957 -0.479627,0.048 -0.947253,0.072 -1.402877,0.072 -1.247012,0 -2.374109,-0.2518 -3.381295,-0.7554 -1.0072,-0.5276 -1.870509,-1.235 -2.589928,-2.1223 -0.719428,-0.8873 -1.282977,-1.9305 -1.690648,-3.1295 -0.383695,-1.223 -0.575541,-2.542 -0.575539,-3.9568 -2e-6,-1.8705 0.263787,-3.4772 0.791367,-4.8202 0.527574,-1.3429 1.199036,-2.446 2.014388,-3.3093 0.815342,-0.8633 1.726612,-1.4988 2.733813,-1.9065 1.007186,-0.4316 1.990398,-0.6475 2.94964,-0.6475"
           id="path3782" />
        <path
           d="m 73.590935,1051.8586 c -0.167882,-0.048 -0.431671,-0.2278 -0.791367,-0.5395 -0.335746,-0.3358 -0.73143,-0.7434 -1.18705,-1.223 -0.45565,-0.5036 -0.947256,-1.0552 -1.47482,-1.6547 -0.527591,-0.5995 -1.055168,-1.1991 -1.582734,-1.7986 -0.503608,-0.5995 -0.995214,-1.175 -1.47482,-1.7266 -0.479626,-0.5516 -0.89929,-1.0312 -1.258993,-1.4389 -0.35972,-0.3836 -0.671471,-0.6714 -0.935252,-0.8633 -0.263796,-0.2158 -0.527585,-0.3597 -0.791366,-0.4316 -0.143892,-0.048 -0.311758,-0.06 -0.503598,-0.036 -0.167872,0.024 -0.287775,0.048 -0.359712,0.072 l 0,9.6402 -3.021582,0 0,-29.4964 3.021582,0 0,16.6907 c 0.04796,-0.048 0.251792,-0.1918 0.611511,-0.4317 0.359705,-0.2398 0.791359,-0.5395 1.294964,-0.8992 0.527569,-0.3837 1.091118,-0.8154 1.690647,-1.295 0.599511,-0.4796 1.175049,-0.9712 1.726619,-1.4748 0.575528,-0.5036 1.091115,-0.9952 1.546763,-1.4749 0.455622,-0.5035 0.791353,-0.9712 1.007194,-1.4028 l 3.057554,0 c -0.143902,0.5036 -0.503614,1.1031 -1.079137,1.7985 -0.575555,0.6955 -1.270998,1.4149 -2.086331,2.1583 -0.79138,0.7194 -1.642698,1.4389 -2.553957,2.1583 -0.8873,0.7194 -1.714637,1.3669 -2.482014,1.9424 0.335722,0.1199 0.671453,0.2998 1.007194,0.5396 0.335722,0.2158 0.671453,0.5036 1.007194,0.8633 0.383682,0.4556 0.875289,1.0312 1.474821,1.7266 0.623488,0.6955 1.270969,1.4269 1.942446,2.1943 0.695428,0.7674 1.390871,1.5347 2.08633,2.3021 0.695427,0.7434 1.330918,1.4269 1.906475,2.0504 0.599502,0.5995 1.103098,1.0911 1.510792,1.4748 0.407653,0.3837 0.659452,0.5755 0.755395,0.5755 l -4.064748,0"
           id="path3784" />
        <path
           d="m 87.010452,1031.6428 c 1.007182,0 1.894472,0.1679 2.66187,0.5036 0.767372,0.3118 1.402863,0.6715 1.906475,1.0791 0.599505,0.4557 1.103101,0.9833 1.510791,1.5828 l -1.906475,1.7985 c -0.263803,-0.4076 -0.599534,-0.7793 -1.007194,-1.1151 -0.335744,-0.2877 -0.767399,-0.5515 -1.294964,-0.7913 -0.527589,-0.2398 -1.175071,-0.3597 -1.942446,-0.3597 -0.623511,0 -1.259002,0.1678 -1.906475,0.5036 -0.623509,0.3117 -1.199047,0.8033 -1.726618,1.4748 -0.527584,0.6475 -0.959239,1.4748 -1.294964,2.482 -0.311756,1.0072 -0.467631,2.1823 -0.467626,3.5252 -5e-6,0.9832 0.119899,1.9184 0.359712,2.8057 0.263784,0.8873 0.611505,1.6667 1.043166,2.3382 0.455628,0.6714 1.007186,1.199 1.654676,1.5827 0.647473,0.3837 1.366897,0.5755 2.158273,0.5755 0.359702,0 0.707423,-0.024 1.043166,-0.072 0.3597,-0.048 0.719412,-0.1439 1.079136,-0.2878 0.383681,-0.1678 0.791354,-0.3957 1.223022,-0.6834 0.455621,-0.3118 0.947227,-0.7195 1.47482,-1.2231 l 1.870503,1.7986 c -0.71944,0.7194 -1.390902,1.295 -2.014388,1.7266 -0.599535,0.4077 -1.175074,0.7194 -1.726619,0.9353 -0.52759,0.2158 -1.043177,0.3477 -1.546762,0.3957 -0.479628,0.048 -0.947253,0.072 -1.402878,0.072 -1.247011,0 -2.374108,-0.2518 -3.381295,-0.7554 -1.0072,-0.5276 -1.870508,-1.235 -2.589928,-2.1223 -0.719428,-0.8873 -1.282976,-1.9305 -1.690647,-3.1295 -0.383695,-1.223 -0.575542,-2.542 -0.57554,-3.9568 -2e-6,-1.8705 0.263787,-3.4772 0.791367,-4.8202 0.527575,-1.3429 1.199037,-2.446 2.014389,-3.3093 0.815342,-0.8633 1.726612,-1.4988 2.733813,-1.9065 1.007185,-0.4316 1.990398,-0.6475 2.94964,-0.6475"
           id="path3786" />
        <path
           d="m 96.787883,1042.1824 c -2e-6,-1.4389 0.191844,-2.7938 0.57554,-4.0648 0.407671,-1.2949 0.983209,-2.41 1.726618,-3.3453 0.743401,-0.9592 1.630689,-1.7146 2.661869,-2.2662 1.05515,-0.5755 2.23021,-0.8633 3.52518,-0.8633 1.22301,0 2.26618,0.1919 3.1295,0.5756 0.88727,0.3597 1.61869,0.8273 2.19424,1.4028 0.59951,0.5516 1.06713,1.1751 1.40288,1.8705 0.35969,0.6955 0.63547,1.3789 0.82734,2.0504 0.19183,0.6475 0.31173,1.235 0.35971,1.7626 0.0479,0.5036 0.0719,0.8753 0.0719,1.1151 l 0,1.4029 -13.489206,0 c -0.04797,1.175 0.03597,2.2422 0.251796,3.2014 0.23981,0.9592 0.59952,1.7866 1.07914,2.482 0.47961,0.6955 1.07913,1.235 1.79856,1.6187 0.71942,0.3837 1.55874,0.5756 2.51799,0.5756 0.26377,0 0.59951,-0.012 1.00719,-0.036 0.40766,-0.024 0.87529,-0.1439 1.40288,-0.3597 0.52756,-0.2158 1.1031,-0.5516 1.72662,-1.0072 0.62348,-0.4796 1.28295,-1.1751 1.97841,-2.0863 l 1.83454,1.7626 c -0.91129,1.1271 -1.76261,1.9904 -2.55396,2.5899 -0.79138,0.5755 -1.53479,0.9952 -2.23022,1.259 -0.67147,0.2398 -1.28298,0.3717 -1.83453,0.3957 -0.52759,0.048 -0.97123,0.072 -1.33093,0.072 -1.43886,0 -2.69785,-0.2638 -3.77698,-0.7914 -1.07914,-0.5515 -1.978424,-1.2829 -2.697844,-2.1942 -0.719427,-0.9353 -1.258995,-2.0144 -1.618705,-3.2374 -0.359714,-1.223 -0.53957,-2.518 -0.539568,-3.8849 m 8.489207,-7.9497 c -0.67147,10e-5 -1.28298,0.132 -1.83453,0.3957 -0.52759,0.2399 -1.0072,0.5876 -1.43885,1.0432 -0.40768,0.4317 -0.76739,0.9473 -1.07914,1.5468 -0.31175,0.5995 -0.56355,1.247 -0.75539,1.9424 l 10.03597,0 c -0.072,-0.5036 -0.21584,-1.0432 -0.43166,-1.6187 -0.21584,-0.5755 -0.5156,-1.1031 -0.89928,-1.5827 -0.3837,-0.5036 -0.87531,-0.9113 -1.47482,-1.2231 -0.57555,-0.3357 -1.28298,-0.5035 -2.1223,-0.5036"
           id="path3788" />
        <path
           d="m 118.59262,1051.8586 0,-19.7841 3.02158,0 0,3.8129 c 0.55156,-0.5275 1.15108,-1.0431 1.79856,-1.5467 0.67146,-0.5276 1.37889,-0.9832 2.12231,-1.3669 0.74339,-0.4077 1.51078,-0.7314 2.30215,-0.9713 0.79136,-0.2398 1.59472,-0.3597 2.41008,-0.3597 1.63068,0 2.79374,0.5516 3.48921,1.6547 0.7194,1.1031 1.07911,2.6019 1.07913,4.4964 l 0,14.0647 -3.02158,0 0,-14.0647 c -2e-5,-0.9832 -0.11992,-1.7506 -0.35971,-2.3022 -0.23983,-0.5515 -0.63551,-0.8273 -1.18705,-0.8273 -0.91129,0 -1.78659,0.1559 -2.6259,0.4676 -0.81536,0.3118 -1.59474,0.7075 -2.33813,1.1871 -0.71944,0.4556 -1.3909,0.9592 -2.01439,1.5108 -0.62351,0.5515 -1.17507,1.0671 -1.65468,1.5467 l 0,12.482 -3.02158,0"
           id="path3790" />
        <path
           d="m 146.41693,1052.1464 c -1.10313,0 -2.09833,-0.2638 -2.98561,-0.7914 -0.8873,-0.5515 -1.6427,-1.2829 -2.26619,-2.1942 -0.62351,-0.9113 -1.10312,-1.9544 -1.43885,-3.1295 -0.33573,-1.199 -0.5036,-2.446 -0.5036,-3.741 0,-3.3813 0.7434,-5.9952 2.23022,-7.8417 1.51078,-1.8705 3.56114,-2.8058 6.15108,-2.8058 0.9832,0 1.99039,0.2398 3.02158,0.7194 1.05514,0.4557 2.09831,1.1272 3.1295,2.0144 l 0,-12.0144 3.02158,0 0,24.7482 c -0.024,0.4797 0.036,0.9353 0.17985,1.3669 0.11989,0.3598 0.32373,0.7315 0.61152,1.1152 0.28774,0.3597 0.7194,0.6354 1.29496,0.8273 l -1.90648,1.9424 c -0.62352,-0.2158 -1.12711,-0.4796 -1.51079,-0.7913 -0.35973,-0.3358 -0.6475,-0.6835 -0.86331,-1.0432 -0.21584,-0.3597 -0.37172,-0.7074 -0.46762,-1.0432 -0.0959,-0.3597 -0.15589,-0.6834 -0.17986,-0.9712 -0.95925,1.0792 -2.06236,1.9664 -3.30935,2.6619 -1.24701,0.6715 -2.64989,0.9952 -4.20863,0.9712 m 0,-2.9137 c 0.95922,0.072 1.82253,-0.048 2.58992,-0.3597 0.76738,-0.3117 1.45083,-0.7194 2.05036,-1.223 0.62349,-0.5036 1.15107,-1.0432 1.58274,-1.6187 0.45562,-0.5995 0.82732,-1.1271 1.11511,-1.5827 l 0,-6.5828 c -1.00721,-0.9832 -2.05038,-1.7745 -3.1295,-2.3741 -1.07915,-0.5995 -2.08634,-0.8992 -3.02158,-0.8992 -1.60673,0 -2.8897,0.6714 -3.84892,2.0143 -0.95924,1.343 -1.43886,3.2375 -1.43885,5.6835 -1e-5,0.9113 0.0959,1.7746 0.28777,2.5899 0.19184,0.8154 0.46762,1.5468 0.82734,2.1943 0.3597,0.6235 0.79136,1.1271 1.29496,1.5108 0.50359,0.3837 1.06714,0.5995 1.69065,0.6474"
           id="path3792" />
        <path
           d="m 162.19648,1041.9666 c 0,-1.8945 0.23981,-3.4892 0.71943,-4.7842 0.50359,-1.3189 1.15107,-2.3861 1.94244,-3.2015 0.81535,-0.8153 1.73861,-1.4028 2.76979,-1.7625 1.03116,-0.3837 2.08632,-0.5756 3.16546,-0.5756 1.07913,0 2.13428,0.1919 3.16547,0.5756 1.03116,0.3597 1.94243,0.9472 2.73382,1.7625 0.81533,0.8154 1.46281,1.8826 1.94244,3.2015 0.50358,1.3189 0.75538,2.9137 0.7554,4.7842 -2e-5,1.9184 -0.25182,3.5371 -0.7554,4.8561 -0.47963,1.2949 -1.12711,2.3501 -1.94244,3.1654 -0.79139,0.8154 -1.70266,1.4029 -2.73382,1.7626 -1.03119,0.3597 -2.08634,0.5396 -3.16547,0.5396 -1.07914,0 -2.1343,-0.1679 -3.16546,-0.5036 -1.03118,-0.3597 -1.95444,-0.9353 -2.76979,-1.7266 -0.79137,-0.8154 -1.43885,-1.8825 -1.94244,-3.2015 -0.47962,-1.3189 -0.71943,-2.9496 -0.71943,-4.892 m 14.17266,0 c -10e-6,-1.3909 -0.16788,-2.578 -0.50359,-3.5612 -0.31177,-1.0072 -0.73143,-1.8225 -1.259,-2.446 -0.52759,-0.6235 -1.12711,-1.0792 -1.79856,-1.3669 -0.67147,-0.3118 -1.34293,-0.4677 -2.01439,-0.4677 -0.69545,0 -1.3789,0.1439 -2.05035,0.4317 -0.64749,0.2638 -1.23502,0.7074 -1.76259,1.3309 -0.52759,0.6235 -0.95924,1.4389 -1.29497,2.4461 -0.31175,0.9832 -0.46763,2.1942 -0.46762,3.6331 -1e-5,1.4148 0.15587,2.6259 0.46762,3.633 0.33573,1.0072 0.76738,1.8226 1.29497,2.4461 0.52757,0.6235 1.1151,1.0791 1.76259,1.3669 0.67145,0.2878 1.3549,0.4317 2.05035,0.4317 0.67146,0 1.34292,-0.1319 2.01439,-0.3957 0.67145,-0.2878 1.27097,-0.7434 1.79856,-1.3669 0.52757,-0.6235 0.94723,-1.4389 1.259,-2.4461 0.33571,-1.0072 0.50358,-2.2302 0.50359,-3.669"
           id="path3794" />
      </g>
    </clipPath>
    <linearGradient
       inkscape:collect="always"
       xlink:href="#linearGradient3800"
       id="linearGradient3824"
       x1="3.8146972e-08"
       y1="977.36218"
       x2="3.8146972e-08"
       y2="1007.3622"
       gradientUnits="userSpaceOnUse"
       gradientTransform="matrix(0.99337751,0,0,0.99337751,10.898647,44.071934)" />
  </defs>
  <sodipodi:namedview
     id="base"
     pagecolor="#000000"
     bordercolor="#666666"
     borderopacity="1.0"
     inkscape:pageopacity="0"
     inkscape:pageshadow="2"
     inkscape:zoom="2.0138408"
     inkscape:cx="86.5"
     inkscape:cy="20.751718"
     inkscape:document-units="px"
     inkscape:current-layer="layer1"
     showgrid="false"
     showguides="true"
     inkscape:guide-bbox="true"
     showborder="true"
     inkscape:window-width="1680"
     inkscape:window-height="1000"
     inkscape:window-x="0"
     inkscape:window-y="25"
     inkscape:window-maximized="1" />
  <metadata
     id="metadata2828">
    <rdf:RDF>
      <cc:Work
         rdf:about="">
        <dc:format>image/svg+xml</dc:format>
        <dc:type
           rdf:resource="http://purl.org/dc/dcmitype/StillImage" />
        <dc:title></dc:title>
      </cc:Work>
    </rdf:RDF>
  </metadata>
  <g
     inkscape:label="Calque 1"
     inkscape:groupmode="layer"
     id="layer1"
     transform="translate(1.5991926e-7,-1007.3622)">
    <text
       xml:space="preserve"
       style="font-size:35.73300171000000347px;font-style:normal;font-variant:normal;font-weight:normal;font-stretch:normal;text-align:start;line-height:100%;writing-mode:lr-tb;text-anchor:start;fill:url(#linearGradient3824);fill-opacity:1;stroke:#fcaf3e;stroke-width:0.19867550000000000;stroke-miterlimit:4;stroke-opacity:1;stroke-dasharray:none;font-family:Junction;-inkscape-font-specification:Junction"
       x="7.8970752"
       y="1044.2626"
       id="text3796"
       sodipodi:linespacing="100%"><tspan
         sodipodi:role="line"
         id="tspan3798"
         x="7.8970752"
         y="1044.2626"
         style="fill:url(#linearGradient3824);fill-opacity:1;stroke:#fcaf3e;stroke-width:0.19867550000000000;stroke-miterlimit:4;stroke-opacity:1;stroke-dasharray:none">hackcendo</tspan></text>
  </g>
</svg>
