<?xml version="1.0" encoding="UTF-8" standalone="no"?>
<!-- Created with Inkscape (http://www.inkscape.org/) -->

<svg
   xmlns:dc="http://purl.org/dc/elements/1.1/"
   xmlns:cc="http://creativecommons.org/ns#"
   xmlns:rdf="http://www.w3.org/1999/02/22-rdf-syntax-ns#"
   xmlns:svg="http://www.w3.org/2000/svg"
   xmlns="http://www.w3.org/2000/svg"
   xmlns:sodipodi="http://sodipodi.sourceforge.net/DTD/sodipodi-0.dtd"
   xmlns:inkscape="http://www.inkscape.org/namespaces/inkscape"
   width="1417.3228"
   height="496.06299"
   id="svg2914"
   version="1.1"
   inkscape:version="0.47 r22583"
   sodipodi:docname="logo_perl_foundation_40x14.svg">
  <defs
     id="defs2916">
    <inkscape:perspective
       sodipodi:type="inkscape:persp3d"
       inkscape:vp_x="0 : 526.18109 : 1"
       inkscape:vp_y="0 : 1000 : 0"
       inkscape:vp_z="744.09448 : 526.18109 : 1"
       inkscape:persp3d-origin="372.04724 : 350.78739 : 1"
       id="perspective2922" />
    <inkscape:perspective
       id="perspective2898"
       inkscape:persp3d-origin="0.5 : 0.33333333 : 1"
       inkscape:vp_z="1 : 0.5 : 1"
       inkscape:vp_y="0 : 1000 : 0"
       inkscape:vp_x="0 : 0.5 : 1"
       sodipodi:type="inkscape:persp3d" />
  </defs>
  <sodipodi:namedview
     id="base"
     pagecolor="#ffffff"
     bordercolor="#666666"
     borderopacity="1.0"
     inkscape:pageopacity="0.0"
     inkscape:pageshadow="2"
     inkscape:zoom="0.35"
     inkscape:cx="375"
     inkscape:cy="520"
     inkscape:document-units="px"
     inkscape:current-layer="layer3"
     showgrid="false"
     units="cm"
     inkscape:window-width="1440"
     inkscape:window-height="851"
     inkscape:window-x="-4"
     inkscape:window-y="-4"
     inkscape:window-maximized="1" />
  <metadata
     id="metadata2919">
    <rdf:RDF>
      <cc:Work
         rdf:about="">
        <dc:format>image/svg+xml</dc:format>
        <dc:type
           rdf:resource="http://purl.org/dc/dcmitype/StillImage" />
        <dc:title></dc:title>
      </cc:Work>
    </rdf:RDF>
  </metadata>
  <g
     inkscape:label="Calque 1"
     inkscape:groupmode="layer"
     id="layer1"
     transform="translate(0,-556.29787)"
     sodipodi:insensitive="true" />
  <g
     inkscape:groupmode="layer"
     id="layer3"
     inkscape:label="logo_Perl_Foundation"
     transform="translate(0,-212.5984)"
     sodipodi:insensitive="true">
    <g
       id="g2987"
       transform="matrix(3.7037119,0,0,3.7037119,-211.97555,-1830.1102)">
      <g
         id="g4"
         style="fill:#161413;fill-rule:nonzero;stroke:none"
         transform="matrix(1.25,0,0,1.25,190.72356,573.58301)">
        <path
           id="path6"
           d="m 20.6833,43.2588 c 0,-1.6377 0.127,-2.3955 1.009,-2.3955 2.399,0 7.945,3.5312 15.136,3.5312 11.602,0 21.44,-9.7119 21.44,-21.6924 C 58.2683,8.32232 48.9343,0 31.5303,0 26.8643,0 20.3053,0.37793 11.6033,0.37793 8.5763,0.37793 5.9263,0 3.6583,0 1.6393,0 0.7558,0.50391 0.7558,1.76563 c 0,2.26949 2.2705,1.38669 5.6755,2.14359 3.28,0.7568 3.532,1.8916 3.532,5.9277 0,0 0,57.76368 0,57.76368 0,5.0449 0,6.9375 -4.288,7.6943 C 2.3963,75.9248 0,75.042 0,77.6924 c 0,1.0088 1.0083,1.7627 2.9003,1.7627 1.514,0 5.802,-0.6289 12.485,-0.6289 6.686,0 10.722,0.6289 12.488,0.6289 1.892,0 3.027,-0.7539 3.027,-1.7627 0,-2.6504 -2.397,-1.6416 -5.676,-2.3975 -4.414,-0.8828 -4.541,-2.3965 -4.541,-7.6943 0,0 0,-24.3418 0,-24.3418 z m 0,-33.54788 c 0,-4.9199 1.514,-6.3066 9.082,-6.3066 10.088,0 17.909,8.19818 17.909,19.16988 0,10.0908 -7.315,17.2813 -16.901,17.2813 -3.53,0 -6.937,-1.1377 -8.954,-2.5225 -1.136,-0.7578 -1.136,-2.5234 -1.136,-5.2979 0,0 0,-22.32418 0,-22.32418 z" />
      </g>
      <g
         id="g8"
         style="fill:#161413;fill-rule:nonzero;stroke:none"
         transform="matrix(1.25,0,0,1.25,265.17893,600.69964)">
        <path
           id="path10"
           d="m 12.865,22.3223 c 0,0 37.457,0 37.457,0 3.533,0 4.793,-0.6299 4.793,-2.7744 C 55.115,9.4581 45.911,0 31.152,0 13.369,0 0,12.3594 0,30.1416 c 0,17.9112 11.857,30.0186 29.513,30.0186 7.568,0 13.874,-2.0186 19.423,-6.0547 3.784,-2.7754 5.55,-5.4228 5.55,-6.8115 0,-0.7539 -0.378,-1.1338 -1.135,-1.1338 -1.135,0 -2.018,1.8926 -4.415,3.5322 -4.54,3.0264 -9.207,4.5391 -14.63,4.5391 -14.756,0 -24.467,-10.2158 -24.467,-26.6113 0,-4.1621 0.377,-5.2979 3.026,-5.2979 z m 0.126,-3.0264 c -1.134,0 -1.766,-0.5048 -1.766,-1.5127 0,-6.4326 8.577,-15.3876 19.045,-15.3876 8.198,0 14.504,6.0527 14.504,11.3515 0,4.792 -6.054,5.5488 -18.919,5.5488 0,0 -12.864,0 -12.864,0 z" />
      </g>
      <g
         id="g12"
         style="fill:#161413;fill-rule:nonzero;stroke:none"
         transform="matrix(1.25,0,0,1.25,340.52893,600.69964)">
        <path
           id="path14"
           d="m 8.2,15.3858 c 0,-3.6572 -0.254,-5.1709 -3.786,-5.1709 -1.512,0 -2.521,0 -2.521,-1.0088 0,-1.5117 2.521,-1.6406 5.423,-3.1543 C 12.234,3.4043 14.378,0 15.515,0 c 1.134,0 1.134,1.0088 1.134,3.0254 0,0 0,7.1895 0,7.1895 0,0.5039 0.252,0.8828 0.631,0.8828 0.125,0 0.378,-0.126 0.883,-0.6299 0,0 3.027,-3.2783 3.027,-3.2783 C 25.729,2.3956 30.27,0 35.189,0 c 5.172,0 8.325,2.5215 8.325,5.9268 0,3.1533 -2.649,5.6758 -5.045,5.6758 -4.414,0 -6.685,-4.918 -10.722,-4.918 -5.675,0 -10.718,6.6836 -10.718,20.0527 0,0 0,20.8116 0,20.8116 0,5.4218 1.385,7.6914 9.204,7.6914 2.018,0 3.028,0.126 3.028,1.3877 0,0.8838 -0.884,1.3886 -2.523,1.3886 -1.892,0 -6.558,-0.6318 -14.125,-0.6318 -4.288,0 -7.695,0.5049 -10.215,0.5049 C 0.756,57.8897 0,57.8897 0,56.628 0,54.8623 1.893,55.6192 5.047,54.6094 7.695,53.7276 8.2,51.962 8.2,47.5489 c 0,0 0,-32.1631 0,-32.1631" />
      </g>
      <g
         id="g16"
         style="fill:#161413;fill-rule:nonzero;stroke:none"
         transform="matrix(1.25,0,0,1.25,395.07518,564.28001)">
        <path
           id="path18"
           d="m 4.54,7.06348 c -0.251,0 -1.009,0.125 -2.018,0.125 -0.629,0 -1.134,-0.62988 -1.134,-1.13477 0,-1.7666 2.522,-1.51367 5.803,-2.39648 C 12.99,2.01758 15.892,0 16.775,0 c 0.883,0 1.134,1.00879 1.134,2.77442 0,0 0,76.43068 0,76.43068 0,2.7754 0.884,3.6582 3.281,4.54 3.278,1.1348 4.919,0.127 4.919,2.0186 0,1.0088 -0.632,1.2617 -1.893,1.2617 -1.767,0 -5.297,-0.5049 -10.721,-0.5049 -4.792,0 -8.701,0.6318 -11.477,0.6318 C 0.631,87.1523 0,86.7725 0,85.7637 0,83.998 2.272,84.8799 4.666,83.998 c 3.028,-1.1347 4.415,-1.3876 4.415,-4.7929 0,0 0,-66.4668 0,-66.4668 0,-3.53224 -1.766,-5.67482 -4.541,-5.67482" />
      </g>
      <g
         id="g20"
         style="fill:#4c5e85;fill-rule:nonzero;stroke:none"
         transform="matrix(1.25,0,0,1.25,66.800179,569.37039)">
        <path
           id="path22"
           d="m 45.7383,73.6289 c -0.4317,0.0547 -0.6817,0.4638 -0.6817,0.8994 0,1.6953 1.2198,3.2363 2.625,3.582 0.4229,0.1045 0.8252,0.0723 1.0176,-0.3183 0.1944,-0.3907 -0.041,-0.8233 -0.4316,-1.0176 -0.9248,-0.458 -1.4356,-0.8867 -1.6465,-2.3506 -0.0625,-0.4316 -0.4502,-0.8516 -0.8828,-0.7949 z m -7.375,0.7949 c -0.2119,1.4639 -0.7227,1.8926 -1.6475,2.3506 -0.3896,0.1943 -0.625,0.6269 -0.4316,1.0176 0.1933,0.3906 0.5957,0.4228 1.0185,0.3183 1.4043,-0.3457 2.6241,-1.8867 2.6241,-3.582 0,-0.4356 -0.2491,-0.8447 -0.6817,-0.8994 -0.4316,-0.0567 -0.8193,0.3633 -0.8818,0.7949 z m 24.126,-25.1123 c 0,-5.9522 -3.5489,-13.2774 -13.4346,-21.2832 -1.7383,-1.4072 -3.0693,-3.1006 -3.5176,-5.0225 -0.0391,-0.1679 -0.0058,-0.4248 0.2139,-0.4795 0.2324,-0.0586 0.4092,0.085 0.5263,0.3125 1.1934,2.3272 2.0508,3.0801 3.9004,4.4561 5.9532,4.4267 17.0752,10.6396 17.0752,22.8262 0,9.4326 -8.2334,17.3808 -11.7529,19.1181 -0.4766,0.2354 -0.9697,0.3242 -1.1445,0.0069 -0.1797,-0.3282 0.0215,-0.6739 0.4795,-1.1465 4.2812,-4.419 7.6543,-9.8906 7.6543,-18.7881 z m -23.9278,0.2051 c 0,5.4648 0.3809,9.7441 3.2149,17.5058 0.8349,2.2803 1.6279,2.4805 2.2597,2.5655 1.1797,0.1572 2.25,0.498 3.2666,0.9658 1.0157,0.4687 1.9805,1.0654 2.9453,1.9629 0.2842,0.2617 0.5166,0.4004 0.7833,0.4228 0.2656,0.0215 0.5664,-0.0644 0.9882,-0.1709 C 61.2793,69.917 71.9854,62.6152 71.9854,48.9336 71.9854,30 45.3047,26.9648 45.1563,16.2246 c -0.0479,-3.5117 0.7089,-4.8623 0.8613,-5.3584 0.0576,-0.1905 -0.0137,-0.3545 -0.1494,-0.4033 -0.1895,-0.0694 -0.3106,0.0615 -0.3731,0.1689 -0.2441,0.4199 -0.3711,0.8623 -1.0381,0.625 -0.5351,-0.1914 -0.7109,-2.06437 -0.915,-2.63477 -0.0762,-0.2119 -0.2041,-0.3095 -0.3701,-0.2724 -0.168,0.0381 -0.2647,0.1826 -0.2305,0.3838 0.0918,0.5185 0.9111,3.54777 0.9111,7.68157 0,17.2305 -5.291,22.8857 -5.291,33.1016 z M 42.042,12.5888 C 41.8936,7.91213 41.5908,3.8584 41.5264,3.00976 41.502,2.65527 41.1904,2.51465 40.9883,2.52636 c -0.209,0.0127 -0.4922,0.17774 -0.4737,0.51758 0.129,3.03129 0.4151,7.62596 0.3165,11.94036 -0.0625,2.6944 -0.4297,5.0762 -0.7549,6.4366 -2.627,10.9804 -13.834,15.3418 -14.293,27.0703 -0.207,5.3135 0.7656,13.7842 11.9385,21.5088 0.3818,0.2646 0.9824,0.5019 1.3779,0.1211 0.2627,-0.2539 0.4307,-0.6787 -0.1289,-1.4854 C 35.2744,63.3203 31.335,57.831 31.335,49.8408 c 0,-7.4317 2.9443,-11.7432 5.7802,-16.3633 2.3936,-3.9004 5.1485,-8.1748 4.9922,-16.9687 -0.0244,-1.3262 -0.0224,-2.5469 -0.0654,-3.92 z M 18.293,48.5556 C 18.9756,36.456 34.71,26.8027 38.0742,20.1289 c 1.125,-2.2315 1.4873,-3.4307 1.4873,-7.1143 0,-1.7373 -0.3193,-5.61327 -0.3408,-5.91797 -0.0293,-0.3964 -0.2939,-0.5185 -0.5215,-0.5039 -0.2324,0.0147 -0.5029,0.1612 -0.4844,0.5411 0.0196,0.3818 0.25,3.89447 0.2413,6.31637 -0.0098,2.8476 -0.7891,4.0478 -0.9463,4.4687 -3.3155,8.8067 -24.7139,13.46 -24.7139,31.0147 0,14.1171 11.6543,21.4795 21.0898,23.9453 0.3975,0.1025 0.8018,0.0224 0.9561,-0.3311 C 35.001,72.1884 34.8076,71.7675 34.458,71.6113 23.6572,66.0019 17.7412,58.33 18.293,48.5556 z m 24.25,30.7774 c 0.4716,0 0.7968,-0.3838 0.7968,-0.8545 0,0 0.0577,-4.9072 0.0577,-4.9072 0,-0.4698 -0.3829,-0.8526 -0.8545,-0.8526 -0.4707,0 -0.8535,0.3828 -0.8535,0.8526 0,0 0.0566,4.9072 0.0566,4.9072 0,0.4707 0.3262,0.8545 0.7969,0.8545 z M 84.9609,42.4765 C 84.9609,65.9404 65.9414,84.959 42.4805,84.959 19.0195,84.959 0,65.9404 0,42.4765 0,19.0156 19.0195,0 42.4805,0 65.9414,0 84.9609,19.0156 84.9609,42.4765 z" />
      </g>
      <g
         id="g24"
         style="fill:#161413;fill-rule:nonzero;stroke:none"
         transform="matrix(1.25,0,0,1.25,419.95268,657.50876)">
        <path
           id="path26"
           d="m 3.234,4.0625 c 0,0 0.178,0 0.178,0 C 3.937,4.0625 4.32,3.959 4.56,3.7529 4.8,3.5469 4.921,3.2891 4.921,2.9805 4.921,2.6582 4.81,2.3887 4.586,2.1709 4.364,1.9531 4.079,1.8438 3.731,1.8438 c -0.149,0 -0.315,0.0312 -0.497,0.0957 0,0 0,2.123 0,2.123 z M 1.843,1.6094 c 0,0 2.27,0 2.27,0 0.568,0 1.002,0.1279 1.299,0.3838 0.298,0.2568 0.447,0.5664 0.447,0.9297 0,0.2968 -0.101,0.5576 -0.303,0.7822 -0.201,0.2246 -0.535,0.3984 -1.001,0.5195 0,0 1.229,1.7373 1.229,1.7373 0.149,0.208 0.284,0.3506 0.402,0.4287 0.075,0.0469 0.179,0.0762 0.314,0.0879 0,0 0,0.1934 0,0.1934 0,0 -1.084,0 -1.084,0 0,0 -1.732,-2.375 -1.732,-2.375 0,0 -0.45,0 -0.45,0 0,0 0,1.8174 0,1.8174 0.023,0.1289 0.08,0.2236 0.17,0.2822 0.089,0.0586 0.267,0.0879 0.533,0.0879 0,0 0,0.1875 0,0.1875 0,0 -2.156,0 -2.156,0 0,0 0,-0.1875 0,-0.1875 0.195,0 0.333,-0.0254 0.413,-0.0762 C 2.274,6.3584 2.332,6.2822 2.367,6.1817 2.382,6.1309 2.39,5.9639 2.39,5.6797 c 0,0 0,-3.0488 0,-3.0488 C 2.39,2.3438 2.384,2.1738 2.373,2.1231 2.344,2.0342 2.294,1.9649 2.22,1.917 2.148,1.8682 2.021,1.8438 1.843,1.8438 c 0,0 0,-0.2344 0,-0.2344 z m 2.31,-1.25 c -0.638,0 -1.259,0.164 -1.864,0.4922 -0.607,0.3281 -1.081,0.7959 -1.42,1.4033 -0.34,0.6074 -0.51,1.2412 -0.51,1.9014 0,0.6562 0.167,1.2851 0.501,1.8867 0.335,0.6015 0.803,1.0703 1.405,1.4062 0.602,0.336 1.231,0.5039 1.888,0.5039 0.657,0 1.287,-0.1679 1.891,-0.5039 C 6.648,7.1133 7.117,6.6445 7.451,6.043 7.786,5.4414 7.953,4.8125 7.953,4.1563 7.953,3.4961 7.783,2.8623 7.443,2.2549 7.102,1.6475 6.629,1.1797 6.023,0.8516 5.417,0.5234 4.794,0.3594 4.153,0.3594 z M 4.153,0 c 0.699,0 1.38,0.1787 2.044,0.5361 0.664,0.3584 1.182,0.8702 1.555,1.5362 0.373,0.666 0.56,1.3613 0.56,2.084 0,0.7187 -0.184,1.4091 -0.551,2.0693 C 7.394,6.8867 6.88,7.3994 6.22,7.7647 5.56,8.1299 4.872,8.3125 4.153,8.3125 3.434,8.3125 2.746,8.1299 2.087,7.7647 1.429,7.3994 0.917,6.8867 0.55,6.2256 0.183,5.5654 0,4.875 0,4.1563 0,3.4336 0.186,2.7383 0.559,2.0723 0.932,1.4063 1.451,0.8945 2.115,0.5361 2.778,0.1787 3.458,0 4.153,0 z" />
      </g>
    </g>
  </g>
</svg>
