<?xml version="1.0" encoding="UTF-8" standalone="no"?>
<svg
   xmlns:dc="http://purl.org/dc/elements/1.1/"
   xmlns:cc="http://creativecommons.org/ns#"
   xmlns:rdf="http://www.w3.org/1999/02/22-rdf-syntax-ns#"
   xmlns:svg="http://www.w3.org/2000/svg"
   xmlns="http://www.w3.org/2000/svg"
   xmlns:sodipodi="http://sodipodi.sourceforge.net/DTD/sodipodi-0.dtd"
   xmlns:inkscape="http://www.inkscape.org/namespaces/inkscape"
   width="210mm"
   height="297mm"
   id="svg2"
   sodipodi:version="0.32"
   inkscape:version="0.47 r22583"
   sodipodi:docname="onion_stylise.svg"
   inkscape:output_extension="org.inkscape.output.svg.inkscape"
   version="1.1">
  <defs
     id="defs4">
    <clipPath
       clipPathUnits="userSpaceOnUse"
       id="clipPath335">
      <path
         d="M 3261.84,5002.96 C 3041.05,5405.83 2810.34,5447.47 2709.15,5456.65 C 2564.31,5469.78 2444.77,5401.16 2386.27,5357.77 C 2341.7,5363.35 2342.14,5325.27 2317.59,5334.72 C 2180.84,5421.93 2274.94,5764.17 2475.45,5822.63 C 2475.85,5822.5 2639.49,5669.19 2714.92,5670.29 C 2826.19,5671.88 3014.42,5721.29 3162.26,5669.25 C 3162.26,5669.25 3084.85,5512.09 3149.62,5479.46 C 3214.38,5446.83 3426.39,5383.19 3430.93,5211.51 C 3331.26,5260.75 3134.14,5225.14 3269.1,4997.25 L 3261.84,5002.96 z"
         clip-rule="evenodd"
         id="path337" />
    </clipPath>
    <clipPath
       clipPathUnits="userSpaceOnUse"
       id="clipPath131">
      <path
         d="M 2312.21,5031.57 C 2260.13,4982.64 2216.48,4997.85 2208.47,4937.32 C 2200.47,4876.8 2253.27,4828.09 2315.89,4797.45 C 2438.3,4921.08 2586.22,4832.89 2695.93,4848.52 C 2805.63,4864.15 2790.72,5001.7 2790.72,5001.7 C 2790.72,5001.7 2635.89,4958.14 2465.99,5051.45 C 2406.46,5016.42 2341.05,5005.92 2312.21,5031.57 z"
         clip-rule="evenodd"
         id="path133" />
    </clipPath>
    <clipPath
       clipPathUnits="userSpaceOnUse"
       id="clipPath21">
      <path
         d="M 2303.13,5178.09 C 2363.07,5182.08 2387.02,5169.36 2345.06,5093.29 C 2374.99,5083.72 2452.89,5194.7 2457.22,5204.76 C 2513.82,5336.2 2755.9,5332.77 2887.42,5249.24 C 2912.54,5233.13 3040.83,5100.89 2947.02,4964.67 C 2876.26,4861.94 2916.44,4808.83 2986.64,4741.78 C 3066.16,4665.83 3096.1,4531.35 2935.63,4477.79 C 2854.99,4457.29 2777.31,4458.09 2711.92,4484.86 C 2666.79,4503.31 2561.93,4588.54 2619.43,4692.53 C 2638.32,4754.59 2644.28,4792.86 2759.63,4861.56 C 2778.79,4872.98 2791.51,4897.09 2777.09,4898.56 C 2380.48,4939.13 2421.11,4979.32 2488.95,5076.17 C 2549.65,5194.49 2529.74,5327.56 2864.01,5185.14 C 2685.31,5251.06 2566.68,5297.99 2492.23,5141.93 C 2447.35,5047.85 2375.4,4982.18 2302.13,5073.22 C 2333.25,5149.34 2315.36,5163.82 2303.13,5178.09 z M 2279.11,5076.77 C 2280.64,5075.86 2297.72,5098.04 2298.66,5101.36 C 2278.74,5120.73 2274.17,5144.23 2293.4,5173.31 C 2292.18,5185.66 2307.66,5196.3 2292.79,5198.74 C 2289.24,5226.64 2268.84,5186.22 2263.53,5179.71 C 2241.16,5161.29 2218.53,5098.31 2279.11,5076.77 z"
         clip-rule="evenodd"
         id="path23" />
    </clipPath>
    <inkscape:perspective
       sodipodi:type="inkscape:persp3d"
       inkscape:vp_x="0 : 526.18109 : 1"
       inkscape:vp_y="0 : 1000 : 0"
       inkscape:vp_z="744.09448 : 526.18109 : 1"
       inkscape:persp3d-origin="372.04724 : 350.78739 : 1"
       id="perspective10" />
    <inkscape:perspective
       id="perspective3122"
       inkscape:persp3d-origin="0.5 : 0.33333333 : 1"
       inkscape:vp_z="1 : 0.5 : 1"
       inkscape:vp_y="0 : 1000 : 0"
       inkscape:vp_x="0 : 0.5 : 1"
       sodipodi:type="inkscape:persp3d" />
    <inkscape:perspective
       id="perspective3144"
       inkscape:persp3d-origin="0.5 : 0.33333333 : 1"
       inkscape:vp_z="1 : 0.5 : 1"
       inkscape:vp_y="0 : 1000 : 0"
       inkscape:vp_x="0 : 0.5 : 1"
       sodipodi:type="inkscape:persp3d" />
    <inkscape:perspective
       id="perspective3168"
       inkscape:persp3d-origin="0.5 : 0.33333333 : 1"
       inkscape:vp_z="1 : 0.5 : 1"
       inkscape:vp_y="0 : 1000 : 0"
       inkscape:vp_x="0 : 0.5 : 1"
       sodipodi:type="inkscape:persp3d" />
  </defs>
  <sodipodi:namedview
     id="base"
     pagecolor="#ffffff"
     bordercolor="#666666"
     borderopacity="1.0"
     inkscape:pageopacity="0.0"
     inkscape:pageshadow="2"
     inkscape:zoom="0.5"
     inkscape:cx="487.90552"
     inkscape:cy="432.36108"
     inkscape:document-units="px"
     inkscape:current-layer="layer8"
     showgrid="false"
     inkscape:window-width="1440"
     inkscape:window-height="851"
     inkscape:window-x="-4"
     inkscape:window-y="-4"
     inkscape:window-maximized="1" />
  <metadata
     id="metadata7">
    <rdf:RDF>
      <cc:Work
         rdf:about="">
        <dc:format>image/svg+xml</dc:format>
        <dc:type
           rdf:resource="http://purl.org/dc/dcmitype/StillImage" />
        <dc:title></dc:title>
      </cc:Work>
    </rdf:RDF>
  </metadata>
  <g
     inkscape:label="frame"
     inkscape:groupmode="layer"
     id="layer1"
     style="display:none"
     sodipodi:insensitive="true">
    <rect
       style="fill:#000000;fill-opacity:0.25597271;stroke:none"
       id="rect2379"
       width="780"
       height="160"
       x="30"
       y="382.36218" />
    <rect
       style="fill:#000000;fill-opacity:0.25597271;stroke:none;display:inline"
       id="rect2666"
       width="300"
       height="160"
       x="850"
       y="382.36218" />
    <rect
       style="fill:#000000;fill-opacity:0.25597271;stroke:none;display:inline"
       id="rect2678"
       width="200"
       height="210"
       x="30"
       y="572.36218" />
    <rect
       style="fill:#000000;fill-opacity:0.25597271;stroke:none;display:inline"
       id="rect2678-2"
       width="400"
       height="40"
       x="270"
       y="802.36218" />
  </g>
  <g
     inkscape:groupmode="layer"
     id="layer2"
     inkscape:label="back" />
  <g
     inkscape:groupmode="layer"
     id="layer11"
     inkscape:label="onion.add">
    <path
       style="fill:#8a8a8a;fill-opacity:0.75085324;fill-rule:evenodd;stroke:none"
       d="m 1000,458.61218 c 31.25,-4.16667 60.1559,-5.18829 88.75,-15 13.9059,-4.77162 31.25,-17.70833 38.75,-28.75 -25.625,5.20833 -51.8187,13.70618 -75.625,21.875 -18.6937,6.41451 -33.125,17.5 -51.875,21.875 z"
       id="path2668"
       sodipodi:nodetypes="cscsc" />
    <path
       style="fill:#9b9b9b;fill-opacity:0.90102383;fill-rule:evenodd;stroke:none"
       d="m 948.75,421.11218 c 30.41667,-4.16667 55.9626,-10.61634 80,-42.5 12.9282,-17.14816 14.1667,-39.16667 32.5,-58.75 -24.1667,15.83333 -51.3495,28.46458 -72.5,47.5 -16.34954,14.71458 -19.16667,35.20833 -40,53.75 z"
       id="path2670"
       sodipodi:nodetypes="cscsc" />
    <path
       style="fill:#b6b6b6;fill-opacity:0.75085324;fill-rule:evenodd;stroke:none"
       d="m 1030,423.61218 c 16.2852,1.29094 32.5077,14.761 49.6875,13.4375 14.4598,-1.11396 26.6667,-9.16667 41.25,-13.75 -39.7917,18.75 -109.2708,3.125 -154.0625,8.125 5,-4.16667 40.4308,-9.61148 63.125,-7.8125 z"
       id="path2672"
       sodipodi:nodetypes="csccs" />
    <path
       style="fill:#8fb9e2;fill-opacity:0.76109212;fill-rule:evenodd;stroke:none"
       d="m 1082.5,398.61218 c 40.4167,-5.41667 87.2522,-0.43708 121.25,-16.25 19.7522,-9.18708 25.4167,-34.16667 40,-58.75 -63.75,15 -110.625,44.375 -161.25,75 z"
       id="path2674"
       sodipodi:nodetypes="cscc" />
    <path
       style="fill:#989898;fill-opacity:0.70989763;fill-rule:evenodd;stroke:none"
       d="m 1112.5,460.48718 c 37.2917,1.875 88.3333,-15 132.5,-22.5 -31.0417,-0.625 -62.3751,-4.38442 -93.125,-1.875 -14.8274,1.21003 -28.125,12.5 -39.375,24.375 z"
       id="path2676"
       sodipodi:nodetypes="ccsc" />
    <path
       style="fill:#70d7db;fill-opacity:0.76109212;fill-rule:evenodd;stroke:none"
       d="m 781.35299,388.5657 c 13.11094,-2.79897 27.69045,-3.75574 35.79728,-12.81631 6.91919,-7.73322 7.3657,-20.91858 11.04855,-31.37787 -15.02602,16.79379 -31.81981,27.40039 -46.84583,44.19418 z"
       id="path3478"
       sodipodi:nodetypes="cscc" />
  </g>
  <g
     inkscape:groupmode="layer"
     id="layer6"
     inkscape:label="onion.back"
     style="display:inline">
    <path
       style="fill:#dfdfdf;fill-opacity:0.60068264;fill-rule:evenodd;stroke:none"
       d="m 70.710678,553.8519 c -10.22545,-57.55629 12.109674,-136.67844 27.577169,-147.78531 13.410673,-9.62991 22.627413,-17.91338 31.112703,-36.06245 -28.04858,6.83537 -47.380827,16.2639 -77.781755,23.33452 -75.467777,17.55223 -87.862355,144.04355 19.091883,160.51324 z"
       id="path2661"
       sodipodi:nodetypes="cscsc" />
    <path
       style="fill:#8e8e8e;fill-opacity:0.80887373;fill-rule:evenodd;stroke:none;display:inline"
       d="m 89.149495,548.88731 c 27.259815,3.1593 46.596465,5.17745 67.637305,0.99264 25.81107,-5.13357 47.59321,-25.1011 55.47992,-47.72793 -22.64466,17.97547 -38.71009,24.27187 -47.07433,27.05635 -25.23095,8.39947 -50.81312,16.41912 -76.042895,19.67894 z"
       id="path3403"
       sodipodi:nodetypes="cscsc" />
    <path
       style="fill:#9d9d9d;fill-opacity:0.67918085;fill-rule:evenodd;stroke:none"
       d="m 67.882251,551.02347 c 22.627416,-2.82843 60.135289,-2.99774 79.903069,-12.02081 46.65633,-21.29644 67.71026,-97.01661 11.22665,-154.85639 -24.54205,43.50652 16.35863,85.21787 -32.50356,137.16526 -26.50584,28.17944 -40.241383,8.73444 -58.626159,29.71194 z"
       id="path2625"
       sodipodi:nodetypes="cscsc" />
    <path
       style="fill:#bcbcbc;fill-opacity:0.59726963;fill-rule:evenodd;stroke:none"
       d="M 64,553.36218 C 33.164211,539.40742 2.2540283,520.06403 1.4460676,471.38407 0.28987722,401.72315 74.541845,372.52589 112.48097,380.12995 90.98097,423.29662 60.238729,429.31807 52.16466,465.80412 41.426929,514.32704 64.333333,522.02885 64,553.36218 z"
       id="path2634"
       sodipodi:nodetypes="cscsc" />
    <path
       style="fill:#d8d8d8;fill-opacity:0.59385663;fill-rule:evenodd;stroke:none"
       d="m 76.249999,552.36219 c 26.458331,5.625 69.154251,-13.89354 77.500001,-52.5 6.86486,-31.75601 -11.66667,-75.83333 -17.5,-113.75 -31.25,19.58333 -78.128151,34.0932 -93.750001,58.75 -20.091179,31.71097 -12.5,90.41667 33.75,107.5 z"
       id="path3450"
       sodipodi:nodetypes="cscsc" />
  </g>
  <g
     inkscape:groupmode="layer"
     id="layer9"
     inkscape:label="onion.middle" />
  <g
     inkscape:groupmode="layer"
     id="layer4"
     inkscape:label="onion.over"
     style="display:inline">
    <path
       style="fill:#a5a5a5;fill-opacity:0.54266214;fill-rule:evenodd;stroke:none;display:inline"
       d="M 109.5,387.86218 C -4.5730745,395.22905 -3.2761411,478.32203 23.290291,518.48432 35.830038,537.44151 58,552.19551 68.5,547.36218 67.861359,515.75357 52.915455,507.07017 61.526019,463.89771 68.377234,429.54645 93.5,415.86218 109.5,387.86218 z"
       id="path3407"
       sodipodi:nodetypes="cscsc" />
    <path
       style="fill:#656565;fill-opacity:1;fill-rule:evenodd;stroke:none"
       d="m 62.155632,536.97873 c 2.821301,2.92865 9.151252,4.74154 11.850574,5.03567 -0.02886,-1.50528 0.236464,-5.17761 1.406725,-6.00795 1.310887,1.31029 2.807963,4.18132 3.273865,5.91902 4.037135,-1.51572 11.04305,-2.42647 13.553992,-5.1642 -0.305611,2.95931 -0.592893,5.34879 -1.548347,6.27837 7.507935,-3.915 21.381559,1.85194 25.758889,1.01015 -1.68359,1.85195 -5.38977,3.60253 -8.08122,3.78807 -6.17276,0.42552 -28.620744,5.7182 -29.041886,8.5863 -4.275512,29.29428 -27.618909,79.67817 -30.015054,73.75634 -8.855443,-21.88533 -1.444029,-33.10077 -5.06349,-33.16679 -3.61946,-0.066 -19.592673,14.26775 -19.505204,10.92361 0.960108,-37.41444 36.036862,-22.27232 22.511406,-52.52331 -2.342551,-5.23934 -1.010153,-13.46871 -1.51523,-20.20306 1.085914,-1.48787 2.304411,-2.5338 3.788073,-3.53553 3.703893,2.69374 15.978951,2.22801 12.626907,5.30331 z"
       id="path3923"
       sodipodi:nodetypes="cccccccssssssccc" />
    <path
       style="fill:#949494;fill-opacity:0.54266214;fill-rule:evenodd;stroke:none"
       d="M 72.730983,557.38744 C 28.620989,537.18439 4.7498921,497.64646 15.152288,455.36203 28.596901,400.71137 82.159075,395.0896 130.30968,386.67165 c -38.385796,14.47886 -49.418081,45.6349 -51.454647,89.90359 -1.613573,35.07413 -1.830902,50.88643 -6.12405,80.8122 z"
       id="path3919"
       sodipodi:nodetypes="cscsc" />
    <path
       style="fill:#7c7c7c;fill-opacity:0.61433447;fill-rule:evenodd;stroke:none"
       d="M 57.275649,544.65951 C 40.069384,547.01653 9.9906042,529.5411 1.4142136,496.57625 -18.299118,420.80463 53.811604,395.16341 74.789106,390.56048 c -12.49222,11.65276 -41.178828,38.64466 -40.317651,91.3433 0.517337,31.65778 22.038161,54.18206 22.804194,62.75573 z"
       id="path3431"
       sodipodi:nodetypes="cscsc" />
    <path
       style="fill:#959595;fill-opacity:0.50853242;fill-rule:evenodd;stroke:none"
       d="m 91.428571,550.93361 c 29.761909,-0.71429 74.979419,-13.68995 85.714289,-38.57143 27.20506,-63.05638 -10,-98.09523 -28.57143,-125.71428 -0.47619,21.66667 34.66644,62.97753 2.14286,121.42856 -15.34895,27.58496 -49.47356,29.01113 -59.285719,42.85715 z"
       id="path3909"
       sodipodi:nodetypes="cscsc" />
    <path
       style="fill:#bcbcbc;fill-opacity:0.57337886;fill-rule:evenodd;stroke:none"
       d="m 83.571428,549.50504 c 24.285712,0.71428 79.485342,-13.31616 81.039122,-89.98564 0.75601,-37.42933 -17.94388,-45.72865 -23.18198,-71.44293 -40.5746,40.78727 -37.58749,132.42956 -57.857142,161.42857 z"
       id="path3911"
       sodipodi:nodetypes="cscc" />
    <path
       style="fill:#7d7d7d;fill-opacity:0.57337886;fill-rule:evenodd;stroke:none"
       d="m 75.714286,543.79075 c 8.152743,-28.18206 6.894592,-53.78055 15.734082,-82.53931 8.332387,-27.10894 20.901622,-53.80282 42.569932,-75.25098 -24.79614,16.90805 -29.58966,20.10098 -55.43588,38.02181 -60.181781,41.72787 -33.490973,91.33602 -24.900173,104.89411 4.390271,6.92877 12.655393,13.49919 22.032039,14.87437 z"
       id="path3913"
       sodipodi:nodetypes="cscssc" />
    <path
       style="fill:#7a7a7a;fill-opacity:0.69965868;fill-rule:evenodd;stroke:none"
       d="m 75.714286,550.93361 c 78.809524,-7.14286 105.177964,-35.8503 105.000004,-86.42857 -0.15954,-46.05688 -28.33334,-51.19047 -36.42858,-86.42857 -21.45833,52.76786 -21.80042,65.01773 -26.18269,95.90631 -6.32244,44.5639 -25.722066,66.47464 -42.388734,76.95083 z"
       id="path3915"
       sodipodi:nodetypes="cscsc" />
    <path
       style="fill:#6ac5d3;fill-opacity:0.75085324;fill-rule:evenodd;stroke:none"
       d="m 80,552.36218 c 33.80952,-2.85714 84.46575,-6.59139 112.85714,-35.71428 14.2351,-14.60186 23.90158,-57.30079 0.9088,-95.98865 13.59737,50.66634 -14.59502,101.93042 -61.85637,116.57416 C 117.52165,541.69145 94.043131,547.59167 80,552.36218 z"
       id="path3917"
       sodipodi:nodetypes="cscsc" />
    <path
       style="fill:#949494;fill-opacity:0.6894198;fill-rule:evenodd;stroke:none"
       d="m 67.68022,550.31637 c 24.664558,6.56599 59.18505,7.76775 87.88327,5.05076 28.20704,-2.67049 59.55551,-10.89779 87.88327,-12.12183 80.76871,-3.49001 158.25724,-2.69374 239.40616,-2.02031 -79.12862,-2.0203 -158.42351,-7.82543 -237.38585,-6.06091 -41.58253,0.92922 -87.88545,7.3888 -129.29952,12.12183 -17.511491,2.00132 -30.978017,1.01015 -48.48733,3.03046 z"
       id="path3921"
       sodipodi:nodetypes="csscssc" />
    <path
       style="fill:#9c9c9c;fill-opacity:0.70307162;fill-rule:evenodd;stroke:none"
       d="m 282.82995,476.36218 c 32.12225,-13.38663 40.18692,-12.68897 73.92005,-27 26.76687,-11.35564 41.41667,-21.16667 64.75,-40 -31.5,10.58334 -45.34873,9.4934 -74.64245,23.04949 -31.08915,14.38695 -46.60342,27.81388 -64.0276,43.95051 z"
       id="path3406"
       sodipodi:nodetypes="cscsc" />
    <path
       style="fill:#5a5a5a;fill-opacity:0.76450512;fill-rule:evenodd;stroke:none"
       d="m 368.5,525.86218 c 73,0.33333 132.5,12.16667 207,14.5 -38.16667,-6.66667 -73.6073,-18.31066 -114.5,-20 -30.65615,-1.26646 -61.16667,1.66667 -92.5,5.5 z"
       id="path3408"
       sodipodi:nodetypes="ccsc" />
    <path
       style="fill:#9f9f9f;fill-opacity:0.66894196;fill-rule:evenodd;stroke:none"
       d="m 66,550.36218 c -20.166667,15.16667 -23.55261,33.03872 -29,51.5 -4.820036,16.33517 -33.1666667,31.5 -36.49999999,39 C 17.333333,638.19551 33.891076,625.3696 37,611.86218 c 3.901642,-16.95157 12.333333,-46.57408 29,-61.5 z"
       id="path3411"
       sodipodi:nodetypes="cscsc" />
    <path
       style="fill:#60ebd3;fill-opacity:0.73720141;fill-rule:evenodd;stroke:none"
       d="m 71.5,552.36218 c 8.833333,0.33333 9.418414,33.0486 7.375,53.6875 C 76.021516,634.87046 50.776038,665.39091 52.652598,706.39201 70.544417,671.89614 65.846626,625.83344 64.451141,600.82189 63.278147,580.11059 66.5,575.86218 71.5,552.36218 z"
       id="path3413"
       sodipodi:nodetypes="cscsc" />
    <path
       style="fill:#656565;fill-opacity:0.56313991;fill-rule:evenodd;stroke:none"
       d="m 70,552.86218 c -0.877694,32.38446 2.089788,53.10277 3.238253,58.80362 1.98501,9.85337 5.489517,26.15133 19.14624,46.62184 -9.411796,-19.2197 -11.798951,-34.25687 -9.168764,-57.0641 C 85.580577,580.71716 82.468164,568.90723 70,552.86218 z"
       id="path3415"
       sodipodi:nodetypes="cscsc" />
    <path
       style="fill:#606060;fill-opacity:0.90102383;fill-rule:evenodd;stroke:none"
       d="m 73.5,552.36218 c -3.5,6 -8.547409,11.42291 -10.5,18 -8.317161,28.01545 -5.428878,43.7194 -10.5,65 -4.262211,17.88607 -11.666667,35 -17.5,52.5 11.166667,-22.16667 26.847448,-43.08647 33.5,-66.5 6.180782,-21.75314 3.333333,-46 5,-69 z"
       id="path3409"
       sodipodi:nodetypes="csscsc" />
    <path
       style="fill:#747474;fill-opacity:0.62457335;fill-rule:evenodd;stroke:none"
       d="m 67,552.36218 c -12.666667,60.33333 -39.494424,58.24795 -50.5,92.5 -5.327757,16.58128 0.666667,42.5 1.5,60 1.833333,-16.83333 -0.854638,-37.4278 2.5,-54.5 8.01094,-40.76874 30,-65 46.5,-98 z"
       id="path3417"
       sodipodi:nodetypes="cscsc" />
    <path
       style="fill:#828282;fill-opacity:0.76109212;fill-rule:evenodd;stroke:none"
       d="m 64,549.36218 c -20.166667,5 -25.742494,22.05792 -28,38 -1.931143,13.63736 -21.455826,15.36642 -28,31 -6.08934,14.54701 -6.1666667,39.66667 -4.5,53.5 3.5,-6.5 4.7969246,-41.59385 11,-54 6.296925,-12.59385 20.08501,-21.57171 28.5,-33 6.188312,-8.40427 18.666667,-15.33333 21,-35.5 z"
       id="path3419"
       sodipodi:nodetypes="csscssc" />
    <path
       style="fill:#c2c2c2;fill-opacity:0.62457335;fill-rule:evenodd;stroke:none"
       d="m 69.5,553.36218 c -16.333333,48 -43.633675,95.92211 -49,144 -2.800341,25.08877 16.333333,50.33333 24.5,75.5 -2.166667,-53 -12.222204,-107.73372 -6.5,-159 2.444462,-21.90039 20.666667,-40.33333 31,-60.5 z"
       id="path3421"
       sodipodi:nodetypes="cscsc" />
    <path
       style="fill:#828282;fill-opacity:0.64163824;fill-rule:evenodd;stroke:none"
       d="m 60.5,582.36218 c 13.732828,-5.04044 -24.928566,0.34657 11.5,-20.77817 13.660668,-7.92175 55.66667,0.6115 66,2.27817 -21.65195,3.03063 -48.967117,-13.5756 -53.5,-13 -5.967117,0.75773 -25.722421,-13.43622 -24,31.5 z"
       id="path3423"
       sodipodi:nodetypes="cscsc" />
    <path
       style="fill:#575757;fill-opacity:0.56313991;fill-rule:evenodd;stroke:none"
       d="m 60.5,574.86218 c 8.95956,-20.06126 24.18079,-28.2022 71.44544,-18.92893 C 94.055158,556.989 63.713241,541.1802 61.5,554.86218 c -0.967686,5.98211 -7.030628,13.33333 -1,20 z"
       id="path3425"
       sodipodi:nodetypes="ccsc" />
    <path
       style="fill:#747474;fill-opacity:0.75085324;fill-rule:evenodd;stroke:none"
       d="m 49,562.36218 c -13.925023,-12.40701 -28.136039,0.98528 -41.5,-8 12.373773,-9.53063 43.51251,-11.41863 54.5,-5 5.183469,3.02806 -2.58343,22.28102 -13,13 z"
       id="path3427"
       sodipodi:nodetypes="ccss" />
    <path
       style="fill:#7a7a7a;fill-opacity:0.53242319;fill-rule:evenodd;stroke:none"
       d="m 59.5,575.36218 c 10.242641,-2.05025 17.520566,-13.63523 18,-21 0.877762,-13.48363 -32.998092,-27.77146 -45.847656,-14.00781 4.168972,7.9282 35.696898,21.71982 27.847656,35.00781 z"
       id="path3429"
       sodipodi:nodetypes="cscc" />
    <path
       style="fill:#7d7d7d;fill-opacity:0.56313991;fill-rule:evenodd;stroke:none"
       d="m 128.69343,544.65951 c 30.40559,-9.66379 55.89784,0.81446 78.40046,-19.26865 16.16809,-14.42968 19.04339,-47.77607 39.52655,-89.16087 -50.79667,61.3562 -38.60889,81.18772 -117.92701,108.42952 z"
       id="path2648"
       sodipodi:nodetypes="cscc" />
    <path
       style="fill:#9a9a9a;fill-opacity:0.59726963;fill-rule:evenodd;stroke:none"
       d="m 183.079,541.22449 c 62.75242,-16.12784 89.03085,-5.41013 121.83316,0.8321 30.3659,5.77858 110.20652,6.92811 139.42756,4.29163 33.47576,-3.02037 74.72129,-8.52407 102.53416,-25.73034 -67.88225,5.18545 -141.69297,16.46619 -212.13203,17.67767 -25.49176,0.43844 -123.18534,-2.63477 -151.66285,2.92894 z"
       id="path2650"
       sodipodi:nodetypes="csscsc" />
    <path
       style="fill:#c8c8c8;fill-opacity:0.4197952;fill-rule:evenodd;stroke:none"
       d="m 383.57674,425.67847 c 21.53023,-14.92483 27.61331,-37.88977 36.54259,-64.49756 -42.33571,26.18867 -62.21998,37.35134 -108.45511,91.98544 27.40643,-7.58088 50.91513,-12.93242 71.91252,-27.48788 z"
       id="path2652"
       sodipodi:nodetypes="cccs" />
    <path
       style="fill:#747474;fill-opacity:0.33447098;fill-rule:evenodd;stroke:none"
       d="m 258.04001,458.07356 c 16.4387,-9.72703 53.65237,-34.16467 67.34181,-60.11967 5.97986,-11.33774 24.20753,-45.67725 19.68629,-61.89088 -36.49124,40.38715 -75.09581,86.68638 -87.0281,122.01055 z"
       id="path2654"
       sodipodi:nodetypes="cscc" />
    <path
       style="fill:#d4d4d4;fill-opacity:0.22525593;fill-rule:evenodd;stroke:none"
       d="m 354.30213,462.39858 c 48.25567,-25.3198 82.71735,-22.85216 104.16823,-57.39265 6.9845,-11.24652 3.06413,-32.3796 2.56326,-47.02261 -1.41421,46.90475 -52.33894,92.58683 -106.73149,104.41526 z"
       id="path2656"
       sodipodi:nodetypes="cscc" />
    <path
       style="fill:#989898;fill-opacity:0.82935157;fill-rule:evenodd;stroke:none"
       d="m 144.375,552.98719 c 22.5,-3.125 47.11451,-1.28914 67.5,-9.375 16.90618,-6.7058 33.33333,-21.45833 44.375,-35 -27.29167,11.66667 -78.95833,18.95833 -111.875,44.375 z"
       id="path3457"
       sodipodi:nodetypes="cscc" />
    <path
       style="fill:#7c7c7c;fill-opacity:0.61433447;fill-rule:evenodd;stroke:none"
       d="m 76.397097,549.51597 c 1.325622,-0.70295 2.480811,-2.55129 2.710475,-4.06096 -1.074958,-0.41004 -2.314334,-1.44538 -3.392074,-1.67156 -0.21327,1.17357 0.714281,3.27594 0.681599,5.73252 z"
       id="path3451"
       sodipodi:nodetypes="cccc" />
  </g>
  <g
     inkscape:groupmode="layer"
     id="layer10"
     inkscape:label="fpw2010.logo"
     style="display:inline">
    <g
       id="g2677"
       transform="translate(42.00028,0)">
      <g
         id="g2664"
         style="display:inline">
        <path
           style="fill:#b4b4b4;fill-opacity:1;fill-rule:evenodd;stroke:none"
           d="m 637,485.86218 c 84.15854,-3.13584 106.76316,-54.08698 99.0953,-92.62132 -15.5,-5.66667 -63.21576,-2.65624 -79.5953,1.12132 -145.62731,33.47024 -124.58333,63.58333 -203.25,95.25 77,-22.91667 143.93721,-2.26653 183.75,-3.75 z"
           id="path3475"
           sodipodi:nodetypes="ccscs" />
        <path
           style="fill:#919191;fill-opacity:0.69283298;fill-rule:evenodd;stroke:none"
           d="m 570,451.36218 c 66.63123,-25.26147 99.66667,-14.33333 139,-61 -33.33333,-4 -85.58675,1.61879 -112,14 -48.25342,22.61879 -60.26108,51.16117 -144.48528,86.11091 C 462.84805,486.13976 532.27839,465.66333 570,451.36218 z"
           id="path3477"
           sodipodi:nodetypes="ccscs" />
      </g>
    </g>
  </g>
  <g
     inkscape:groupmode="layer"
     id="layer7"
     inkscape:label="fpw.text"
     style="display:inline" />
  <g
     inkscape:groupmode="layer"
     id="layer3"
     inkscape:label="mongueurs.logo"
     style="display:inline">
    <g
       id="g13"
       transform="matrix(0.02530074,0.00848836,0.00848836,-0.02530074,400.49447,1147.7065)" />
  </g>
  <g
     inkscape:groupmode="layer"
     id="layer5"
     inkscape:label="mask"
     style="display:none"
     sodipodi:insensitive="true">
    <path
       style="fill:#ffffff;fill-opacity:0.70588235;stroke:none"
       d="m -100,52.375 0,900 1350,0 0,-900 -1350,0 z m 130,330 780,0 0,160 -780,0 0,-160 z m 820,0 300,0 0,160 -300,0 0,-160 z m -820,190 200,0 0,210 -200,0 0,-210 z m 240,230 400,0 0,40 -400,0 0,-40 z"
       id="rect3469" />
  </g>
  <g
     inkscape:groupmode="layer"
     id="layer8"
     inkscape:label="comment"
     style="display:inline" />
</svg>
